<?xml version="1.0" encoding="UTF-8" standalone="no"?>
<!DOCTYPE svg PUBLIC "-//W3C//DTD SVG 1.1//EN"
 "http://www.w3.org/Graphics/SVG/1.1/DTD/svg11.dtd">
<!-- Generated by graphviz version 11.0.0 (20240428.1522)
 -->
<!-- Title: D Pages: 1 -->
<svg width="131pt" height="403pt"
 viewBox="0.00 0.00 130.50 403.31" xmlns="http://www.w3.org/2000/svg" xmlns:xlink="http://www.w3.org/1999/xlink">
<g id="graph0" class="graph" transform="scale(1 1) rotate(0) translate(4 399.31)">
<title>D</title>
<polygon fill="white" stroke="none" points="-4,4 -4,-399.31 126.5,-399.31 126.5,4 -4,4"/>
<text text-anchor="middle" x="61.25" y="-378.01" font-family="sans-serif" font-size="14.00">ast for &quot;[^a&#45;zA&#45;Z]&quot;</text>
<g id="clust1" class="cluster">
<title>cluster_0009</title>
<polygon fill="#f7f7f7" stroke="black" points="8.25,-8 8.25,-364.31 114.25,-364.31 114.25,-8 8.25,-8"/>
</g>
<g id="clust2" class="cluster">
<title>cluster_0005</title>
<polygon fill="#d9d9d9" stroke="black" points="16.25,-16 16.25,-268.21 106.25,-268.21 106.25,-16 16.25,-16"/>
</g>
<g id="clust3" class="cluster">
<title>cluster_0001</title>
<polygon fill="#bdbdbd" stroke="black" points="24.25,-24 24.25,-172.1 98.25,-172.1 98.25,-24 24.25,-24"/>
</g>
<!-- A0009 -->
<g id="node1" class="node">
<title>A0009</title>
<ellipse fill="none" stroke="black" cx="61.25" cy="-326.26" rx="40.48" ry="30.05"/>
<text text-anchor="middle" x="61.25" y="-330.21" font-family="monospace" font-size="14.00">GROUP</text>
<text text-anchor="middle" x="61.25" y="-312.96" font-family="monospace" font-size="14.00">R/0</text>
</g>
<!-- A0005 -->
<g id="node2" class="node">
<title>A0005</title>
<ellipse fill="none" stroke="black" cx="61.25" cy="-230.16" rx="34.65" ry="30.05"/>
<text text-anchor="middle" x="61.25" y="-234.11" font-family="monospace" font-size="14.00">ICLS</text>
<text text-anchor="middle" x="61.25" y="-216.86" font-family="monospace" font-size="14.00">A&#45;Z</text>
</g>
<!-- A0009&#45;&gt;A0005 -->
<g id="edge3" class="edge">
<title>A0009&#45;&gt;A0005</title>
<path fill="none" stroke="black" d="M61.25,-295.74C61.25,-288.21 61.25,-279.98 61.25,-271.99"/>
<polygon fill="black" stroke="black" points="64.75,-272.08 61.25,-262.08 57.75,-272.08 64.75,-272.08"/>
</g>
<!-- A0001 -->
<g id="node3" class="node">
<title>A0001</title>
<ellipse fill="none" stroke="black" cx="61.25" cy="-134.05" rx="28.81" ry="30.05"/>
<text text-anchor="middle" x="61.25" y="-138" font-family="monospace" font-size="14.00">CLS</text>
<text text-anchor="middle" x="61.25" y="-120.75" font-family="monospace" font-size="14.00">a&#45;z</text>
</g>
<!-- A0005&#45;&gt;A0001 -->
<g id="edge2" class="edge">
<title>A0005&#45;&gt;A0001</title>
<path fill="none" stroke="black" d="M61.25,-199.64C61.25,-192.11 61.25,-183.87 61.25,-175.88"/>
<polygon fill="black" stroke="black" points="64.75,-175.98 61.25,-165.98 57.75,-175.98 64.75,-175.98"/>
</g>
<!-- A0000 -->
<g id="node4" class="node">
<title>A0000</title>
<ellipse fill="none" stroke="black" cx="61.25" cy="-50" rx="27" ry="18"/>
<text text-anchor="middle" x="61.25" y="-45.33" font-family="monospace" font-size="14.00">ɛ</text>
</g>
<!-- A0001&#45;&gt;A0000 -->
<g id="edge1" class="edge">
<title>A0001&#45;&gt;A0000</title>
<path fill="none" stroke="black" d="M61.25,-103.89C61.25,-95.94 61.25,-87.34 61.25,-79.42"/>
<polygon fill="black" stroke="black" points="64.75,-79.64 61.25,-69.64 57.75,-79.64 64.75,-79.64"/>
</g>
</g>
</svg>
