<?xml version="1.0" encoding="UTF-8" standalone="no"?>
<!DOCTYPE svg PUBLIC "-//W3C//DTD SVG 1.1//EN"
 "http://www.w3.org/Graphics/SVG/1.1/DTD/svg11.dtd">
<!-- Generated by graphviz version 11.0.0 (20240428.1522)
 -->
<!-- Title: D Pages: 1 -->
<svg width="300pt" height="283pt"
 viewBox="0.00 0.00 300.37 283.00" xmlns="http://www.w3.org/2000/svg" xmlns:xlink="http://www.w3.org/1999/xlink">
<g id="graph0" class="graph" transform="scale(1 1) rotate(0) translate(4 279)">
<title>D</title>
<polygon fill="white" stroke="none" points="-4,4 -4,-279 296.37,-279 296.37,4 -4,4"/>
<text text-anchor="middle" x="146.18" y="-5.7" font-family="sans-serif" font-size="14.00">2&#45;byte front expanded</text>
<!-- N0000 -->
<g id="node1" class="node">
<title>N0000</title>
<polygon fill="none" stroke="black" points="167.25,-275 77,-275 77,-239 167.25,-239 167.25,-275"/>
<text text-anchor="middle" x="122.12" y="-252.32" font-family="monospace" font-size="14.00">0xC2&#45;0xDF</text>
</g>
<!-- N0001 -->
<g id="node2" class="node">
<title>N0001</title>
<polygon fill="none" stroke="black" points="90.25,-203 0,-203 0,-167 90.25,-167 90.25,-203"/>
<text text-anchor="middle" x="45.12" y="-180.32" font-family="monospace" font-size="14.00">0x7B&#45;0x7F</text>
</g>
<!-- N0000&#45;&gt;N0001 -->
<g id="edge2" class="edge">
<title>N0000&#45;&gt;N0001</title>
<path fill="none" stroke="black" d="M103.09,-238.7C93.93,-230.37 82.77,-220.22 72.7,-211.07"/>
<polygon fill="black" stroke="black" points="75.08,-208.5 65.33,-204.37 70.37,-213.68 75.08,-208.5"/>
</g>
<!-- N0004 -->
<g id="node5" class="node">
<title>N0004</title>
<ellipse fill="none" stroke="black" cx="200.12" cy="-185" rx="92.24" ry="18"/>
<text text-anchor="middle" x="200.12" y="-180.32" font-family="monospace" font-size="14.00">U+00&#45;U+63, 0/6</text>
</g>
<!-- N0000&#45;&gt;N0004 -->
<g id="edge1" class="edge">
<title>N0000&#45;&gt;N0004</title>
<path fill="none" stroke="black" d="M141.41,-238.7C150.85,-230.22 162.39,-219.86 172.73,-210.58"/>
<polygon fill="black" stroke="black" points="174.83,-213.4 179.94,-204.12 170.16,-208.19 174.83,-213.4"/>
</g>
<!-- N0002 -->
<g id="node3" class="node">
<title>N0002</title>
<polygon fill="none" stroke="black" points="90.25,-131 0,-131 0,-95 90.25,-95 90.25,-131"/>
<text text-anchor="middle" x="45.12" y="-108.33" font-family="monospace" font-size="14.00">0x5B&#45;0x60</text>
</g>
<!-- N0001&#45;&gt;N0002 -->
<g id="edge3" class="edge">
<title>N0001&#45;&gt;N0002</title>
<path fill="none" stroke="black" d="M45.12,-166.7C45.12,-159.41 45.12,-150.73 45.12,-142.54"/>
<polygon fill="black" stroke="black" points="48.63,-142.62 45.13,-132.62 41.63,-142.62 48.63,-142.62"/>
</g>
<!-- N0003 -->
<g id="node4" class="node">
<title>N0003</title>
<polygon fill="none" stroke="black" points="90.25,-59 0,-59 0,-23 90.25,-23 90.25,-59"/>
<text text-anchor="middle" x="45.12" y="-36.33" font-family="monospace" font-size="14.00">0x00&#45;0x40</text>
</g>
<!-- N0002&#45;&gt;N0003 -->
<g id="edge4" class="edge">
<title>N0002&#45;&gt;N0003</title>
<path fill="none" stroke="black" d="M45.12,-94.7C45.12,-87.41 45.12,-78.73 45.12,-70.54"/>
<polygon fill="black" stroke="black" points="48.63,-70.62 45.13,-60.62 41.63,-70.62 48.63,-70.62"/>
</g>
</g>
</svg>
