<?xml version="1.0" encoding="UTF-8" standalone="no"?>
<!DOCTYPE svg PUBLIC "-//W3C//DTD SVG 1.1//EN"
 "http://www.w3.org/Graphics/SVG/1.1/DTD/svg11.dtd">
<!-- Generated by graphviz version 11.0.0 (20240428.1522)
 -->
<!-- Title: D Pages: 1 -->
<svg width="371pt" height="643pt"
 viewBox="0.00 0.00 371.25 643.00" xmlns="http://www.w3.org/2000/svg" xmlns:xlink="http://www.w3.org/1999/xlink">
<g id="graph0" class="graph" transform="scale(1 1) rotate(0) translate(4 639)">
<title>D</title>
<polygon fill="white" stroke="none" points="-4,4 -4,-639 367.25,-639 367.25,4 -4,4"/>
<text text-anchor="middle" x="181.62" y="-5.7" font-family="sans-serif" font-size="14.00">after all reductions</text>
<!-- N0000 -->
<g id="node1" class="node">
<title>N0000</title>
<polygon fill="none" stroke="black" points="309.25,-635 219,-635 219,-599 309.25,-599 309.25,-635"/>
<text text-anchor="middle" x="264.12" y="-612.33" font-family="monospace" font-size="14.00">0xF4&#45;0xF4</text>
</g>
<!-- N0001 -->
<g id="node2" class="node">
<title>N0001</title>
<polygon fill="none" stroke="black" points="255.25,-563 165,-563 165,-527 255.25,-527 255.25,-563"/>
<text text-anchor="middle" x="210.12" y="-540.33" font-family="monospace" font-size="14.00">0xF1&#45;0xF3</text>
</g>
<!-- N0000&#45;&gt;N0001 -->
<g id="edge2" class="edge">
<title>N0000&#45;&gt;N0001</title>
<path fill="none" stroke="black" d="M250.78,-598.7C244.56,-590.64 237.04,-580.89 230.17,-571.98"/>
<polygon fill="black" stroke="black" points="233.12,-570.08 224.24,-564.3 227.58,-574.36 233.12,-570.08"/>
</g>
<!-- N000E -->
<g id="node15" class="node">
<title>N000E</title>
<polygon fill="none" stroke="black" points="363.25,-563 273,-563 273,-527 363.25,-527 363.25,-563"/>
<text text-anchor="middle" x="318.12" y="-540.33" font-family="monospace" font-size="14.00">0x80&#45;0x8F</text>
</g>
<!-- N0000&#45;&gt;N000E -->
<g id="edge1" class="edge">
<title>N0000&#45;&gt;N000E</title>
<path fill="none" stroke="black" d="M277.47,-598.7C283.69,-590.64 291.21,-580.89 298.08,-571.98"/>
<polygon fill="black" stroke="black" points="300.67,-574.36 304.01,-564.3 295.13,-570.08 300.67,-574.36"/>
</g>
<!-- N0002 -->
<g id="node3" class="node">
<title>N0002</title>
<polygon fill="none" stroke="black" points="182.25,-491 92,-491 92,-455 182.25,-455 182.25,-491"/>
<text text-anchor="middle" x="137.12" y="-468.32" font-family="monospace" font-size="14.00">0xF0&#45;0xF0</text>
</g>
<!-- N0001&#45;&gt;N0002 -->
<g id="edge4" class="edge">
<title>N0001&#45;&gt;N0002</title>
<path fill="none" stroke="black" d="M192.08,-526.7C183.39,-518.37 172.81,-508.22 163.27,-499.07"/>
<polygon fill="black" stroke="black" points="165.95,-496.79 156.31,-492.39 161.1,-501.84 165.95,-496.79"/>
</g>
<!-- N000D -->
<g id="node14" class="node">
<title>N000D</title>
<polygon fill="none" stroke="black" points="290.25,-491 200,-491 200,-455 290.25,-455 290.25,-491"/>
<text text-anchor="middle" x="245.12" y="-468.32" font-family="monospace" font-size="14.00">0x80&#45;0xBF</text>
</g>
<!-- N0001&#45;&gt;N000D -->
<g id="edge3" class="edge">
<title>N0001&#45;&gt;N000D</title>
<path fill="none" stroke="black" d="M218.78,-526.7C222.59,-519.07 227.17,-509.92 231.43,-501.4"/>
<polygon fill="black" stroke="black" points="234.55,-502.97 235.9,-492.46 228.29,-499.84 234.55,-502.97"/>
</g>
<!-- N0003 -->
<g id="node4" class="node">
<title>N0003</title>
<polygon fill="none" stroke="black" points="127.25,-419 37,-419 37,-383 127.25,-383 127.25,-419"/>
<text text-anchor="middle" x="82.12" y="-396.32" font-family="monospace" font-size="14.00">0xE1&#45;0xEF</text>
</g>
<!-- N0002&#45;&gt;N0003 -->
<g id="edge6" class="edge">
<title>N0002&#45;&gt;N0003</title>
<path fill="none" stroke="black" d="M123.53,-454.7C117.2,-446.64 109.54,-436.89 102.54,-427.98"/>
<polygon fill="black" stroke="black" points="105.43,-426 96.5,-420.29 99.93,-430.32 105.43,-426"/>
</g>
<!-- N000C -->
<g id="node13" class="node">
<title>N000C</title>
<polygon fill="none" stroke="black" points="235.25,-419 145,-419 145,-383 235.25,-383 235.25,-419"/>
<text text-anchor="middle" x="190.12" y="-396.32" font-family="monospace" font-size="14.00">0x90&#45;0xBF</text>
</g>
<!-- N0002&#45;&gt;N000C -->
<g id="edge5" class="edge">
<title>N0002&#45;&gt;N000C</title>
<path fill="none" stroke="black" d="M150.23,-454.7C156.26,-446.73 163.55,-437.1 170.24,-428.26"/>
<polygon fill="black" stroke="black" points="173.01,-430.4 176.26,-420.31 167.43,-426.17 173.01,-430.4"/>
</g>
<!-- N0004 -->
<g id="node5" class="node">
<title>N0004</title>
<polygon fill="none" stroke="black" points="127.25,-347 37,-347 37,-311 127.25,-311 127.25,-347"/>
<text text-anchor="middle" x="82.12" y="-324.32" font-family="monospace" font-size="14.00">0xE0&#45;0xE0</text>
</g>
<!-- N0003&#45;&gt;N0004 -->
<g id="edge8" class="edge">
<title>N0003&#45;&gt;N0004</title>
<path fill="none" stroke="black" d="M82.12,-382.7C82.12,-375.41 82.12,-366.73 82.12,-358.54"/>
<polygon fill="black" stroke="black" points="85.63,-358.62 82.13,-348.62 78.63,-358.62 85.63,-358.62"/>
</g>
<!-- N000B -->
<g id="node12" class="node">
<title>N000B</title>
<polygon fill="none" stroke="black" points="271.25,-347 181,-347 181,-311 271.25,-311 271.25,-347"/>
<text text-anchor="middle" x="226.12" y="-324.32" font-family="monospace" font-size="14.00">0x80&#45;0xBF</text>
</g>
<!-- N0003&#45;&gt;N000B -->
<g id="edge7" class="edge">
<title>N0003&#45;&gt;N000B</title>
<path fill="none" stroke="black" d="M118.09,-382.52C136.96,-373.34 160.28,-362.01 180.42,-352.22"/>
<polygon fill="black" stroke="black" points="181.79,-355.44 189.26,-347.92 178.73,-349.15 181.79,-355.44"/>
</g>
<!-- N0005 -->
<g id="node6" class="node">
<title>N0005</title>
<polygon fill="none" stroke="black" points="90.25,-275 0,-275 0,-239 90.25,-239 90.25,-275"/>
<text text-anchor="middle" x="45.12" y="-252.32" font-family="monospace" font-size="14.00">0xC2&#45;0xDF</text>
</g>
<!-- N0004&#45;&gt;N0005 -->
<g id="edge10" class="edge">
<title>N0004&#45;&gt;N0005</title>
<path fill="none" stroke="black" d="M72.98,-310.7C68.9,-302.98 64,-293.71 59.46,-285.11"/>
<polygon fill="black" stroke="black" points="62.64,-283.65 54.87,-276.44 56.45,-286.92 62.64,-283.65"/>
</g>
<!-- N000A -->
<g id="node11" class="node">
<title>N000A</title>
<polygon fill="none" stroke="black" points="198.25,-275 108,-275 108,-239 198.25,-239 198.25,-275"/>
<text text-anchor="middle" x="153.12" y="-252.32" font-family="monospace" font-size="14.00">0xA0&#45;0xBF</text>
</g>
<!-- N0004&#45;&gt;N000A -->
<g id="edge9" class="edge">
<title>N0004&#45;&gt;N000A</title>
<path fill="none" stroke="black" d="M99.68,-310.7C108.1,-302.39 118.36,-292.28 127.63,-283.14"/>
<polygon fill="black" stroke="black" points="130.03,-285.68 134.7,-276.17 125.12,-280.7 130.03,-285.68"/>
</g>
<!-- N0006 -->
<g id="node7" class="node">
<title>N0006</title>
<polygon fill="none" stroke="black" points="90.25,-203 0,-203 0,-167 90.25,-167 90.25,-203"/>
<text text-anchor="middle" x="45.12" y="-180.32" font-family="monospace" font-size="14.00">0x7B&#45;0x7F</text>
</g>
<!-- N0005&#45;&gt;N0006 -->
<g id="edge12" class="edge">
<title>N0005&#45;&gt;N0006</title>
<path fill="none" stroke="black" d="M45.12,-238.7C45.12,-231.41 45.12,-222.73 45.12,-214.54"/>
<polygon fill="black" stroke="black" points="48.63,-214.62 45.13,-204.62 41.63,-214.62 48.63,-214.62"/>
</g>
<!-- N0009 -->
<g id="node10" class="node">
<title>N0009</title>
<polygon fill="none" stroke="black" points="198.25,-203 108,-203 108,-167 198.25,-167 198.25,-203"/>
<text text-anchor="middle" x="153.12" y="-180.32" font-family="monospace" font-size="14.00">0x80&#45;0xBF</text>
</g>
<!-- N0005&#45;&gt;N0009 -->
<g id="edge11" class="edge">
<title>N0005&#45;&gt;N0009</title>
<path fill="none" stroke="black" d="M72.1,-238.52C85.73,-229.68 102.46,-218.84 117.17,-209.3"/>
<polygon fill="black" stroke="black" points="118.74,-212.46 125.22,-204.08 114.93,-206.59 118.74,-212.46"/>
</g>
<!-- N0007 -->
<g id="node8" class="node">
<title>N0007</title>
<polygon fill="none" stroke="black" points="90.25,-131 0,-131 0,-95 90.25,-95 90.25,-131"/>
<text text-anchor="middle" x="45.12" y="-108.33" font-family="monospace" font-size="14.00">0x5B&#45;0x60</text>
</g>
<!-- N0006&#45;&gt;N0007 -->
<g id="edge13" class="edge">
<title>N0006&#45;&gt;N0007</title>
<path fill="none" stroke="black" d="M45.12,-166.7C45.12,-159.41 45.12,-150.73 45.12,-142.54"/>
<polygon fill="black" stroke="black" points="48.63,-142.62 45.13,-132.62 41.63,-142.62 48.63,-142.62"/>
</g>
<!-- N0008 -->
<g id="node9" class="node">
<title>N0008</title>
<polygon fill="none" stroke="black" points="90.25,-59 0,-59 0,-23 90.25,-23 90.25,-59"/>
<text text-anchor="middle" x="45.12" y="-36.33" font-family="monospace" font-size="14.00">0x00&#45;0x40</text>
</g>
<!-- N0007&#45;&gt;N0008 -->
<g id="edge14" class="edge">
<title>N0007&#45;&gt;N0008</title>
<path fill="none" stroke="black" d="M45.12,-94.7C45.12,-87.41 45.12,-78.73 45.12,-70.54"/>
<polygon fill="black" stroke="black" points="48.63,-70.62 45.13,-60.62 41.63,-70.62 48.63,-70.62"/>
</g>
<!-- N000A&#45;&gt;N0009 -->
<g id="edge15" class="edge">
<title>N000A&#45;&gt;N0009</title>
<path fill="none" stroke="black" d="M153.12,-238.7C153.12,-231.41 153.12,-222.73 153.12,-214.54"/>
<polygon fill="black" stroke="black" points="156.63,-214.62 153.13,-204.62 149.63,-214.62 156.63,-214.62"/>
</g>
<!-- N000B&#45;&gt;N0009 -->
<g id="edge16" class="edge">
<title>N000B&#45;&gt;N0009</title>
<path fill="none" stroke="black" d="M225.36,-310.58C223.89,-291.85 219.61,-261.71 207.12,-239 201.43,-228.64 193.07,-219.01 184.61,-210.88"/>
<polygon fill="black" stroke="black" points="187.11,-208.42 177.35,-204.3 182.41,-213.61 187.11,-208.42"/>
</g>
<!-- N000C&#45;&gt;N000B -->
<g id="edge17" class="edge">
<title>N000C&#45;&gt;N000B</title>
<path fill="none" stroke="black" d="M199.02,-382.7C202.99,-374.98 207.76,-365.71 212.18,-357.11"/>
<polygon fill="black" stroke="black" points="215.18,-358.94 216.64,-348.45 208.95,-355.74 215.18,-358.94"/>
</g>
<!-- N000D&#45;&gt;N000B -->
<g id="edge18" class="edge">
<title>N000D&#45;&gt;N000B</title>
<path fill="none" stroke="black" d="M246.53,-454.79C247.62,-436.76 248.34,-407.67 244.12,-383 242.7,-374.67 240.17,-365.88 237.44,-357.9"/>
<polygon fill="black" stroke="black" points="240.8,-356.91 234.07,-348.73 234.23,-359.32 240.8,-356.91"/>
</g>
<!-- N000E&#45;&gt;N000B -->
<g id="edge19" class="edge">
<title>N000E&#45;&gt;N000B</title>
<path fill="none" stroke="black" d="M315.96,-526.51C313.33,-508.24 308.11,-478.97 299.12,-455 286.27,-420.72 277.69,-414.55 259.12,-383 254.04,-374.37 248.33,-365.06 243.1,-356.69"/>
<polygon fill="black" stroke="black" points="246.14,-354.94 237.85,-348.33 240.21,-358.66 246.14,-354.94"/>
</g>
</g>
</svg>
