<?xml version="1.0" encoding="UTF-8" standalone="no"?>
<!DOCTYPE svg PUBLIC "-//W3C//DTD SVG 1.1//EN"
 "http://www.w3.org/Graphics/SVG/1.1/DTD/svg11.dtd">
<!-- Generated by graphviz version 11.0.0 (20240428.1522)
 -->
<!-- Title: D Pages: 1 -->
<svg width="746pt" height="643pt"
 viewBox="0.00 0.00 746.25 643.00" xmlns="http://www.w3.org/2000/svg" xmlns:xlink="http://www.w3.org/1999/xlink">
<g id="graph0" class="graph" transform="scale(1 1) rotate(0) translate(4 639)">
<title>D</title>
<polygon fill="white" stroke="none" points="-4,4 -4,-639 742.25,-639 742.25,4 -4,4"/>
<text text-anchor="middle" x="369.12" y="-5.7" font-family="sans-serif" font-size="14.00">completed tree</text>
<!-- N0000 -->
<g id="node1" class="node">
<title>N0000</title>
<polygon fill="none" stroke="black" points="684.25,-635 594,-635 594,-599 684.25,-599 684.25,-635"/>
<text text-anchor="middle" x="639.12" y="-612.33" font-family="monospace" font-size="14.00">0xF4&#45;0xF4</text>
</g>
<!-- N0001 -->
<g id="node2" class="node">
<title>N0001</title>
<polygon fill="none" stroke="black" points="630.25,-563 540,-563 540,-527 630.25,-527 630.25,-563"/>
<text text-anchor="middle" x="585.12" y="-540.33" font-family="monospace" font-size="14.00">0xF1&#45;0xF3</text>
</g>
<!-- N0000&#45;&gt;N0001 -->
<g id="edge2" class="edge">
<title>N0000&#45;&gt;N0001</title>
<path fill="none" stroke="black" d="M625.78,-598.7C619.56,-590.64 612.04,-580.89 605.17,-571.98"/>
<polygon fill="black" stroke="black" points="608.12,-570.08 599.24,-564.3 602.58,-574.36 608.12,-570.08"/>
</g>
<!-- N0014 -->
<g id="node21" class="node">
<title>N0014</title>
<polygon fill="none" stroke="black" points="738.25,-563 648,-563 648,-527 738.25,-527 738.25,-563"/>
<text text-anchor="middle" x="693.12" y="-540.33" font-family="monospace" font-size="14.00">0x80&#45;0x8F</text>
</g>
<!-- N0000&#45;&gt;N0014 -->
<g id="edge1" class="edge">
<title>N0000&#45;&gt;N0014</title>
<path fill="none" stroke="black" d="M652.47,-598.7C658.69,-590.64 666.21,-580.89 673.08,-571.98"/>
<polygon fill="black" stroke="black" points="675.67,-574.36 679.01,-564.3 670.13,-570.08 675.67,-574.36"/>
</g>
<!-- N0002 -->
<g id="node3" class="node">
<title>N0002</title>
<polygon fill="none" stroke="black" points="522.25,-491 432,-491 432,-455 522.25,-455 522.25,-491"/>
<text text-anchor="middle" x="477.12" y="-468.32" font-family="monospace" font-size="14.00">0xF0&#45;0xF0</text>
</g>
<!-- N0001&#45;&gt;N0002 -->
<g id="edge4" class="edge">
<title>N0001&#45;&gt;N0002</title>
<path fill="none" stroke="black" d="M558.15,-526.52C544.52,-517.68 527.79,-506.84 513.08,-497.3"/>
<polygon fill="black" stroke="black" points="515.32,-494.59 505.03,-492.08 511.51,-500.46 515.32,-494.59"/>
</g>
<!-- N0011 -->
<g id="node18" class="node">
<title>N0011</title>
<polygon fill="none" stroke="black" points="630.25,-491 540,-491 540,-455 630.25,-455 630.25,-491"/>
<text text-anchor="middle" x="585.12" y="-468.32" font-family="monospace" font-size="14.00">0x80&#45;0xBF</text>
</g>
<!-- N0001&#45;&gt;N0011 -->
<g id="edge3" class="edge">
<title>N0001&#45;&gt;N0011</title>
<path fill="none" stroke="black" d="M585.12,-526.7C585.12,-519.41 585.12,-510.73 585.12,-502.54"/>
<polygon fill="black" stroke="black" points="588.63,-502.62 585.13,-492.62 581.63,-502.62 588.63,-502.62"/>
</g>
<!-- N0003 -->
<g id="node4" class="node">
<title>N0003</title>
<polygon fill="none" stroke="black" points="414.25,-419 324,-419 324,-383 414.25,-383 414.25,-419"/>
<text text-anchor="middle" x="369.12" y="-396.32" font-family="monospace" font-size="14.00">0xE1&#45;0xEF</text>
</g>
<!-- N0002&#45;&gt;N0003 -->
<g id="edge6" class="edge">
<title>N0002&#45;&gt;N0003</title>
<path fill="none" stroke="black" d="M450.15,-454.52C436.52,-445.68 419.79,-434.84 405.08,-425.3"/>
<polygon fill="black" stroke="black" points="407.32,-422.59 397.03,-420.08 403.51,-428.46 407.32,-422.59"/>
</g>
<!-- N000E -->
<g id="node15" class="node">
<title>N000E</title>
<polygon fill="none" stroke="black" points="522.25,-419 432,-419 432,-383 522.25,-383 522.25,-419"/>
<text text-anchor="middle" x="477.12" y="-396.32" font-family="monospace" font-size="14.00">0x90&#45;0xBF</text>
</g>
<!-- N0002&#45;&gt;N000E -->
<g id="edge5" class="edge">
<title>N0002&#45;&gt;N000E</title>
<path fill="none" stroke="black" d="M477.12,-454.7C477.12,-447.41 477.12,-438.73 477.12,-430.54"/>
<polygon fill="black" stroke="black" points="480.63,-430.62 477.13,-420.62 473.63,-430.62 480.63,-430.62"/>
</g>
<!-- N0004 -->
<g id="node5" class="node">
<title>N0004</title>
<polygon fill="none" stroke="black" points="306.25,-347 216,-347 216,-311 306.25,-311 306.25,-347"/>
<text text-anchor="middle" x="261.12" y="-324.32" font-family="monospace" font-size="14.00">0xE0&#45;0xE0</text>
</g>
<!-- N0003&#45;&gt;N0004 -->
<g id="edge8" class="edge">
<title>N0003&#45;&gt;N0004</title>
<path fill="none" stroke="black" d="M342.15,-382.52C328.52,-373.68 311.79,-362.84 297.08,-353.3"/>
<polygon fill="black" stroke="black" points="299.32,-350.59 289.03,-348.08 295.51,-356.46 299.32,-350.59"/>
</g>
<!-- N000C -->
<g id="node13" class="node">
<title>N000C</title>
<polygon fill="none" stroke="black" points="414.25,-347 324,-347 324,-311 414.25,-311 414.25,-347"/>
<text text-anchor="middle" x="369.12" y="-324.32" font-family="monospace" font-size="14.00">0x80&#45;0xBF</text>
</g>
<!-- N0003&#45;&gt;N000C -->
<g id="edge7" class="edge">
<title>N0003&#45;&gt;N000C</title>
<path fill="none" stroke="black" d="M369.12,-382.7C369.12,-375.41 369.12,-366.73 369.12,-358.54"/>
<polygon fill="black" stroke="black" points="372.63,-358.62 369.13,-348.62 365.63,-358.62 372.63,-358.62"/>
</g>
<!-- N0005 -->
<g id="node6" class="node">
<title>N0005</title>
<polygon fill="none" stroke="black" points="198.25,-275 108,-275 108,-239 198.25,-239 198.25,-275"/>
<text text-anchor="middle" x="153.12" y="-252.32" font-family="monospace" font-size="14.00">0xC2&#45;0xDF</text>
</g>
<!-- N0004&#45;&gt;N0005 -->
<g id="edge10" class="edge">
<title>N0004&#45;&gt;N0005</title>
<path fill="none" stroke="black" d="M234.15,-310.52C220.52,-301.68 203.79,-290.84 189.08,-281.3"/>
<polygon fill="black" stroke="black" points="191.32,-278.59 181.03,-276.08 187.51,-284.46 191.32,-278.59"/>
</g>
<!-- N000A -->
<g id="node11" class="node">
<title>N000A</title>
<polygon fill="none" stroke="black" points="306.25,-275 216,-275 216,-239 306.25,-239 306.25,-275"/>
<text text-anchor="middle" x="261.12" y="-252.32" font-family="monospace" font-size="14.00">0xA0&#45;0xBF</text>
</g>
<!-- N0004&#45;&gt;N000A -->
<g id="edge9" class="edge">
<title>N0004&#45;&gt;N000A</title>
<path fill="none" stroke="black" d="M261.12,-310.7C261.12,-303.41 261.12,-294.73 261.12,-286.54"/>
<polygon fill="black" stroke="black" points="264.63,-286.62 261.13,-276.62 257.63,-286.62 264.63,-286.62"/>
</g>
<!-- N0006 -->
<g id="node7" class="node">
<title>N0006</title>
<polygon fill="none" stroke="black" points="90.25,-203 0,-203 0,-167 90.25,-167 90.25,-203"/>
<text text-anchor="middle" x="45.12" y="-180.32" font-family="monospace" font-size="14.00">0x7B&#45;0x7F</text>
</g>
<!-- N0005&#45;&gt;N0006 -->
<g id="edge12" class="edge">
<title>N0005&#45;&gt;N0006</title>
<path fill="none" stroke="black" d="M126.15,-238.52C112.52,-229.68 95.79,-218.84 81.08,-209.3"/>
<polygon fill="black" stroke="black" points="83.32,-206.59 73.03,-204.08 79.51,-212.46 83.32,-206.59"/>
</g>
<!-- N0009 -->
<g id="node10" class="node">
<title>N0009</title>
<polygon fill="none" stroke="black" points="198.25,-203 108,-203 108,-167 198.25,-167 198.25,-203"/>
<text text-anchor="middle" x="153.12" y="-180.32" font-family="monospace" font-size="14.00">0x80&#45;0xBF</text>
</g>
<!-- N0005&#45;&gt;N0009 -->
<g id="edge11" class="edge">
<title>N0005&#45;&gt;N0009</title>
<path fill="none" stroke="black" d="M153.12,-238.7C153.12,-231.41 153.12,-222.73 153.12,-214.54"/>
<polygon fill="black" stroke="black" points="156.63,-214.62 153.13,-204.62 149.63,-214.62 156.63,-214.62"/>
</g>
<!-- N0007 -->
<g id="node8" class="node">
<title>N0007</title>
<polygon fill="none" stroke="black" points="90.25,-131 0,-131 0,-95 90.25,-95 90.25,-131"/>
<text text-anchor="middle" x="45.12" y="-108.33" font-family="monospace" font-size="14.00">0x5B&#45;0x60</text>
</g>
<!-- N0006&#45;&gt;N0007 -->
<g id="edge13" class="edge">
<title>N0006&#45;&gt;N0007</title>
<path fill="none" stroke="black" d="M45.12,-166.7C45.12,-159.41 45.12,-150.73 45.12,-142.54"/>
<polygon fill="black" stroke="black" points="48.63,-142.62 45.13,-132.62 41.63,-142.62 48.63,-142.62"/>
</g>
<!-- N0008 -->
<g id="node9" class="node">
<title>N0008</title>
<polygon fill="none" stroke="black" points="90.25,-59 0,-59 0,-23 90.25,-23 90.25,-59"/>
<text text-anchor="middle" x="45.12" y="-36.33" font-family="monospace" font-size="14.00">0x00&#45;0x40</text>
</g>
<!-- N0007&#45;&gt;N0008 -->
<g id="edge14" class="edge">
<title>N0007&#45;&gt;N0008</title>
<path fill="none" stroke="black" d="M45.12,-94.7C45.12,-87.41 45.12,-78.73 45.12,-70.54"/>
<polygon fill="black" stroke="black" points="48.63,-70.62 45.13,-60.62 41.63,-70.62 48.63,-70.62"/>
</g>
<!-- N000B -->
<g id="node12" class="node">
<title>N000B</title>
<polygon fill="none" stroke="black" points="306.25,-203 216,-203 216,-167 306.25,-167 306.25,-203"/>
<text text-anchor="middle" x="261.12" y="-180.32" font-family="monospace" font-size="14.00">0x80&#45;0xBF</text>
</g>
<!-- N000A&#45;&gt;N000B -->
<g id="edge15" class="edge">
<title>N000A&#45;&gt;N000B</title>
<path fill="none" stroke="black" d="M261.12,-238.7C261.12,-231.41 261.12,-222.73 261.12,-214.54"/>
<polygon fill="black" stroke="black" points="264.63,-214.62 261.13,-204.62 257.63,-214.62 264.63,-214.62"/>
</g>
<!-- N000D -->
<g id="node14" class="node">
<title>N000D</title>
<polygon fill="none" stroke="black" points="414.25,-275 324,-275 324,-239 414.25,-239 414.25,-275"/>
<text text-anchor="middle" x="369.12" y="-252.32" font-family="monospace" font-size="14.00">0x80&#45;0xBF</text>
</g>
<!-- N000C&#45;&gt;N000D -->
<g id="edge16" class="edge">
<title>N000C&#45;&gt;N000D</title>
<path fill="none" stroke="black" d="M369.12,-310.7C369.12,-303.41 369.12,-294.73 369.12,-286.54"/>
<polygon fill="black" stroke="black" points="372.63,-286.62 369.13,-276.62 365.63,-286.62 372.63,-286.62"/>
</g>
<!-- N000F -->
<g id="node16" class="node">
<title>N000F</title>
<polygon fill="none" stroke="black" points="522.25,-347 432,-347 432,-311 522.25,-311 522.25,-347"/>
<text text-anchor="middle" x="477.12" y="-324.32" font-family="monospace" font-size="14.00">0x80&#45;0xBF</text>
</g>
<!-- N000E&#45;&gt;N000F -->
<g id="edge17" class="edge">
<title>N000E&#45;&gt;N000F</title>
<path fill="none" stroke="black" d="M477.12,-382.7C477.12,-375.41 477.12,-366.73 477.12,-358.54"/>
<polygon fill="black" stroke="black" points="480.63,-358.62 477.13,-348.62 473.63,-358.62 480.63,-358.62"/>
</g>
<!-- N0010 -->
<g id="node17" class="node">
<title>N0010</title>
<polygon fill="none" stroke="black" points="522.25,-275 432,-275 432,-239 522.25,-239 522.25,-275"/>
<text text-anchor="middle" x="477.12" y="-252.32" font-family="monospace" font-size="14.00">0x80&#45;0xBF</text>
</g>
<!-- N000F&#45;&gt;N0010 -->
<g id="edge18" class="edge">
<title>N000F&#45;&gt;N0010</title>
<path fill="none" stroke="black" d="M477.12,-310.7C477.12,-303.41 477.12,-294.73 477.12,-286.54"/>
<polygon fill="black" stroke="black" points="480.63,-286.62 477.13,-276.62 473.63,-286.62 480.63,-286.62"/>
</g>
<!-- N0012 -->
<g id="node19" class="node">
<title>N0012</title>
<polygon fill="none" stroke="black" points="630.25,-419 540,-419 540,-383 630.25,-383 630.25,-419"/>
<text text-anchor="middle" x="585.12" y="-396.32" font-family="monospace" font-size="14.00">0x80&#45;0xBF</text>
</g>
<!-- N0011&#45;&gt;N0012 -->
<g id="edge19" class="edge">
<title>N0011&#45;&gt;N0012</title>
<path fill="none" stroke="black" d="M585.12,-454.7C585.12,-447.41 585.12,-438.73 585.12,-430.54"/>
<polygon fill="black" stroke="black" points="588.63,-430.62 585.13,-420.62 581.63,-430.62 588.63,-430.62"/>
</g>
<!-- N0013 -->
<g id="node20" class="node">
<title>N0013</title>
<polygon fill="none" stroke="black" points="630.25,-347 540,-347 540,-311 630.25,-311 630.25,-347"/>
<text text-anchor="middle" x="585.12" y="-324.32" font-family="monospace" font-size="14.00">0x80&#45;0xBF</text>
</g>
<!-- N0012&#45;&gt;N0013 -->
<g id="edge20" class="edge">
<title>N0012&#45;&gt;N0013</title>
<path fill="none" stroke="black" d="M585.12,-382.7C585.12,-375.41 585.12,-366.73 585.12,-358.54"/>
<polygon fill="black" stroke="black" points="588.63,-358.62 585.13,-348.62 581.63,-358.62 588.63,-358.62"/>
</g>
<!-- N0015 -->
<g id="node22" class="node">
<title>N0015</title>
<polygon fill="none" stroke="black" points="738.25,-491 648,-491 648,-455 738.25,-455 738.25,-491"/>
<text text-anchor="middle" x="693.12" y="-468.32" font-family="monospace" font-size="14.00">0x80&#45;0xBF</text>
</g>
<!-- N0014&#45;&gt;N0015 -->
<g id="edge21" class="edge">
<title>N0014&#45;&gt;N0015</title>
<path fill="none" stroke="black" d="M693.12,-526.7C693.12,-519.41 693.12,-510.73 693.12,-502.54"/>
<polygon fill="black" stroke="black" points="696.63,-502.62 693.13,-492.62 689.63,-502.62 696.63,-502.62"/>
</g>
<!-- N0016 -->
<g id="node23" class="node">
<title>N0016</title>
<polygon fill="none" stroke="black" points="738.25,-419 648,-419 648,-383 738.25,-383 738.25,-419"/>
<text text-anchor="middle" x="693.12" y="-396.32" font-family="monospace" font-size="14.00">0x80&#45;0xBF</text>
</g>
<!-- N0015&#45;&gt;N0016 -->
<g id="edge22" class="edge">
<title>N0015&#45;&gt;N0016</title>
<path fill="none" stroke="black" d="M693.12,-454.7C693.12,-447.41 693.12,-438.73 693.12,-430.54"/>
<polygon fill="black" stroke="black" points="696.63,-430.62 693.13,-420.62 689.63,-430.62 696.63,-430.62"/>
</g>
</g>
</svg>
