<?xml version="1.0" encoding="UTF-8" standalone="no"?>
<!DOCTYPE svg PUBLIC "-//W3C//DTD SVG 1.1//EN"
 "http://www.w3.org/Graphics/SVG/1.1/DTD/svg11.dtd">
<!-- Generated by graphviz version 11.0.0 (20240428.1522)
 -->
<!-- Title: D Pages: 1 -->
<svg width="746pt" height="571pt"
 viewBox="0.00 0.00 746.25 571.00" xmlns="http://www.w3.org/2000/svg" xmlns:xlink="http://www.w3.org/1999/xlink">
<g id="graph0" class="graph" transform="scale(1 1) rotate(0) translate(4 567)">
<title>D</title>
<polygon fill="white" stroke="none" points="-4,4 -4,-567 742.25,-567 742.25,4 -4,4"/>
<text text-anchor="middle" x="369.12" y="-5.7" font-family="sans-serif" font-size="14.00">after first reduce</text>
<!-- N0000 -->
<g id="node1" class="node">
<title>N0000</title>
<polygon fill="none" stroke="black" points="684.25,-563 594,-563 594,-527 684.25,-527 684.25,-563"/>
<text text-anchor="middle" x="639.12" y="-540.33" font-family="monospace" font-size="14.00">0xF4&#45;0xF4</text>
</g>
<!-- N0001 -->
<g id="node2" class="node">
<title>N0001</title>
<polygon fill="none" stroke="black" points="630.25,-491 540,-491 540,-455 630.25,-455 630.25,-491"/>
<text text-anchor="middle" x="585.12" y="-468.32" font-family="monospace" font-size="14.00">0xF1&#45;0xF3</text>
</g>
<!-- N0000&#45;&gt;N0001 -->
<g id="edge2" class="edge">
<title>N0000&#45;&gt;N0001</title>
<path fill="none" stroke="black" d="M625.78,-526.7C619.56,-518.64 612.04,-508.89 605.17,-499.98"/>
<polygon fill="black" stroke="black" points="608.12,-498.08 599.24,-492.3 602.58,-502.36 608.12,-498.08"/>
</g>
<!-- N0013 -->
<g id="node20" class="node">
<title>N0013</title>
<polygon fill="none" stroke="black" points="738.25,-491 648,-491 648,-455 738.25,-455 738.25,-491"/>
<text text-anchor="middle" x="693.12" y="-468.32" font-family="monospace" font-size="14.00">0x80&#45;0x8F</text>
</g>
<!-- N0000&#45;&gt;N0013 -->
<g id="edge1" class="edge">
<title>N0000&#45;&gt;N0013</title>
<path fill="none" stroke="black" d="M652.47,-526.7C658.69,-518.64 666.21,-508.89 673.08,-499.98"/>
<polygon fill="black" stroke="black" points="675.67,-502.36 679.01,-492.3 670.13,-498.08 675.67,-502.36"/>
</g>
<!-- N0002 -->
<g id="node3" class="node">
<title>N0002</title>
<polygon fill="none" stroke="black" points="522.25,-419 432,-419 432,-383 522.25,-383 522.25,-419"/>
<text text-anchor="middle" x="477.12" y="-396.32" font-family="monospace" font-size="14.00">0xF0&#45;0xF0</text>
</g>
<!-- N0001&#45;&gt;N0002 -->
<g id="edge4" class="edge">
<title>N0001&#45;&gt;N0002</title>
<path fill="none" stroke="black" d="M558.15,-454.52C544.52,-445.68 527.79,-434.84 513.08,-425.3"/>
<polygon fill="black" stroke="black" points="515.32,-422.59 505.03,-420.08 511.51,-428.46 515.32,-422.59"/>
</g>
<!-- N0010 -->
<g id="node17" class="node">
<title>N0010</title>
<polygon fill="none" stroke="black" points="630.25,-419 540,-419 540,-383 630.25,-383 630.25,-419"/>
<text text-anchor="middle" x="585.12" y="-396.32" font-family="monospace" font-size="14.00">0x80&#45;0xBF</text>
</g>
<!-- N0001&#45;&gt;N0010 -->
<g id="edge3" class="edge">
<title>N0001&#45;&gt;N0010</title>
<path fill="none" stroke="black" d="M585.12,-454.7C585.12,-447.41 585.12,-438.73 585.12,-430.54"/>
<polygon fill="black" stroke="black" points="588.63,-430.62 585.13,-420.62 581.63,-430.62 588.63,-430.62"/>
</g>
<!-- N0003 -->
<g id="node4" class="node">
<title>N0003</title>
<polygon fill="none" stroke="black" points="414.25,-347 324,-347 324,-311 414.25,-311 414.25,-347"/>
<text text-anchor="middle" x="369.12" y="-324.32" font-family="monospace" font-size="14.00">0xE1&#45;0xEF</text>
</g>
<!-- N0002&#45;&gt;N0003 -->
<g id="edge6" class="edge">
<title>N0002&#45;&gt;N0003</title>
<path fill="none" stroke="black" d="M450.15,-382.52C436.52,-373.68 419.79,-362.84 405.08,-353.3"/>
<polygon fill="black" stroke="black" points="407.32,-350.59 397.03,-348.08 403.51,-356.46 407.32,-350.59"/>
</g>
<!-- N000D -->
<g id="node14" class="node">
<title>N000D</title>
<polygon fill="none" stroke="black" points="522.25,-347 432,-347 432,-311 522.25,-311 522.25,-347"/>
<text text-anchor="middle" x="477.12" y="-324.32" font-family="monospace" font-size="14.00">0x90&#45;0xBF</text>
</g>
<!-- N0002&#45;&gt;N000D -->
<g id="edge5" class="edge">
<title>N0002&#45;&gt;N000D</title>
<path fill="none" stroke="black" d="M477.12,-382.7C477.12,-375.41 477.12,-366.73 477.12,-358.54"/>
<polygon fill="black" stroke="black" points="480.63,-358.62 477.13,-348.62 473.63,-358.62 480.63,-358.62"/>
</g>
<!-- N0004 -->
<g id="node5" class="node">
<title>N0004</title>
<polygon fill="none" stroke="black" points="306.25,-275 216,-275 216,-239 306.25,-239 306.25,-275"/>
<text text-anchor="middle" x="261.12" y="-252.32" font-family="monospace" font-size="14.00">0xE0&#45;0xE0</text>
</g>
<!-- N0003&#45;&gt;N0004 -->
<g id="edge8" class="edge">
<title>N0003&#45;&gt;N0004</title>
<path fill="none" stroke="black" d="M342.15,-310.52C328.52,-301.68 311.79,-290.84 297.08,-281.3"/>
<polygon fill="black" stroke="black" points="299.32,-278.59 289.03,-276.08 295.51,-284.46 299.32,-278.59"/>
</g>
<!-- N000B -->
<g id="node12" class="node">
<title>N000B</title>
<polygon fill="none" stroke="black" points="414.25,-275 324,-275 324,-239 414.25,-239 414.25,-275"/>
<text text-anchor="middle" x="369.12" y="-252.32" font-family="monospace" font-size="14.00">0x80&#45;0xBF</text>
</g>
<!-- N0003&#45;&gt;N000B -->
<g id="edge7" class="edge">
<title>N0003&#45;&gt;N000B</title>
<path fill="none" stroke="black" d="M369.12,-310.7C369.12,-303.41 369.12,-294.73 369.12,-286.54"/>
<polygon fill="black" stroke="black" points="372.63,-286.62 369.13,-276.62 365.63,-286.62 372.63,-286.62"/>
</g>
<!-- N0005 -->
<g id="node6" class="node">
<title>N0005</title>
<polygon fill="none" stroke="black" points="198.25,-203 108,-203 108,-167 198.25,-167 198.25,-203"/>
<text text-anchor="middle" x="153.12" y="-180.32" font-family="monospace" font-size="14.00">0xC2&#45;0xDF</text>
</g>
<!-- N0004&#45;&gt;N0005 -->
<g id="edge10" class="edge">
<title>N0004&#45;&gt;N0005</title>
<path fill="none" stroke="black" d="M234.15,-238.52C220.52,-229.68 203.79,-218.84 189.08,-209.3"/>
<polygon fill="black" stroke="black" points="191.32,-206.59 181.03,-204.08 187.51,-212.46 191.32,-206.59"/>
</g>
<!-- N0009 -->
<g id="node10" class="node">
<title>N0009</title>
<polygon fill="none" stroke="black" points="306.25,-203 216,-203 216,-167 306.25,-167 306.25,-203"/>
<text text-anchor="middle" x="261.12" y="-180.32" font-family="monospace" font-size="14.00">0xA0&#45;0xBF</text>
</g>
<!-- N0004&#45;&gt;N0009 -->
<g id="edge9" class="edge">
<title>N0004&#45;&gt;N0009</title>
<path fill="none" stroke="black" d="M261.12,-238.7C261.12,-231.41 261.12,-222.73 261.12,-214.54"/>
<polygon fill="black" stroke="black" points="264.63,-214.62 261.13,-204.62 257.63,-214.62 264.63,-214.62"/>
</g>
<!-- N0006 -->
<g id="node7" class="node">
<title>N0006</title>
<polygon fill="none" stroke="black" points="90.25,-131 0,-131 0,-95 90.25,-95 90.25,-131"/>
<text text-anchor="middle" x="45.12" y="-108.33" font-family="monospace" font-size="14.00">0x7B&#45;0x7F</text>
</g>
<!-- N0005&#45;&gt;N0006 -->
<g id="edge12" class="edge">
<title>N0005&#45;&gt;N0006</title>
<path fill="none" stroke="black" d="M126.15,-166.52C112.52,-157.68 95.79,-146.84 81.08,-137.3"/>
<polygon fill="black" stroke="black" points="83.32,-134.59 73.03,-132.08 79.51,-140.46 83.32,-134.59"/>
</g>
<!-- N0008 -->
<g id="node9" class="node">
<title>N0008</title>
<polygon fill="none" stroke="black" points="198.25,-131 108,-131 108,-95 198.25,-95 198.25,-131"/>
<text text-anchor="middle" x="153.12" y="-108.33" font-family="monospace" font-size="14.00">0x80&#45;0xBF</text>
</g>
<!-- N0005&#45;&gt;N0008 -->
<g id="edge11" class="edge">
<title>N0005&#45;&gt;N0008</title>
<path fill="none" stroke="black" d="M153.12,-166.7C153.12,-159.41 153.12,-150.73 153.12,-142.54"/>
<polygon fill="black" stroke="black" points="156.63,-142.62 153.13,-132.62 149.63,-142.62 156.63,-142.62"/>
</g>
<!-- N0007 -->
<g id="node8" class="node">
<title>N0007</title>
<polygon fill="none" stroke="black" points="90.25,-59 0,-59 0,-23 90.25,-23 90.25,-59"/>
<text text-anchor="middle" x="45.12" y="-36.33" font-family="monospace" font-size="14.00">0x00&#45;0x40</text>
</g>
<!-- N0006&#45;&gt;N0007 -->
<g id="edge13" class="edge">
<title>N0006&#45;&gt;N0007</title>
<path fill="none" stroke="black" d="M45.12,-94.7C45.12,-87.41 45.12,-78.73 45.12,-70.54"/>
<polygon fill="black" stroke="black" points="48.63,-70.62 45.13,-60.62 41.63,-70.62 48.63,-70.62"/>
</g>
<!-- N000A -->
<g id="node11" class="node">
<title>N000A</title>
<polygon fill="none" stroke="black" points="306.25,-131 216,-131 216,-95 306.25,-95 306.25,-131"/>
<text text-anchor="middle" x="261.12" y="-108.33" font-family="monospace" font-size="14.00">0x80&#45;0xBF</text>
</g>
<!-- N0009&#45;&gt;N000A -->
<g id="edge14" class="edge">
<title>N0009&#45;&gt;N000A</title>
<path fill="none" stroke="black" d="M261.12,-166.7C261.12,-159.41 261.12,-150.73 261.12,-142.54"/>
<polygon fill="black" stroke="black" points="264.63,-142.62 261.13,-132.62 257.63,-142.62 264.63,-142.62"/>
</g>
<!-- N000C -->
<g id="node13" class="node">
<title>N000C</title>
<polygon fill="none" stroke="black" points="414.25,-203 324,-203 324,-167 414.25,-167 414.25,-203"/>
<text text-anchor="middle" x="369.12" y="-180.32" font-family="monospace" font-size="14.00">0x80&#45;0xBF</text>
</g>
<!-- N000B&#45;&gt;N000C -->
<g id="edge15" class="edge">
<title>N000B&#45;&gt;N000C</title>
<path fill="none" stroke="black" d="M369.12,-238.7C369.12,-231.41 369.12,-222.73 369.12,-214.54"/>
<polygon fill="black" stroke="black" points="372.63,-214.62 369.13,-204.62 365.63,-214.62 372.63,-214.62"/>
</g>
<!-- N000E -->
<g id="node15" class="node">
<title>N000E</title>
<polygon fill="none" stroke="black" points="522.25,-275 432,-275 432,-239 522.25,-239 522.25,-275"/>
<text text-anchor="middle" x="477.12" y="-252.32" font-family="monospace" font-size="14.00">0x80&#45;0xBF</text>
</g>
<!-- N000D&#45;&gt;N000E -->
<g id="edge16" class="edge">
<title>N000D&#45;&gt;N000E</title>
<path fill="none" stroke="black" d="M477.12,-310.7C477.12,-303.41 477.12,-294.73 477.12,-286.54"/>
<polygon fill="black" stroke="black" points="480.63,-286.62 477.13,-276.62 473.63,-286.62 480.63,-286.62"/>
</g>
<!-- N000F -->
<g id="node16" class="node">
<title>N000F</title>
<polygon fill="none" stroke="black" points="522.25,-203 432,-203 432,-167 522.25,-167 522.25,-203"/>
<text text-anchor="middle" x="477.12" y="-180.32" font-family="monospace" font-size="14.00">0x80&#45;0xBF</text>
</g>
<!-- N000E&#45;&gt;N000F -->
<g id="edge17" class="edge">
<title>N000E&#45;&gt;N000F</title>
<path fill="none" stroke="black" d="M477.12,-238.7C477.12,-231.41 477.12,-222.73 477.12,-214.54"/>
<polygon fill="black" stroke="black" points="480.63,-214.62 477.13,-204.62 473.63,-214.62 480.63,-214.62"/>
</g>
<!-- N0011 -->
<g id="node18" class="node">
<title>N0011</title>
<polygon fill="none" stroke="black" points="630.25,-347 540,-347 540,-311 630.25,-311 630.25,-347"/>
<text text-anchor="middle" x="585.12" y="-324.32" font-family="monospace" font-size="14.00">0x80&#45;0xBF</text>
</g>
<!-- N0010&#45;&gt;N0011 -->
<g id="edge18" class="edge">
<title>N0010&#45;&gt;N0011</title>
<path fill="none" stroke="black" d="M585.12,-382.7C585.12,-375.41 585.12,-366.73 585.12,-358.54"/>
<polygon fill="black" stroke="black" points="588.63,-358.62 585.13,-348.62 581.63,-358.62 588.63,-358.62"/>
</g>
<!-- N0012 -->
<g id="node19" class="node">
<title>N0012</title>
<polygon fill="none" stroke="black" points="630.25,-275 540,-275 540,-239 630.25,-239 630.25,-275"/>
<text text-anchor="middle" x="585.12" y="-252.32" font-family="monospace" font-size="14.00">0x80&#45;0xBF</text>
</g>
<!-- N0011&#45;&gt;N0012 -->
<g id="edge19" class="edge">
<title>N0011&#45;&gt;N0012</title>
<path fill="none" stroke="black" d="M585.12,-310.7C585.12,-303.41 585.12,-294.73 585.12,-286.54"/>
<polygon fill="black" stroke="black" points="588.63,-286.62 585.13,-276.62 581.63,-286.62 588.63,-286.62"/>
</g>
<!-- N0014 -->
<g id="node21" class="node">
<title>N0014</title>
<polygon fill="none" stroke="black" points="738.25,-419 648,-419 648,-383 738.25,-383 738.25,-419"/>
<text text-anchor="middle" x="693.12" y="-396.32" font-family="monospace" font-size="14.00">0x80&#45;0xBF</text>
</g>
<!-- N0013&#45;&gt;N0014 -->
<g id="edge20" class="edge">
<title>N0013&#45;&gt;N0014</title>
<path fill="none" stroke="black" d="M693.12,-454.7C693.12,-447.41 693.12,-438.73 693.12,-430.54"/>
<polygon fill="black" stroke="black" points="696.63,-430.62 693.13,-420.62 689.63,-430.62 696.63,-430.62"/>
</g>
<!-- N0015 -->
<g id="node22" class="node">
<title>N0015</title>
<polygon fill="none" stroke="black" points="738.25,-347 648,-347 648,-311 738.25,-311 738.25,-347"/>
<text text-anchor="middle" x="693.12" y="-324.32" font-family="monospace" font-size="14.00">0x80&#45;0xBF</text>
</g>
<!-- N0014&#45;&gt;N0015 -->
<g id="edge21" class="edge">
<title>N0014&#45;&gt;N0015</title>
<path fill="none" stroke="black" d="M693.12,-382.7C693.12,-375.41 693.12,-366.73 693.12,-358.54"/>
<polygon fill="black" stroke="black" points="696.63,-358.62 693.13,-348.62 689.63,-358.62 696.63,-358.62"/>
</g>
</g>
</svg>
