<?xml version="1.0" encoding="UTF-8" standalone="no"?>
<!DOCTYPE svg PUBLIC "-//W3C//DTD SVG 1.1//EN"
 "http://www.w3.org/Graphics/SVG/1.1/DTD/svg11.dtd">
<!-- Generated by graphviz version 11.0.0 (20240428.1522)
 -->
<!-- Title: D Pages: 1 -->
<svg width="131pt" height="354pt"
 viewBox="0.00 0.00 130.75 353.84" xmlns="http://www.w3.org/2000/svg" xmlns:xlink="http://www.w3.org/1999/xlink">
<g id="graph0" class="graph" transform="scale(1 1) rotate(0) translate(4 349.84)">
<title>D</title>
<polygon fill="white" stroke="none" points="-4,4 -4,-349.84 126.75,-349.84 126.75,4 -4,4"/>
<text text-anchor="middle" x="61.38" y="-328.54" font-family="sans-serif" font-size="14.00">program for &quot;\\b&quot;</text>
<!-- I0001 -->
<g id="node1" class="node">
<title>I0001</title>
<polygon fill="#ffffcc" stroke="black" points="115.54,-279.92 65.5,-305.59 15.46,-279.92 34.57,-238.39 96.43,-238.39 115.54,-279.92"/>
<text text-anchor="middle" x="65.5" y="-272.39" font-family="monospace" font-size="14.00">MATCH</text>
<text text-anchor="middle" x="65.5" y="-255.14" font-family="monospace" font-size="14.00">set 1</text>
<text text-anchor="middle" x="11.34" y="-309.54" font-family="monospace" font-size="14.00">1</text>
</g>
<!-- I0002 -->
<g id="node2" class="node">
<title>I0002</title>
<polygon fill="#ccebc5" stroke="black" points="65.5,-195.29 8.25,-152.79 65.5,-110.29 122.75,-152.79 65.5,-195.29"/>
<text text-anchor="middle" x="65.5" y="-156.74" font-family="monospace" font-size="14.00">ASSRT</text>
<text text-anchor="middle" x="65.5" y="-139.49" font-family="monospace" font-size="14.00">\b</text>
<text text-anchor="middle" x="4.12" y="-199.24" font-family="monospace" font-size="14.00">2</text>
</g>
<!-- I0001&#45;&gt;I0002 -->
<g id="edge1" class="edge">
<title>I0001&#45;&gt;I0002</title>
<path fill="none" stroke="black" d="M65.5,-238.17C65.5,-228.71 65.5,-217.89 65.5,-207.24"/>
<polygon fill="black" stroke="black" points="69,-207.33 65.5,-197.33 62,-207.33 69,-207.33"/>
</g>
<!-- I0003 -->
<g id="node3" class="node">
<title>I0003</title>
<polygon fill="#ffffcc" stroke="black" points="122.75,-48.63 65.5,-74.29 8.25,-48.63 30.12,-7.09 100.88,-7.09 122.75,-48.63"/>
<text text-anchor="middle" x="65.5" y="-41.1" font-family="monospace" font-size="14.00">MATCH</text>
<text text-anchor="middle" x="65.5" y="-23.85" font-family="monospace" font-size="14.00">slot 0</text>
<text text-anchor="middle" x="4.13" y="-78.24" font-family="monospace" font-size="14.00">3</text>
</g>
<!-- I0002&#45;&gt;I0003 -->
<g id="edge2" class="edge">
<title>I0002&#45;&gt;I0003</title>
<path fill="none" stroke="black" d="M65.5,-109.8C65.5,-102.07 65.5,-93.94 65.5,-86.05"/>
<polygon fill="black" stroke="black" points="69,-86.25 65.5,-76.25 62,-86.25 69,-86.25"/>
</g>
</g>
</svg>
