<?xml version="1.0" encoding="UTF-8" standalone="no"?>
<!DOCTYPE svg PUBLIC "-//W3C//DTD SVG 1.1//EN"
 "http://www.w3.org/Graphics/SVG/1.1/DTD/svg11.dtd">
<!-- Generated by graphviz version 11.0.0 (20240428.1522)
 -->
<!-- Title: D Pages: 1 -->
<svg width="131pt" height="346pt"
 viewBox="0.00 0.00 130.75 346.34" xmlns="http://www.w3.org/2000/svg" xmlns:xlink="http://www.w3.org/1999/xlink">
<g id="graph0" class="graph" transform="scale(1 1) rotate(0) translate(4 342.34)">
<title>D</title>
<polygon fill="white" stroke="none" points="-4,4 -4,-342.34 126.75,-342.34 126.75,4 -4,4"/>
<text text-anchor="middle" x="61.38" y="-321.04" font-family="Times,serif" font-size="14.00">program for &quot;\\b&quot;</text>
<!-- I0001 -->
<g id="node1" class="node">
<title>I0001</title>
<polygon fill="#ffffcc" stroke="black" points="120.69,-272.58 64.75,-297.34 8.81,-272.58 30.18,-232.51 99.32,-232.51 120.69,-272.58"/>
<text text-anchor="middle" x="64.75" y="-264.71" font-family="Times,serif" font-size="14.00">MATCH</text>
<text text-anchor="middle" x="64.75" y="-248.21" font-family="Times,serif" font-size="14.00">set 1</text>
<text text-anchor="middle" x="5.44" y="-300.54" font-family="Times,serif" font-size="14.00">1</text>
</g>
<!-- I0002 -->
<g id="node2" class="node">
<title>I0002</title>
<polygon fill="#ccebc5" stroke="black" points="64.75,-189.67 6.75,-148.67 64.75,-107.67 122.75,-148.67 64.75,-189.67"/>
<text text-anchor="middle" x="64.75" y="-151.87" font-family="Times,serif" font-size="14.00">ASSRT</text>
<text text-anchor="middle" x="64.75" y="-135.37" font-family="Times,serif" font-size="14.00">\b</text>
<text text-anchor="middle" x="3.38" y="-192.87" font-family="Times,serif" font-size="14.00">2</text>
</g>
<!-- I0001&#45;&gt;I0002 -->
<g id="edge1" class="edge">
<title>I0001&#45;&gt;I0002</title>
<path fill="none" stroke="black" d="M64.75,-232.25C64.75,-222.83 64.75,-212.02 64.75,-201.39"/>
<polygon fill="black" stroke="black" points="68.25,-201.52 64.75,-191.52 61.25,-201.52 68.25,-201.52"/>
</g>
<!-- I0003 -->
<g id="node3" class="node">
<title>I0003</title>
<polygon fill="#ffffcc" stroke="black" points="120.69,-46.91 64.75,-71.67 8.81,-46.91 30.18,-6.84 99.32,-6.84 120.69,-46.91"/>
<text text-anchor="middle" x="64.75" y="-39.04" font-family="Times,serif" font-size="14.00">MATCH</text>
<text text-anchor="middle" x="64.75" y="-22.54" font-family="Times,serif" font-size="14.00">slot 0</text>
<text text-anchor="middle" x="5.44" y="-74.87" font-family="Times,serif" font-size="14.00">3</text>
</g>
<!-- I0002&#45;&gt;I0003 -->
<g id="edge2" class="edge">
<title>I0002&#45;&gt;I0003</title>
<path fill="none" stroke="black" d="M64.75,-107.34C64.75,-99.61 64.75,-91.45 64.75,-83.53"/>
<polygon fill="black" stroke="black" points="68.25,-83.7 64.75,-73.7 61.25,-83.7 68.25,-83.7"/>
</g>
</g>
</svg>
