<?xml version="1.0" encoding="UTF-8" standalone="no"?>
<!DOCTYPE svg PUBLIC "-//W3C//DTD SVG 1.1//EN"
 "http://www.w3.org/Graphics/SVG/1.1/DTD/svg11.dtd">
<!-- Generated by graphviz version 11.0.0 (20240428.1522)
 -->
<!-- Title: D Pages: 1 -->
<svg width="158pt" height="377pt"
 viewBox="0.00 0.00 158.25 377.34" xmlns="http://www.w3.org/2000/svg" xmlns:xlink="http://www.w3.org/1999/xlink">
<g id="graph0" class="graph" transform="scale(1 1) rotate(0) translate(4 373.34)">
<title>D</title>
<polygon fill="white" stroke="none" points="-4,4 -4,-373.34 154.25,-373.34 154.25,4 -4,4"/>
<text text-anchor="middle" x="75.12" y="-352.04" font-family="Times,serif" font-size="14.00">program for &quot;l|r&quot;</text>
<!-- I0001 -->
<g id="node1" class="node">
<title>I0001</title>
<polygon fill="#ffffcc" stroke="black" points="133.94,-303.58 78,-328.34 22.06,-303.58 43.43,-263.51 112.57,-263.51 133.94,-303.58"/>
<text text-anchor="middle" x="78" y="-295.71" font-family="Times,serif" font-size="14.00">MATCH</text>
<text text-anchor="middle" x="78" y="-279.21" font-family="Times,serif" font-size="14.00">set 1</text>
<text text-anchor="middle" x="18.69" y="-331.54" font-family="Times,serif" font-size="14.00">1</text>
</g>
<!-- I0002 -->
<g id="node2" class="node">
<title>I0002</title>
<ellipse fill="#b3cde3" stroke="black" cx="78" cy="-202.67" rx="35.49" ry="18"/>
<text text-anchor="middle" x="78" y="-197.62" font-family="Times,serif" font-size="14.00">SPLIT</text>
<text text-anchor="middle" x="39.14" y="-223.87" font-family="Times,serif" font-size="14.00">2</text>
</g>
<!-- I0001&#45;&gt;I0002 -->
<g id="edge1" class="edge">
<title>I0001&#45;&gt;I0002</title>
<path fill="none" stroke="black" d="M78,-263.23C78,-253.39 78,-242.34 78,-232.46"/>
<polygon fill="black" stroke="black" points="81.5,-232.66 78,-222.66 74.5,-232.66 81.5,-232.66"/>
</g>
<!-- I0003 -->
<g id="node3" class="node">
<title>I0003</title>
<polygon fill="#fbb4ae" stroke="black" points="69.25,-148.67 6.75,-148.67 6.75,-107.67 69.25,-107.67 69.25,-148.67"/>
<text text-anchor="middle" x="38" y="-131.37" font-family="Times,serif" font-size="14.00">RANGE</text>
<text text-anchor="middle" x="38" y="-114.87" font-family="Times,serif" font-size="14.00">l&#45;l</text>
<text text-anchor="middle" x="3.38" y="-151.87" font-family="Times,serif" font-size="14.00">3</text>
</g>
<!-- I0002&#45;&gt;I0003 -->
<g id="edge2" class="edge">
<title>I0002&#45;&gt;I0003</title>
<path fill="none" stroke="black" d="M68.72,-184.86C64.48,-177.16 59.31,-167.8 54.44,-158.97"/>
<polygon fill="black" stroke="black" points="57.56,-157.37 49.66,-150.31 51.43,-160.75 57.56,-157.37"/>
</g>
<!-- I0004 -->
<g id="node4" class="node">
<title>I0004</title>
<polygon fill="#fbb4ae" stroke="black" points="150.25,-148.67 87.75,-148.67 87.75,-107.67 150.25,-107.67 150.25,-148.67"/>
<text text-anchor="middle" x="119" y="-131.37" font-family="Times,serif" font-size="14.00">RANGE</text>
<text text-anchor="middle" x="119" y="-114.87" font-family="Times,serif" font-size="14.00">r&#45;r</text>
<text text-anchor="middle" x="84.38" y="-151.87" font-family="Times,serif" font-size="14.00">4</text>
</g>
<!-- I0002&#45;&gt;I0004 -->
<g id="edge3" class="edge">
<title>I0002&#45;&gt;I0004</title>
<path fill="none" stroke="black" stroke-dasharray="5,2" d="M87.51,-184.86C91.86,-177.16 97.15,-167.8 102.15,-158.97"/>
<polygon fill="black" stroke="black" points="105.18,-160.73 107.05,-150.3 99.08,-157.28 105.18,-160.73"/>
</g>
<!-- I0005 -->
<g id="node5" class="node">
<title>I0005</title>
<polygon fill="#ffffcc" stroke="black" points="133.94,-46.91 78,-71.67 22.06,-46.91 43.43,-6.84 112.57,-6.84 133.94,-46.91"/>
<text text-anchor="middle" x="78" y="-39.04" font-family="Times,serif" font-size="14.00">MATCH</text>
<text text-anchor="middle" x="78" y="-22.54" font-family="Times,serif" font-size="14.00">slot 0</text>
<text text-anchor="middle" x="18.69" y="-74.87" font-family="Times,serif" font-size="14.00">5</text>
</g>
<!-- I0003&#45;&gt;I0005 -->
<g id="edge4" class="edge">
<title>I0003&#45;&gt;I0005</title>
<path fill="none" stroke="black" d="M46.68,-107.57C50.68,-98.54 55.58,-87.48 60.3,-76.81"/>
<polygon fill="black" stroke="black" points="63.47,-78.3 64.31,-67.74 57.06,-75.47 63.47,-78.3"/>
</g>
<!-- I0004&#45;&gt;I0005 -->
<g id="edge5" class="edge">
<title>I0004&#45;&gt;I0005</title>
<path fill="none" stroke="black" d="M110.1,-107.57C105.93,-98.37 100.79,-87.05 95.86,-76.2"/>
<polygon fill="black" stroke="black" points="99.19,-75.05 91.87,-67.39 92.81,-77.94 99.19,-75.05"/>
</g>
</g>
</svg>
