<?xml version="1.0" encoding="UTF-8" standalone="no"?>
<!DOCTYPE svg PUBLIC "-//W3C//DTD SVG 1.1//EN"
 "http://www.w3.org/Graphics/SVG/1.1/DTD/svg11.dtd">
<!-- Generated by graphviz version 11.0.0 (20240428.1522)
 -->
<!-- Title: D Pages: 1 -->
<svg width="217pt" height="455pt"
 viewBox="0.00 0.00 217.28 455.34" xmlns="http://www.w3.org/2000/svg" xmlns:xlink="http://www.w3.org/1999/xlink">
<g id="graph0" class="graph" transform="scale(1 1) rotate(0) translate(4 451.34)">
<title>D</title>
<polygon fill="white" stroke="none" points="-4,4 -4,-451.34 213.28,-451.34 213.28,4 -4,4"/>
<text text-anchor="middle" x="104.64" y="-430.04" font-family="sans-serif" font-size="14.00">program for &quot;l|r&quot;</text>
<!-- I0001 -->
<g id="node1" class="node">
<title>I0001</title>
<polygon fill="#ffffcc" stroke="black" points="209.28,-381.42 108.76,-407.09 8.25,-381.42 46.64,-339.89 170.88,-339.89 209.28,-381.42"/>
<text text-anchor="middle" x="108.76" y="-373.89" font-family="monospace" font-size="14.00">MATCH</text>
<text text-anchor="middle" x="108.76" y="-356.64" font-family="monospace" font-size="14.00"> set 1 begin</text>
<text text-anchor="middle" x="4.12" y="-411.04" font-family="monospace" font-size="14.00">1</text>
</g>
<!-- I0002 -->
<g id="node2" class="node">
<title>I0002</title>
<ellipse fill="#b3cde3" stroke="black" cx="108.76" cy="-278.79" rx="40.16" ry="18"/>
<text text-anchor="middle" x="108.76" y="-274.12" font-family="monospace" font-size="14.00">SPLIT</text>
<text text-anchor="middle" x="64.48" y="-300.74" font-family="monospace" font-size="14.00">2</text>
</g>
<!-- I0001&#45;&gt;I0002 -->
<g id="edge1" class="edge">
<title>I0001&#45;&gt;I0002</title>
<path fill="none" stroke="black" d="M108.76,-339.75C108.76,-329.71 108.76,-318.49 108.76,-308.49"/>
<polygon fill="black" stroke="black" points="112.26,-308.58 108.76,-298.58 105.26,-308.58 112.26,-308.58"/>
</g>
<!-- I0003 -->
<g id="node3" class="node">
<title>I0003</title>
<polygon fill="#fbb4ae" stroke="black" points="100.39,-224.79 43.14,-224.79 43.14,-182.29 100.39,-182.29 100.39,-224.79"/>
<text text-anchor="middle" x="71.76" y="-207.49" font-family="monospace" font-size="14.00">RANGE</text>
<text text-anchor="middle" x="71.76" y="-190.24" font-family="monospace" font-size="14.00">l&#45;l</text>
<text text-anchor="middle" x="39.01" y="-228.74" font-family="monospace" font-size="14.00">3</text>
</g>
<!-- I0002&#45;&gt;I0003 -->
<g id="edge2" class="edge">
<title>I0002&#45;&gt;I0003</title>
<path fill="none" stroke="black" d="M100.18,-260.8C96.36,-253.23 91.73,-244.07 87.33,-235.36"/>
<polygon fill="black" stroke="black" points="90.46,-233.79 82.83,-226.44 84.21,-236.95 90.46,-233.79"/>
</g>
<!-- I0004 -->
<g id="node4" class="node">
<title>I0004</title>
<polygon fill="#fbb4ae" stroke="black" points="175.39,-224.79 118.14,-224.79 118.14,-182.29 175.39,-182.29 175.39,-224.79"/>
<text text-anchor="middle" x="146.76" y="-207.49" font-family="monospace" font-size="14.00">RANGE</text>
<text text-anchor="middle" x="146.76" y="-190.24" font-family="monospace" font-size="14.00">r&#45;r</text>
<text text-anchor="middle" x="114.01" y="-228.74" font-family="monospace" font-size="14.00">4</text>
</g>
<!-- I0002&#45;&gt;I0004 -->
<g id="edge3" class="edge">
<title>I0002&#45;&gt;I0004</title>
<path fill="none" stroke="black" stroke-dasharray="5,2" d="M117.58,-260.8C121.55,-253.15 126.36,-243.87 130.93,-235.07"/>
<polygon fill="black" stroke="black" points="133.91,-236.92 135.41,-226.44 127.69,-233.7 133.91,-236.92"/>
</g>
<!-- I0005 -->
<g id="node5" class="node">
<title>I0005</title>
<polygon fill="#ffffcc" stroke="black" points="194.86,-120.63 108.76,-146.29 22.67,-120.63 55.56,-79.09 161.97,-79.09 194.86,-120.63"/>
<text text-anchor="middle" x="108.76" y="-113.1" font-family="monospace" font-size="14.00">MATCH</text>
<text text-anchor="middle" x="108.76" y="-95.85" font-family="monospace" font-size="14.00"> set 1 end</text>
<text text-anchor="middle" x="18.55" y="-150.24" font-family="monospace" font-size="14.00">5</text>
</g>
<!-- I0003&#45;&gt;I0005 -->
<g id="edge4" class="edge">
<title>I0003&#45;&gt;I0005</title>
<path fill="none" stroke="black" d="M79.98,-182.04C83.42,-173.43 87.56,-163.09 91.62,-152.96"/>
<polygon fill="black" stroke="black" points="94.75,-154.56 95.22,-143.98 88.25,-151.96 94.75,-154.56"/>
</g>
<!-- I0004&#45;&gt;I0005 -->
<g id="edge5" class="edge">
<title>I0004&#45;&gt;I0005</title>
<path fill="none" stroke="black" d="M138.33,-182.04C134.79,-173.43 130.54,-163.09 126.37,-152.96"/>
<polygon fill="black" stroke="black" points="129.72,-151.89 122.67,-143.97 123.24,-154.55 129.72,-151.89"/>
</g>
<!-- I0000 -->
<g id="node6" class="node">
<title>I0000</title>
<ellipse fill="none" stroke="black" cx="108.76" cy="-18" rx="40.16" ry="18"/>
<text text-anchor="middle" x="108.76" y="-13.32" font-family="monospace" font-size="14.00">I0000</text>
</g>
<!-- I0005&#45;&gt;I0000 -->
<g id="edge6" class="edge">
<title>I0005&#45;&gt;I0000</title>
<path fill="none" stroke="black" d="M108.76,-78.96C108.76,-68.92 108.76,-57.7 108.76,-47.7"/>
<polygon fill="black" stroke="black" points="112.26,-47.79 108.76,-37.79 105.26,-47.79 112.26,-47.79"/>
</g>
</g>
</svg>
