<?xml version="1.0" encoding="UTF-8" standalone="no"?>
<!DOCTYPE svg PUBLIC "-//W3C//DTD SVG 1.1//EN"
 "http://www.w3.org/Graphics/SVG/1.1/DTD/svg11.dtd">
<!-- Generated by graphviz version 11.0.0 (20240428.1522)
 -->
<!-- Title: D Pages: 1 -->
<svg width="149pt" height="383pt"
 viewBox="0.00 0.00 148.50 383.34" xmlns="http://www.w3.org/2000/svg" xmlns:xlink="http://www.w3.org/1999/xlink">
<g id="graph0" class="graph" transform="scale(1 1) rotate(0) translate(4 379.34)">
<title>D</title>
<polygon fill="white" stroke="none" points="-4,4 -4,-379.34 144.5,-379.34 144.5,4 -4,4"/>
<text text-anchor="middle" x="70.25" y="-358.04" font-family="sans-serif" font-size="14.00">program for &quot;l|r&quot;</text>
<!-- I0001 -->
<g id="node1" class="node">
<title>I0001</title>
<polygon fill="#ffffcc" stroke="black" points="123.91,-309.42 73.88,-335.09 23.84,-309.42 42.95,-267.89 104.8,-267.89 123.91,-309.42"/>
<text text-anchor="middle" x="73.88" y="-301.89" font-family="monospace" font-size="14.00">MATCH</text>
<text text-anchor="middle" x="73.88" y="-284.64" font-family="monospace" font-size="14.00">set 1</text>
<text text-anchor="middle" x="19.71" y="-339.04" font-family="monospace" font-size="14.00">1</text>
</g>
<!-- I0002 -->
<g id="node2" class="node">
<title>I0002</title>
<ellipse fill="#b3cde3" stroke="black" cx="73.88" cy="-206.79" rx="40.16" ry="18"/>
<text text-anchor="middle" x="73.88" y="-202.12" font-family="monospace" font-size="14.00">SPLIT</text>
<text text-anchor="middle" x="29.59" y="-228.74" font-family="monospace" font-size="14.00">2</text>
</g>
<!-- I0001&#45;&gt;I0002 -->
<g id="edge1" class="edge">
<title>I0001&#45;&gt;I0002</title>
<path fill="none" stroke="black" d="M73.88,-267.75C73.88,-257.71 73.88,-246.49 73.88,-236.49"/>
<polygon fill="black" stroke="black" points="77.38,-236.58 73.88,-226.58 70.38,-236.58 77.38,-236.58"/>
</g>
<!-- I0003 -->
<g id="node3" class="node">
<title>I0003</title>
<polygon fill="#fbb4ae" stroke="black" points="65.5,-152.79 8.25,-152.79 8.25,-110.29 65.5,-110.29 65.5,-152.79"/>
<text text-anchor="middle" x="36.88" y="-135.49" font-family="monospace" font-size="14.00">RANGE</text>
<text text-anchor="middle" x="36.88" y="-118.24" font-family="monospace" font-size="14.00">l&#45;l</text>
<text text-anchor="middle" x="4.12" y="-156.74" font-family="monospace" font-size="14.00">3</text>
</g>
<!-- I0002&#45;&gt;I0003 -->
<g id="edge2" class="edge">
<title>I0002&#45;&gt;I0003</title>
<path fill="none" stroke="black" d="M65.29,-188.8C61.47,-181.23 56.84,-172.07 52.44,-163.36"/>
<polygon fill="black" stroke="black" points="55.57,-161.79 47.94,-154.44 49.32,-164.95 55.57,-161.79"/>
</g>
<!-- I0004 -->
<g id="node4" class="node">
<title>I0004</title>
<polygon fill="#fbb4ae" stroke="black" points="140.5,-152.79 83.25,-152.79 83.25,-110.29 140.5,-110.29 140.5,-152.79"/>
<text text-anchor="middle" x="111.88" y="-135.49" font-family="monospace" font-size="14.00">RANGE</text>
<text text-anchor="middle" x="111.88" y="-118.24" font-family="monospace" font-size="14.00">r&#45;r</text>
<text text-anchor="middle" x="79.12" y="-156.74" font-family="monospace" font-size="14.00">4</text>
</g>
<!-- I0002&#45;&gt;I0004 -->
<g id="edge3" class="edge">
<title>I0002&#45;&gt;I0004</title>
<path fill="none" stroke="black" stroke-dasharray="5,2" d="M82.69,-188.8C86.66,-181.15 91.47,-171.87 96.04,-163.07"/>
<polygon fill="black" stroke="black" points="99.02,-164.92 100.52,-154.44 92.81,-161.7 99.02,-164.92"/>
</g>
<!-- I0005 -->
<g id="node5" class="node">
<title>I0005</title>
<polygon fill="#ffffcc" stroke="black" points="131.12,-48.63 73.88,-74.29 16.63,-48.63 38.49,-7.09 109.26,-7.09 131.12,-48.63"/>
<text text-anchor="middle" x="73.88" y="-41.1" font-family="monospace" font-size="14.00">MATCH</text>
<text text-anchor="middle" x="73.88" y="-23.85" font-family="monospace" font-size="14.00">slot 0</text>
<text text-anchor="middle" x="12.5" y="-78.24" font-family="monospace" font-size="14.00">5</text>
</g>
<!-- I0003&#45;&gt;I0005 -->
<g id="edge4" class="edge">
<title>I0003&#45;&gt;I0005</title>
<path fill="none" stroke="black" d="M45.09,-110.04C48.7,-101.03 53.07,-90.1 57.31,-79.52"/>
<polygon fill="black" stroke="black" points="60.44,-81.12 60.9,-70.54 53.94,-78.52 60.44,-81.12"/>
</g>
<!-- I0004&#45;&gt;I0005 -->
<g id="edge5" class="edge">
<title>I0004&#45;&gt;I0005</title>
<path fill="none" stroke="black" d="M103.44,-110.04C99.7,-100.95 95.16,-89.91 90.77,-79.24"/>
<polygon fill="black" stroke="black" points="94.09,-78.09 87.05,-70.18 87.61,-80.76 94.09,-78.09"/>
</g>
</g>
</svg>
