<?xml version="1.0" encoding="UTF-8" standalone="no"?>
<!DOCTYPE svg PUBLIC "-//W3C//DTD SVG 1.1//EN"
 "http://www.w3.org/Graphics/SVG/1.1/DTD/svg11.dtd">
<!-- Generated by graphviz version 11.0.0 (20240428.1522)
 -->
<!-- Title: D Pages: 1 -->
<svg width="198pt" height="296pt"
 viewBox="0.00 0.00 198.00 296.47" xmlns="http://www.w3.org/2000/svg" xmlns:xlink="http://www.w3.org/1999/xlink">
<g id="graph0" class="graph" transform="scale(1 1) rotate(0) translate(4 292.47)">
<title>D</title>
<polygon fill="white" stroke="none" points="-4,4 -4,-292.47 194,-292.47 194,4 -4,4"/>
<text text-anchor="middle" x="95" y="-271.17" font-family="Times,serif" font-size="14.00">ast for &quot;l|r&quot;</text>
<g id="clust1" class="cluster">
<title>cluster_0008</title>
<polygon fill="#f7f7f7" stroke="black" points="8,-8 8,-255.97 182,-255.97 182,-8 8,-8"/>
</g>
<g id="clust2" class="cluster">
<title>cluster_0003</title>
<polygon fill="#d9d9d9" stroke="black" points="16,-16 16,-161.98 174,-161.98 174,-16 16,-16"/>
</g>
<!-- A0008 -->
<g id="node1" class="node">
<title>A0008</title>
<ellipse fill="none" stroke="black" cx="95" cy="-218.97" rx="43.66" ry="28.99"/>
<text text-anchor="middle" x="95" y="-222.17" font-family="Times,serif" font-size="14.00">GROUP</text>
<text text-anchor="middle" x="95" y="-205.67" font-family="Times,serif" font-size="14.00">R</text>
</g>
<!-- A0003 -->
<g id="node2" class="node">
<title>A0003</title>
<ellipse fill="none" stroke="black" cx="95" cy="-135.98" rx="28.83" ry="18"/>
<text text-anchor="middle" x="95" y="-130.93" font-family="Times,serif" font-size="14.00">ALT</text>
</g>
<!-- A0008&#45;&gt;A0003 -->
<g id="edge3" class="edge">
<title>A0008&#45;&gt;A0003</title>
<path fill="none" stroke="black" d="M95,-189.65C95,-181.77 95,-173.22 95,-165.34"/>
<polygon fill="black" stroke="black" points="98.5,-165.59 95,-155.59 91.5,-165.59 98.5,-165.59"/>
</g>
<!-- A0001 -->
<g id="node3" class="node">
<title>A0001</title>
<ellipse fill="none" stroke="black" cx="55" cy="-52.99" rx="30.94" ry="28.99"/>
<text text-anchor="middle" x="55" y="-56.19" font-family="Times,serif" font-size="14.00">CHR</text>
<text text-anchor="middle" x="55" y="-39.69" font-family="Times,serif" font-size="14.00">l</text>
</g>
<!-- A0003&#45;&gt;A0001 -->
<g id="edge1" class="edge">
<title>A0003&#45;&gt;A0001</title>
<path fill="none" stroke="black" d="M86.91,-118.59C82.84,-110.36 77.74,-100.04 72.82,-90.07"/>
<polygon fill="black" stroke="black" points="76.04,-88.7 68.48,-81.28 69.77,-91.8 76.04,-88.7"/>
</g>
<!-- A0006 -->
<g id="node4" class="node">
<title>A0006</title>
<ellipse fill="none" stroke="black" cx="135" cy="-52.99" rx="30.94" ry="28.99"/>
<text text-anchor="middle" x="135" y="-56.19" font-family="Times,serif" font-size="14.00">CHR</text>
<text text-anchor="middle" x="135" y="-39.69" font-family="Times,serif" font-size="14.00">r</text>
</g>
<!-- A0003&#45;&gt;A0006 -->
<g id="edge2" class="edge">
<title>A0003&#45;&gt;A0006</title>
<path fill="none" stroke="black" stroke-dasharray="5,2" d="M103.09,-118.59C107.16,-110.36 112.26,-100.04 117.18,-90.07"/>
<polygon fill="black" stroke="black" points="120.23,-91.8 121.52,-81.28 113.96,-88.7 120.23,-91.8"/>
</g>
</g>
</svg>
