<?xml version="1.0" encoding="UTF-8" standalone="no"?>
<!DOCTYPE svg PUBLIC "-//W3C//DTD SVG 1.1//EN"
 "http://www.w3.org/Graphics/SVG/1.1/DTD/svg11.dtd">
<!-- Generated by graphviz version 11.0.0 (20240428.1522)
 -->
<!-- Title: D Pages: 1 -->
<svg width="131pt" height="311pt"
 viewBox="0.00 0.00 130.75 311.34" xmlns="http://www.w3.org/2000/svg" xmlns:xlink="http://www.w3.org/1999/xlink">
<g id="graph0" class="graph" transform="scale(1 1) rotate(0) translate(4 307.34)">
<title>D</title>
<polygon fill="white" stroke="none" points="-4,4 -4,-307.34 126.75,-307.34 126.75,4 -4,4"/>
<text text-anchor="middle" x="61.37" y="-286.04" font-family="sans-serif" font-size="14.00">program for &quot;C&quot;</text>
<!-- I0001 -->
<g id="node1" class="node">
<title>I0001</title>
<polygon fill="#ffffcc" stroke="black" points="115.54,-237.42 65.5,-263.09 15.46,-237.42 34.57,-195.89 96.42,-195.89 115.54,-237.42"/>
<text text-anchor="middle" x="65.5" y="-229.89" font-family="monospace" font-size="14.00">MATCH</text>
<text text-anchor="middle" x="65.5" y="-212.64" font-family="monospace" font-size="14.00">set 1</text>
<text text-anchor="middle" x="11.34" y="-267.04" font-family="monospace" font-size="14.00">1</text>
</g>
<!-- I0002 -->
<g id="node2" class="node">
<title>I0002</title>
<polygon fill="#fbb4ae" stroke="black" points="110.62,-152.79 20.37,-152.79 20.37,-110.29 110.62,-110.29 110.62,-152.79"/>
<text text-anchor="middle" x="65.5" y="-135.49" font-family="monospace" font-size="14.00">RANGE</text>
<text text-anchor="middle" x="65.5" y="-118.24" font-family="monospace" font-size="14.00">\x00&#45;\xFF</text>
<text text-anchor="middle" x="16.25" y="-156.74" font-family="monospace" font-size="14.00">2</text>
</g>
<!-- I0001&#45;&gt;I0002 -->
<g id="edge1" class="edge">
<title>I0001&#45;&gt;I0002</title>
<path fill="none" stroke="black" d="M65.5,-195.45C65.5,-185.58 65.5,-174.54 65.5,-164.49"/>
<polygon fill="black" stroke="black" points="69,-164.79 65.5,-154.79 62,-164.79 69,-164.79"/>
</g>
<!-- I0003 -->
<g id="node3" class="node">
<title>I0003</title>
<polygon fill="#ffffcc" stroke="black" points="122.75,-48.63 65.5,-74.29 8.25,-48.63 30.12,-7.09 100.88,-7.09 122.75,-48.63"/>
<text text-anchor="middle" x="65.5" y="-41.1" font-family="monospace" font-size="14.00">MATCH</text>
<text text-anchor="middle" x="65.5" y="-23.85" font-family="monospace" font-size="14.00">slot 0</text>
<text text-anchor="middle" x="4.12" y="-78.24" font-family="monospace" font-size="14.00">3</text>
</g>
<!-- I0002&#45;&gt;I0003 -->
<g id="edge2" class="edge">
<title>I0002&#45;&gt;I0003</title>
<path fill="none" stroke="black" d="M65.5,-110.04C65.5,-102.87 65.5,-94.5 65.5,-86.05"/>
<polygon fill="black" stroke="black" points="69,-86.1 65.5,-76.1 62,-86.1 69,-86.1"/>
</g>
</g>
</svg>
