<?xml version="1.0" encoding="UTF-8" standalone="no"?>
<!DOCTYPE svg PUBLIC "-//W3C//DTD SVG 1.1//EN"
 "http://www.w3.org/Graphics/SVG/1.1/DTD/svg11.dtd">
<!-- Generated by graphviz version 11.0.0 (20240428.1522)
 -->
<!-- Title: D Pages: 1 -->
<svg width="217pt" height="383pt"
 viewBox="0.00 0.00 217.28 383.34" xmlns="http://www.w3.org/2000/svg" xmlns:xlink="http://www.w3.org/1999/xlink">
<g id="graph0" class="graph" transform="scale(1 1) rotate(0) translate(4 379.34)">
<title>D</title>
<polygon fill="white" stroke="none" points="-4,4 -4,-379.34 213.28,-379.34 213.28,4 -4,4"/>
<text text-anchor="middle" x="104.64" y="-358.04" font-family="sans-serif" font-size="14.00">program for &quot;C&quot;</text>
<!-- I0001 -->
<g id="node1" class="node">
<title>I0001</title>
<polygon fill="#ffffcc" stroke="black" points="209.28,-309.42 108.76,-335.09 8.25,-309.42 46.64,-267.89 170.88,-267.89 209.28,-309.42"/>
<text text-anchor="middle" x="108.76" y="-301.89" font-family="monospace" font-size="14.00">MATCH</text>
<text text-anchor="middle" x="108.76" y="-284.64" font-family="monospace" font-size="14.00"> set 1 begin</text>
<text text-anchor="middle" x="4.12" y="-339.04" font-family="monospace" font-size="14.00">1</text>
</g>
<!-- I0002 -->
<g id="node2" class="node">
<title>I0002</title>
<polygon fill="#fbb4ae" stroke="black" points="153.89,-224.79 63.64,-224.79 63.64,-182.29 153.89,-182.29 153.89,-224.79"/>
<text text-anchor="middle" x="108.76" y="-207.49" font-family="monospace" font-size="14.00">RANGE</text>
<text text-anchor="middle" x="108.76" y="-190.24" font-family="monospace" font-size="14.00">\x00&#45;\xFF</text>
<text text-anchor="middle" x="59.51" y="-228.74" font-family="monospace" font-size="14.00">2</text>
</g>
<!-- I0001&#45;&gt;I0002 -->
<g id="edge1" class="edge">
<title>I0001&#45;&gt;I0002</title>
<path fill="none" stroke="black" d="M108.76,-267.45C108.76,-257.58 108.76,-246.54 108.76,-236.49"/>
<polygon fill="black" stroke="black" points="112.26,-236.79 108.76,-226.79 105.26,-236.79 112.26,-236.79"/>
</g>
<!-- I0003 -->
<g id="node3" class="node">
<title>I0003</title>
<polygon fill="#ffffcc" stroke="black" points="194.86,-120.63 108.76,-146.29 22.67,-120.63 55.56,-79.09 161.97,-79.09 194.86,-120.63"/>
<text text-anchor="middle" x="108.76" y="-113.1" font-family="monospace" font-size="14.00">MATCH</text>
<text text-anchor="middle" x="108.76" y="-95.85" font-family="monospace" font-size="14.00"> set 1 end</text>
<text text-anchor="middle" x="18.55" y="-150.24" font-family="monospace" font-size="14.00">3</text>
</g>
<!-- I0002&#45;&gt;I0003 -->
<g id="edge2" class="edge">
<title>I0002&#45;&gt;I0003</title>
<path fill="none" stroke="black" d="M108.76,-182.04C108.76,-174.87 108.76,-166.5 108.76,-158.05"/>
<polygon fill="black" stroke="black" points="112.26,-158.1 108.76,-148.1 105.26,-158.1 112.26,-158.1"/>
</g>
<!-- I0000 -->
<g id="node4" class="node">
<title>I0000</title>
<ellipse fill="none" stroke="black" cx="108.76" cy="-18" rx="40.16" ry="18"/>
<text text-anchor="middle" x="108.76" y="-13.32" font-family="monospace" font-size="14.00">I0000</text>
</g>
<!-- I0003&#45;&gt;I0000 -->
<g id="edge3" class="edge">
<title>I0003&#45;&gt;I0000</title>
<path fill="none" stroke="black" d="M108.76,-78.96C108.76,-68.92 108.76,-57.7 108.76,-47.7"/>
<polygon fill="black" stroke="black" points="112.26,-47.79 108.76,-37.79 105.26,-47.79 112.26,-47.79"/>
</g>
</g>
</svg>
