<?xml version="1.0" encoding="UTF-8" standalone="no"?>
<!DOCTYPE svg PUBLIC "-//W3C//DTD SVG 1.1//EN"
 "http://www.w3.org/Graphics/SVG/1.1/DTD/svg11.dtd">
<!-- Generated by graphviz version 11.0.0 (20240428.1522)
 -->
<!-- Title: D Pages: 1 -->
<svg width="228pt" height="403pt"
 viewBox="0.00 0.00 228.00 403.31" xmlns="http://www.w3.org/2000/svg" xmlns:xlink="http://www.w3.org/1999/xlink">
<g id="graph0" class="graph" transform="scale(1 1) rotate(0) translate(4 399.31)">
<title>D</title>
<polygon fill="white" stroke="none" points="-4,4 -4,-399.31 224,-399.31 224,4 -4,4"/>
<text text-anchor="middle" x="110" y="-378.01" font-family="sans-serif" font-size="14.00">ast for &quot;(?i)a&quot;</text>
<g id="clust1" class="cluster">
<title>cluster_000A</title>
<polygon fill="#f7f7f7" stroke="black" points="8,-8 8,-364.31 212,-364.31 212,-8 8,-8"/>
</g>
<g id="clust2" class="cluster">
<title>cluster_0001</title>
<polygon fill="#d9d9d9" stroke="black" points="16,-16 16,-268.21 204,-268.21 204,-16 16,-16"/>
</g>
<g id="clust4" class="cluster">
<title>cluster_0004</title>
<polygon fill="#bdbdbd" stroke="black" points="88,-24 88,-196.21 196,-196.21 196,-24 88,-24"/>
</g>
<!-- A000A -->
<g id="node1" class="node">
<title>A000A</title>
<ellipse fill="none" stroke="black" cx="99" cy="-326.26" rx="40.48" ry="30.05"/>
<text text-anchor="middle" x="99" y="-330.21" font-family="monospace" font-size="14.00">GROUP</text>
<text text-anchor="middle" x="99" y="-312.96" font-family="monospace" font-size="14.00">R</text>
</g>
<!-- A0001 -->
<g id="node2" class="node">
<title>A0001</title>
<ellipse fill="none" stroke="black" cx="99" cy="-242.21" rx="28.59" ry="18"/>
<text text-anchor="middle" x="99" y="-237.53" font-family="monospace" font-size="14.00">CAT</text>
</g>
<!-- A000A&#45;&gt;A0001 -->
<g id="edge4" class="edge">
<title>A000A&#45;&gt;A0001</title>
<path fill="none" stroke="black" d="M99,-296.1C99,-288.15 99,-279.54 99,-271.63"/>
<polygon fill="black" stroke="black" points="102.5,-271.84 99,-261.84 95.5,-271.84 102.5,-271.84"/>
</g>
<!-- A0000 -->
<g id="node3" class="node">
<title>A0000</title>
<ellipse fill="none" stroke="black" cx="51" cy="-158.16" rx="27" ry="18"/>
<text text-anchor="middle" x="51" y="-153.48" font-family="monospace" font-size="14.00">ɛ</text>
</g>
<!-- A0001&#45;&gt;A0000 -->
<g id="edge1" class="edge">
<title>A0001&#45;&gt;A0000</title>
<path fill="none" stroke="black" d="M89.52,-225C82.88,-213.65 73.86,-198.24 66.22,-185.18"/>
<polygon fill="black" stroke="black" points="69.3,-183.5 61.23,-176.64 63.26,-187.04 69.3,-183.5"/>
</g>
<!-- A0004 -->
<g id="node4" class="node">
<title>A0004</title>
<ellipse fill="none" stroke="black" cx="142" cy="-158.16" rx="46.32" ry="30.05"/>
<text text-anchor="middle" x="142" y="-162.11" font-family="monospace" font-size="14.00">IGROUP</text>
<text text-anchor="middle" x="142" y="-144.86" font-family="monospace" font-size="14.00">i:</text>
</g>
<!-- A0001&#45;&gt;A0004 -->
<g id="edge3" class="edge">
<title>A0001&#45;&gt;A0004</title>
<path fill="none" stroke="black" stroke-dasharray="5,2" d="M107.7,-224.6C111.89,-216.61 117.1,-206.67 122.18,-196.97"/>
<polygon fill="black" stroke="black" points="125.14,-198.87 126.68,-188.39 118.94,-195.62 125.14,-198.87"/>
</g>
<!-- A0008 -->
<g id="node5" class="node">
<title>A0008</title>
<ellipse fill="none" stroke="black" cx="142" cy="-62.05" rx="28.81" ry="30.05"/>
<text text-anchor="middle" x="142" y="-66" font-family="monospace" font-size="14.00">CHR</text>
<text text-anchor="middle" x="142" y="-48.75" font-family="monospace" font-size="14.00">a</text>
</g>
<!-- A0004&#45;&gt;A0008 -->
<g id="edge2" class="edge">
<title>A0004&#45;&gt;A0008</title>
<path fill="none" stroke="black" d="M142,-127.64C142,-120.11 142,-111.87 142,-103.88"/>
<polygon fill="black" stroke="black" points="145.5,-103.98 142,-93.98 138.5,-103.98 145.5,-103.98"/>
</g>
</g>
</svg>
