<?xml version="1.0" encoding="UTF-8" standalone="no"?>
<!DOCTYPE svg PUBLIC "-//W3C//DTD SVG 1.1//EN"
 "http://www.w3.org/Graphics/SVG/1.1/DTD/svg11.dtd">
<!-- Generated by graphviz version 11.0.0 (20240428.1522)
 -->
<!-- Title: D Pages: 1 -->
<svg width="228pt" height="525pt"
 viewBox="0.00 0.00 227.75 525.42" xmlns="http://www.w3.org/2000/svg" xmlns:xlink="http://www.w3.org/1999/xlink">
<g id="graph0" class="graph" transform="scale(1 1) rotate(0) translate(4 521.42)">
<title>D</title>
<polygon fill="white" stroke="none" points="-4,4 -4,-521.42 223.75,-521.42 223.75,4 -4,4"/>
<text text-anchor="middle" x="109.87" y="-500.12" font-family="sans-serif" font-size="14.00">program for &quot;(a*?)&quot;</text>
<!-- I0001 -->
<g id="node1" class="node">
<title>I0001</title>
<polygon fill="#ffffcc" stroke="black" points="219.75,-451.5 155.29,-477.17 90.83,-451.5 115.45,-409.97 195.13,-409.97 219.75,-451.5"/>
<text text-anchor="middle" x="155.29" y="-443.97" font-family="monospace" font-size="14.00">MATCH</text>
<text text-anchor="middle" x="155.29" y="-426.72" font-family="monospace" font-size="14.00">0 begin</text>
<text text-anchor="middle" x="86.7" y="-481.12" font-family="monospace" font-size="14.00">1</text>
</g>
<!-- I0002 -->
<g id="node2" class="node">
<title>I0002</title>
<polygon fill="#ffffcc" stroke="black" points="219.75,-341.21 155.29,-366.88 90.83,-341.21 115.45,-299.68 195.13,-299.68 219.75,-341.21"/>
<text text-anchor="middle" x="155.29" y="-333.68" font-family="monospace" font-size="14.00">MATCH</text>
<text text-anchor="middle" x="155.29" y="-316.43" font-family="monospace" font-size="14.00">1 begin</text>
<text text-anchor="middle" x="86.7" y="-370.83" font-family="monospace" font-size="14.00">2</text>
</g>
<!-- I0001&#45;&gt;I0002 -->
<g id="edge1" class="edge">
<title>I0001&#45;&gt;I0002</title>
<path fill="none" stroke="black" d="M155.29,-409.72C155.29,-400.06 155.29,-389.05 155.29,-378.39"/>
<polygon fill="black" stroke="black" points="158.79,-378.54 155.29,-368.54 151.79,-378.54 158.79,-378.54"/>
</g>
<!-- I0003 -->
<g id="node3" class="node">
<title>I0003</title>
<ellipse fill="#b3cde3" stroke="black" cx="155.29" cy="-238.59" rx="40.16" ry="18"/>
<text text-anchor="middle" x="155.29" y="-233.91" font-family="monospace" font-size="14.00">SPLIT</text>
<text text-anchor="middle" x="111" y="-260.54" font-family="monospace" font-size="14.00">3</text>
</g>
<!-- I0002&#45;&gt;I0003 -->
<g id="edge2" class="edge">
<title>I0002&#45;&gt;I0003</title>
<path fill="none" stroke="black" d="M155.29,-299.54C155.29,-289.51 155.29,-278.28 155.29,-268.29"/>
<polygon fill="black" stroke="black" points="158.79,-268.38 155.29,-258.38 151.79,-268.38 158.79,-268.38"/>
</g>
<!-- I0005 -->
<g id="node4" class="node">
<title>I0005</title>
<polygon fill="#ffffcc" stroke="black" points="108.33,-158.92 58.29,-184.59 8.25,-158.92 27.36,-117.39 89.21,-117.39 108.33,-158.92"/>
<text text-anchor="middle" x="58.29" y="-151.39" font-family="monospace" font-size="14.00">MATCH</text>
<text text-anchor="middle" x="58.29" y="-134.14" font-family="monospace" font-size="14.00">1 end</text>
<text text-anchor="middle" x="4.12" y="-188.54" font-family="monospace" font-size="14.00">5</text>
</g>
<!-- I0003&#45;&gt;I0005 -->
<g id="edge3" class="edge">
<title>I0003&#45;&gt;I0005</title>
<path fill="none" stroke="black" d="M138.39,-222.06C125.66,-210.36 107.78,-193.93 92.14,-179.55"/>
<polygon fill="black" stroke="black" points="94.58,-177.04 84.85,-172.85 89.84,-182.19 94.58,-177.04"/>
</g>
<!-- I0004 -->
<g id="node5" class="node">
<title>I0004</title>
<polygon fill="#fbb4ae" stroke="black" points="183.91,-168.69 126.66,-168.69 126.66,-126.19 183.91,-126.19 183.91,-168.69"/>
<text text-anchor="middle" x="155.29" y="-151.39" font-family="monospace" font-size="14.00">RANGE</text>
<text text-anchor="middle" x="155.29" y="-134.14" font-family="monospace" font-size="14.00">a&#45;a</text>
<text text-anchor="middle" x="122.54" y="-172.64" font-family="monospace" font-size="14.00">4</text>
</g>
<!-- I0003&#45;&gt;I0004 -->
<g id="edge4" class="edge">
<title>I0003&#45;&gt;I0004</title>
<path fill="none" stroke="black" stroke-dasharray="5,2" d="M149.83,-220.4C148.59,-209.05 148.24,-193.83 148.79,-180.32"/>
<polygon fill="black" stroke="black" points="152.27,-180.73 149.4,-170.53 145.28,-180.29 152.27,-180.73"/>
</g>
<!-- I0006 -->
<g id="node6" class="node">
<title>I0006</title>
<polygon fill="#ffffcc" stroke="black" points="108.33,-48.63 58.29,-74.29 8.25,-48.63 27.36,-7.09 89.21,-7.09 108.33,-48.63"/>
<text text-anchor="middle" x="58.29" y="-41.1" font-family="monospace" font-size="14.00">MATCH</text>
<text text-anchor="middle" x="58.29" y="-23.85" font-family="monospace" font-size="14.00">0 end</text>
<text text-anchor="middle" x="4.12" y="-78.24" font-family="monospace" font-size="14.00">6</text>
</g>
<!-- I0005&#45;&gt;I0006 -->
<g id="edge6" class="edge">
<title>I0005&#45;&gt;I0006</title>
<path fill="none" stroke="black" d="M58.29,-117.13C58.29,-107.57 58.29,-96.68 58.29,-86.11"/>
<polygon fill="black" stroke="black" points="61.79,-86.35 58.29,-76.35 54.79,-86.35 61.79,-86.35"/>
</g>
<!-- I0004&#45;&gt;I0003 -->
<g id="edge5" class="edge">
<title>I0004&#45;&gt;I0003</title>
<path fill="none" stroke="black" d="M161.08,-169.02C162.14,-180.94 162.32,-196.12 161.63,-209.17"/>
<polygon fill="black" stroke="black" points="158.16,-208.64 160.86,-218.89 165.14,-209.19 158.16,-208.64"/>
</g>
</g>
</svg>
