<?xml version="1.0" encoding="UTF-8" standalone="no"?>
<!DOCTYPE svg PUBLIC "-//W3C//DTD SVG 1.1//EN"
 "http://www.w3.org/Graphics/SVG/1.1/DTD/svg11.dtd">
<!-- Generated by graphviz version 11.0.0 (20240428.1522)
 -->
<!-- Title: D Pages: 1 -->
<svg width="145pt" height="532pt"
 viewBox="0.00 0.00 145.17 531.92" xmlns="http://www.w3.org/2000/svg" xmlns:xlink="http://www.w3.org/1999/xlink">
<g id="graph0" class="graph" transform="scale(1 1) rotate(0) translate(4 527.92)">
<title>D</title>
<polygon fill="white" stroke="none" points="-4,4 -4,-527.92 141.17,-527.92 141.17,4 -4,4"/>
<text text-anchor="middle" x="68.58" y="-506.62" font-family="sans-serif" font-size="14.00">program for &quot;(a)&quot;</text>
<!-- I0001 -->
<g id="node1" class="node">
<title>I0001</title>
<polygon fill="#ffffcc" stroke="black" points="137.17,-458 72.71,-483.67 8.25,-458 32.87,-416.47 112.55,-416.47 137.17,-458"/>
<text text-anchor="middle" x="72.71" y="-450.47" font-family="monospace" font-size="14.00">MATCH</text>
<text text-anchor="middle" x="72.71" y="-433.22" font-family="monospace" font-size="14.00">0 begin</text>
<text text-anchor="middle" x="4.12" y="-487.62" font-family="monospace" font-size="14.00">1</text>
</g>
<!-- I0002 -->
<g id="node2" class="node">
<title>I0002</title>
<polygon fill="#ffffcc" stroke="black" points="137.17,-347.71 72.71,-373.38 8.25,-347.71 32.87,-306.18 112.55,-306.18 137.17,-347.71"/>
<text text-anchor="middle" x="72.71" y="-340.18" font-family="monospace" font-size="14.00">MATCH</text>
<text text-anchor="middle" x="72.71" y="-322.93" font-family="monospace" font-size="14.00">1 begin</text>
<text text-anchor="middle" x="4.12" y="-377.33" font-family="monospace" font-size="14.00">2</text>
</g>
<!-- I0001&#45;&gt;I0002 -->
<g id="edge1" class="edge">
<title>I0001&#45;&gt;I0002</title>
<path fill="none" stroke="black" d="M72.71,-416.22C72.71,-406.56 72.71,-395.55 72.71,-384.89"/>
<polygon fill="black" stroke="black" points="76.21,-385.04 72.71,-375.04 69.21,-385.04 76.21,-385.04"/>
</g>
<!-- I0003 -->
<g id="node3" class="node">
<title>I0003</title>
<polygon fill="#fbb4ae" stroke="black" points="101.33,-263.09 44.08,-263.09 44.08,-220.59 101.33,-220.59 101.33,-263.09"/>
<text text-anchor="middle" x="72.71" y="-245.79" font-family="monospace" font-size="14.00">RANGE</text>
<text text-anchor="middle" x="72.71" y="-228.54" font-family="monospace" font-size="14.00">a&#45;a</text>
<text text-anchor="middle" x="39.96" y="-267.04" font-family="monospace" font-size="14.00">3</text>
</g>
<!-- I0002&#45;&gt;I0003 -->
<g id="edge2" class="edge">
<title>I0002&#45;&gt;I0003</title>
<path fill="none" stroke="black" d="M72.71,-305.74C72.71,-295.87 72.71,-284.83 72.71,-274.78"/>
<polygon fill="black" stroke="black" points="76.21,-275.09 72.71,-265.09 69.21,-275.09 76.21,-275.09"/>
</g>
<!-- I0004 -->
<g id="node4" class="node">
<title>I0004</title>
<polygon fill="#ffffcc" stroke="black" points="122.75,-158.92 72.71,-184.59 22.67,-158.92 41.78,-117.39 103.64,-117.39 122.75,-158.92"/>
<text text-anchor="middle" x="72.71" y="-151.39" font-family="monospace" font-size="14.00">MATCH</text>
<text text-anchor="middle" x="72.71" y="-134.14" font-family="monospace" font-size="14.00">1 end</text>
<text text-anchor="middle" x="18.55" y="-188.54" font-family="monospace" font-size="14.00">4</text>
</g>
<!-- I0003&#45;&gt;I0004 -->
<g id="edge3" class="edge">
<title>I0003&#45;&gt;I0004</title>
<path fill="none" stroke="black" d="M72.71,-220.33C72.71,-213.17 72.71,-204.79 72.71,-196.34"/>
<polygon fill="black" stroke="black" points="76.21,-196.4 72.71,-186.4 69.21,-196.4 76.21,-196.4"/>
</g>
<!-- I0005 -->
<g id="node5" class="node">
<title>I0005</title>
<polygon fill="#ffffcc" stroke="black" points="122.75,-48.63 72.71,-74.29 22.67,-48.63 41.78,-7.09 103.64,-7.09 122.75,-48.63"/>
<text text-anchor="middle" x="72.71" y="-41.1" font-family="monospace" font-size="14.00">MATCH</text>
<text text-anchor="middle" x="72.71" y="-23.85" font-family="monospace" font-size="14.00">0 end</text>
<text text-anchor="middle" x="18.55" y="-78.24" font-family="monospace" font-size="14.00">5</text>
</g>
<!-- I0004&#45;&gt;I0005 -->
<g id="edge4" class="edge">
<title>I0004&#45;&gt;I0005</title>
<path fill="none" stroke="black" d="M72.71,-117.13C72.71,-107.57 72.71,-96.68 72.71,-86.11"/>
<polygon fill="black" stroke="black" points="76.21,-86.35 72.71,-76.35 69.21,-86.35 76.21,-86.35"/>
</g>
</g>
</svg>
