<?xml version="1.0" encoding="UTF-8" standalone="no"?>
<!DOCTYPE svg PUBLIC "-//W3C//DTD SVG 1.1//EN"
 "http://www.w3.org/Graphics/SVG/1.1/DTD/svg11.dtd">
<!-- Generated by graphviz version 11.0.0 (20240428.1522)
 -->
<!-- Title: D Pages: 1 -->
<svg width="242pt" height="483pt"
 viewBox="0.00 0.00 242.00 483.31" xmlns="http://www.w3.org/2000/svg" xmlns:xlink="http://www.w3.org/1999/xlink">
<g id="graph0" class="graph" transform="scale(1 1) rotate(0) translate(4 479.31)">
<title>D</title>
<polygon fill="white" stroke="none" points="-4,4 -4,-479.31 238,-479.31 238,4 -4,4"/>
<text text-anchor="middle" x="117" y="-458.01" font-family="sans-serif" font-size="14.00">ast for &quot;(a*?)&quot;</text>
<g id="clust1" class="cluster">
<title>cluster_000E</title>
<polygon fill="#f7f7f7" stroke="black" points="8,-8 8,-444.31 226,-444.31 226,-8 8,-8"/>
</g>
<g id="clust2" class="cluster">
<title>cluster_000B</title>
<polygon fill="#d9d9d9" stroke="black" points="16,-16 16,-348.21 218,-348.21 218,-16 16,-16"/>
</g>
<g id="clust4" class="cluster">
<title>cluster_0001</title>
<polygon fill="#bdbdbd" stroke="black" points="86,-24 86,-276.21 210,-276.21 210,-24 86,-24"/>
</g>
<g id="clust5" class="cluster">
<title>cluster_0007</title>
<polygon fill="#969696" stroke="black" points="94,-32 94,-204.21 202,-204.21 202,-32 94,-32"/>
</g>
<!-- A000E -->
<g id="node1" class="node">
<title>A000E</title>
<ellipse fill="none" stroke="black" cx="96" cy="-406.26" rx="40.48" ry="30.05"/>
<text text-anchor="middle" x="96" y="-410.21" font-family="monospace" font-size="14.00">GROUP</text>
<text text-anchor="middle" x="96" y="-392.96" font-family="monospace" font-size="14.00">R</text>
</g>
<!-- A000B -->
<g id="node2" class="node">
<title>A000B</title>
<ellipse fill="none" stroke="black" cx="96" cy="-322.21" rx="28.59" ry="18"/>
<text text-anchor="middle" x="96" y="-317.53" font-family="monospace" font-size="14.00">CAT</text>
</g>
<!-- A000E&#45;&gt;A000B -->
<g id="edge5" class="edge">
<title>A000E&#45;&gt;A000B</title>
<path fill="none" stroke="black" d="M96,-376.1C96,-368.15 96,-359.54 96,-351.63"/>
<polygon fill="black" stroke="black" points="99.5,-351.84 96,-341.84 92.5,-351.84 99.5,-351.84"/>
</g>
<!-- A0000 -->
<g id="node3" class="node">
<title>A0000</title>
<ellipse fill="none" stroke="black" cx="51" cy="-250.21" rx="27" ry="18"/>
<text text-anchor="middle" x="51" y="-245.53" font-family="monospace" font-size="14.00">ɛ</text>
</g>
<!-- A000B&#45;&gt;A0000 -->
<g id="edge1" class="edge">
<title>A000B&#45;&gt;A0000</title>
<path fill="none" stroke="black" d="M85.56,-304.97C80.09,-296.46 73.27,-285.84 67.13,-276.3"/>
<polygon fill="black" stroke="black" points="70.24,-274.67 61.89,-268.15 64.35,-278.45 70.24,-274.67"/>
</g>
<!-- A0001 -->
<g id="node4" class="node">
<title>A0001</title>
<ellipse fill="none" stroke="black" cx="142" cy="-250.21" rx="40.16" ry="18"/>
<text text-anchor="middle" x="142" y="-245.53" font-family="monospace" font-size="14.00">GROUP</text>
</g>
<!-- A000B&#45;&gt;A0001 -->
<g id="edge4" class="edge">
<title>A000B&#45;&gt;A0001</title>
<path fill="none" stroke="black" stroke-dasharray="5,2" d="M106.44,-305.32C111.87,-297.06 118.65,-286.75 124.82,-277.35"/>
<polygon fill="black" stroke="black" points="127.56,-279.55 130.13,-269.27 121.71,-275.71 127.56,-279.55"/>
</g>
<!-- A0007 -->
<g id="node5" class="node">
<title>A0007</title>
<ellipse fill="none" stroke="black" cx="148" cy="-166.16" rx="46.32" ry="30.05"/>
<text text-anchor="middle" x="148" y="-170.11" font-family="monospace" font-size="14.00">UQUANT</text>
<text text-anchor="middle" x="148" y="-152.86" font-family="monospace" font-size="14.00">0&#45;∞</text>
</g>
<!-- A0001&#45;&gt;A0007 -->
<g id="edge3" class="edge">
<title>A0001&#45;&gt;A0007</title>
<path fill="none" stroke="black" d="M143.27,-231.81C143.79,-224.76 144.41,-216.29 145.02,-207.85"/>
<polygon fill="black" stroke="black" points="148.51,-208.22 145.75,-197.99 141.53,-207.71 148.51,-208.22"/>
</g>
<!-- A0005 -->
<g id="node6" class="node">
<title>A0005</title>
<ellipse fill="none" stroke="black" cx="148" cy="-70.05" rx="28.81" ry="30.05"/>
<text text-anchor="middle" x="148" y="-74" font-family="monospace" font-size="14.00">CHR</text>
<text text-anchor="middle" x="148" y="-56.75" font-family="monospace" font-size="14.00">a</text>
</g>
<!-- A0007&#45;&gt;A0005 -->
<g id="edge2" class="edge">
<title>A0007&#45;&gt;A0005</title>
<path fill="none" stroke="black" d="M148,-135.64C148,-128.11 148,-119.87 148,-111.88"/>
<polygon fill="black" stroke="black" points="151.5,-111.98 148,-101.98 144.5,-111.98 151.5,-111.98"/>
</g>
</g>
</svg>
