<?xml version="1.0" encoding="UTF-8" standalone="no"?>
<!DOCTYPE svg PUBLIC "-//W3C//DTD SVG 1.1//EN"
 "http://www.w3.org/Graphics/SVG/1.1/DTD/svg11.dtd">
<!-- Generated by graphviz version 11.0.0 (20240428.1522)
 -->
<!-- Title: D Pages: 1 -->
<svg width="242pt" height="507pt"
 viewBox="0.00 0.00 242.00 507.42" xmlns="http://www.w3.org/2000/svg" xmlns:xlink="http://www.w3.org/1999/xlink">
<g id="graph0" class="graph" transform="scale(1 1) rotate(0) translate(4 503.42)">
<title>D</title>
<polygon fill="white" stroke="none" points="-4,4 -4,-503.42 238,-503.42 238,4 -4,4"/>
<text text-anchor="middle" x="117" y="-482.12" font-family="sans-serif" font-size="14.00">ast for &quot;(a*?)&quot;</text>
<g id="clust1" class="cluster">
<title>cluster_000F</title>
<polygon fill="#f7f7f7" stroke="black" points="8,-8 8,-468.42 226,-468.42 226,-8 8,-8"/>
</g>
<g id="clust2" class="cluster">
<title>cluster_000C</title>
<polygon fill="#d9d9d9" stroke="black" points="16,-16 16,-372.31 218,-372.31 218,-16 16,-16"/>
</g>
<g id="clust4" class="cluster">
<title>cluster_0001</title>
<polygon fill="#bdbdbd" stroke="black" points="86,-24 86,-300.31 210,-300.31 210,-24 86,-24"/>
</g>
<g id="clust5" class="cluster">
<title>cluster_0008</title>
<polygon fill="#969696" stroke="black" points="94,-32 94,-204.21 202,-204.21 202,-32 94,-32"/>
</g>
<!-- A000F -->
<g id="node1" class="node">
<title>A000F</title>
<ellipse fill="none" stroke="black" cx="96" cy="-430.36" rx="40.48" ry="30.05"/>
<text text-anchor="middle" x="96" y="-434.31" font-family="monospace" font-size="14.00">GROUP</text>
<text text-anchor="middle" x="96" y="-417.06" font-family="monospace" font-size="14.00">R/0</text>
</g>
<!-- A000C -->
<g id="node2" class="node">
<title>A000C</title>
<ellipse fill="none" stroke="black" cx="96" cy="-346.31" rx="28.59" ry="18"/>
<text text-anchor="middle" x="96" y="-341.64" font-family="monospace" font-size="14.00">CAT</text>
</g>
<!-- A000F&#45;&gt;A000C -->
<g id="edge5" class="edge">
<title>A000F&#45;&gt;A000C</title>
<path fill="none" stroke="black" d="M96,-400.2C96,-392.25 96,-383.65 96,-375.74"/>
<polygon fill="black" stroke="black" points="99.5,-375.95 96,-365.95 92.5,-375.95 99.5,-375.95"/>
</g>
<!-- A0000 -->
<g id="node3" class="node">
<title>A0000</title>
<ellipse fill="none" stroke="black" cx="51" cy="-262.26" rx="27" ry="18"/>
<text text-anchor="middle" x="51" y="-257.59" font-family="monospace" font-size="14.00">ɛ</text>
</g>
<!-- A000C&#45;&gt;A0000 -->
<g id="edge1" class="edge">
<title>A000C&#45;&gt;A0000</title>
<path fill="none" stroke="black" d="M87.11,-329.1C80.92,-317.82 72.54,-302.54 65.41,-289.54"/>
<polygon fill="black" stroke="black" points="68.63,-288.13 60.75,-281.05 62.49,-291.5 68.63,-288.13"/>
</g>
<!-- A0001 -->
<g id="node4" class="node">
<title>A0001</title>
<ellipse fill="none" stroke="black" cx="142" cy="-262.26" rx="40.48" ry="30.05"/>
<text text-anchor="middle" x="142" y="-266.21" font-family="monospace" font-size="14.00">GROUP</text>
<text text-anchor="middle" x="142" y="-248.96" font-family="monospace" font-size="14.00">/1</text>
</g>
<!-- A000C&#45;&gt;A0001 -->
<g id="edge4" class="edge">
<title>A000C&#45;&gt;A0001</title>
<path fill="none" stroke="black" stroke-dasharray="5,2" d="M105.09,-329.1C109.72,-320.83 115.56,-310.42 121.22,-300.32"/>
<polygon fill="black" stroke="black" points="124.2,-302.18 126.03,-291.74 118.09,-298.75 124.2,-302.18"/>
</g>
<!-- A0008 -->
<g id="node5" class="node">
<title>A0008</title>
<ellipse fill="none" stroke="black" cx="148" cy="-166.16" rx="46.32" ry="30.05"/>
<text text-anchor="middle" x="148" y="-170.11" font-family="monospace" font-size="14.00">UQUANT</text>
<text text-anchor="middle" x="148" y="-152.86" font-family="monospace" font-size="14.00">0&#45;∞</text>
</g>
<!-- A0001&#45;&gt;A0008 -->
<g id="edge3" class="edge">
<title>A0001&#45;&gt;A0008</title>
<path fill="none" stroke="black" d="M143.88,-231.74C144.36,-224.21 144.89,-215.98 145.4,-207.99"/>
<polygon fill="black" stroke="black" points="148.88,-208.28 146.03,-198.08 141.9,-207.84 148.88,-208.28"/>
</g>
<!-- A0006 -->
<g id="node6" class="node">
<title>A0006</title>
<ellipse fill="none" stroke="black" cx="148" cy="-70.05" rx="28.81" ry="30.05"/>
<text text-anchor="middle" x="148" y="-74" font-family="monospace" font-size="14.00">CHR</text>
<text text-anchor="middle" x="148" y="-56.75" font-family="monospace" font-size="14.00">a</text>
</g>
<!-- A0008&#45;&gt;A0006 -->
<g id="edge2" class="edge">
<title>A0008&#45;&gt;A0006</title>
<path fill="none" stroke="black" d="M148,-135.64C148,-128.11 148,-119.87 148,-111.88"/>
<polygon fill="black" stroke="black" points="151.5,-111.98 148,-101.98 144.5,-111.98 151.5,-111.98"/>
</g>
</g>
</svg>
