<?xml version="1.0" encoding="UTF-8" standalone="no"?>
<!DOCTYPE svg PUBLIC "-//W3C//DTD SVG 1.1//EN"
 "http://www.w3.org/Graphics/SVG/1.1/DTD/svg11.dtd">
<!-- Generated by graphviz version 11.0.0 (20240428.1522)
 -->
<!-- Title: D Pages: 1 -->
<svg width="155pt" height="676pt"
 viewBox="0.00 0.00 154.87 675.92" xmlns="http://www.w3.org/2000/svg" xmlns:xlink="http://www.w3.org/1999/xlink">
<g id="graph0" class="graph" transform="scale(1 1) rotate(0) translate(4 671.92)">
<title>D</title>
<polygon fill="white" stroke="none" points="-4,4 -4,-671.92 150.87,-671.92 150.87,4 -4,4"/>
<text text-anchor="middle" x="73.43" y="-650.62" font-family="sans-serif" font-size="14.00">program for &quot;(a*?)&quot;</text>
<!-- I0001 -->
<g id="node1" class="node">
<title>I0001</title>
<polygon fill="#ffffcc" stroke="black" points="137.17,-602 72.71,-627.67 8.25,-602 32.87,-560.47 112.55,-560.47 137.17,-602"/>
<text text-anchor="middle" x="72.71" y="-594.47" font-family="monospace" font-size="14.00">MATCH</text>
<text text-anchor="middle" x="72.71" y="-577.22" font-family="monospace" font-size="14.00">0 begin</text>
<text text-anchor="middle" x="4.12" y="-631.62" font-family="monospace" font-size="14.00">1</text>
</g>
<!-- I0002 -->
<g id="node2" class="node">
<title>I0002</title>
<polygon fill="#ffffcc" stroke="black" points="137.17,-491.71 72.71,-517.38 8.25,-491.71 32.87,-450.18 112.55,-450.18 137.17,-491.71"/>
<text text-anchor="middle" x="72.71" y="-484.18" font-family="monospace" font-size="14.00">MATCH</text>
<text text-anchor="middle" x="72.71" y="-466.93" font-family="monospace" font-size="14.00">1 begin</text>
<text text-anchor="middle" x="4.12" y="-521.33" font-family="monospace" font-size="14.00">2</text>
</g>
<!-- I0001&#45;&gt;I0002 -->
<g id="edge1" class="edge">
<title>I0001&#45;&gt;I0002</title>
<path fill="none" stroke="black" d="M72.71,-560.22C72.71,-550.56 72.71,-539.55 72.71,-528.89"/>
<polygon fill="black" stroke="black" points="76.21,-529.04 72.71,-519.04 69.21,-529.04 76.21,-529.04"/>
</g>
<!-- I0003 -->
<g id="node3" class="node">
<title>I0003</title>
<ellipse fill="#b3cde3" stroke="black" cx="72.71" cy="-389.09" rx="40.16" ry="18"/>
<text text-anchor="middle" x="72.71" y="-384.41" font-family="monospace" font-size="14.00">SPLIT</text>
<text text-anchor="middle" x="28.43" y="-411.04" font-family="monospace" font-size="14.00">3</text>
</g>
<!-- I0002&#45;&gt;I0003 -->
<g id="edge2" class="edge">
<title>I0002&#45;&gt;I0003</title>
<path fill="none" stroke="black" d="M72.71,-450.04C72.71,-440.01 72.71,-428.78 72.71,-418.79"/>
<polygon fill="black" stroke="black" points="76.21,-418.88 72.71,-408.88 69.21,-418.88 76.21,-418.88"/>
</g>
<!-- I0006 -->
<g id="node4" class="node">
<title>I0006</title>
<polygon fill="#ffffcc" stroke="black" points="122.75,-158.92 72.71,-184.59 22.67,-158.92 41.78,-117.39 103.64,-117.39 122.75,-158.92"/>
<text text-anchor="middle" x="72.71" y="-151.39" font-family="monospace" font-size="14.00">MATCH</text>
<text text-anchor="middle" x="72.71" y="-134.14" font-family="monospace" font-size="14.00">1 end</text>
<text text-anchor="middle" x="18.55" y="-188.54" font-family="monospace" font-size="14.00">6</text>
</g>
<!-- I0003&#45;&gt;I0006 -->
<g id="edge3" class="edge">
<title>I0003&#45;&gt;I0006</title>
<path fill="none" stroke="black" d="M69.01,-370.95C62.93,-340.62 52.06,-275.48 57.71,-220.59 58.67,-211.27 60.31,-201.38 62.16,-192"/>
<polygon fill="black" stroke="black" points="65.55,-192.89 64.17,-182.38 58.7,-191.45 65.55,-192.89"/>
</g>
<!-- I0004 -->
<g id="node5" class="node">
<title>I0004</title>
<polygon fill="#fbb4ae" stroke="black" points="135.33,-335.09 78.08,-335.09 78.08,-292.59 135.33,-292.59 135.33,-335.09"/>
<text text-anchor="middle" x="106.71" y="-317.79" font-family="monospace" font-size="14.00">RANGE</text>
<text text-anchor="middle" x="106.71" y="-300.54" font-family="monospace" font-size="14.00">a&#45;a</text>
<text text-anchor="middle" x="73.96" y="-339.04" font-family="monospace" font-size="14.00">4</text>
</g>
<!-- I0003&#45;&gt;I0004 -->
<g id="edge4" class="edge">
<title>I0003&#45;&gt;I0004</title>
<path fill="none" stroke="black" stroke-dasharray="5,2" d="M80.6,-371.1C84.11,-363.52 88.36,-354.36 92.41,-345.65"/>
<polygon fill="black" stroke="black" points="95.5,-347.3 96.53,-336.76 89.15,-344.36 95.5,-347.3"/>
</g>
<!-- I0007 -->
<g id="node7" class="node">
<title>I0007</title>
<polygon fill="#ffffcc" stroke="black" points="122.75,-48.63 72.71,-74.29 22.67,-48.63 41.78,-7.09 103.64,-7.09 122.75,-48.63"/>
<text text-anchor="middle" x="72.71" y="-41.1" font-family="monospace" font-size="14.00">MATCH</text>
<text text-anchor="middle" x="72.71" y="-23.85" font-family="monospace" font-size="14.00">0 end</text>
<text text-anchor="middle" x="18.55" y="-78.24" font-family="monospace" font-size="14.00">7</text>
</g>
<!-- I0006&#45;&gt;I0007 -->
<g id="edge8" class="edge">
<title>I0006&#45;&gt;I0007</title>
<path fill="none" stroke="black" d="M72.71,-117.13C72.71,-107.57 72.71,-96.68 72.71,-86.11"/>
<polygon fill="black" stroke="black" points="76.21,-86.35 72.71,-76.35 69.21,-86.35 76.21,-86.35"/>
</g>
<!-- I0005 -->
<g id="node6" class="node">
<title>I0005</title>
<ellipse fill="#b3cde3" stroke="black" cx="106.71" cy="-238.59" rx="40.16" ry="18"/>
<text text-anchor="middle" x="106.71" y="-233.91" font-family="monospace" font-size="14.00">SPLIT</text>
<text text-anchor="middle" x="62.43" y="-260.54" font-family="monospace" font-size="14.00">5</text>
</g>
<!-- I0004&#45;&gt;I0005 -->
<g id="edge5" class="edge">
<title>I0004&#45;&gt;I0005</title>
<path fill="none" stroke="black" d="M100.59,-292.43C99.96,-284.81 99.8,-276.01 100.12,-267.81"/>
<polygon fill="black" stroke="black" points="103.6,-268.15 100.82,-257.93 96.62,-267.66 103.6,-268.15"/>
</g>
<!-- I0005&#45;&gt;I0006 -->
<g id="edge7" class="edge">
<title>I0005&#45;&gt;I0006</title>
<path fill="none" stroke="black" stroke-dasharray="5,2" d="M100.15,-220.4C96.8,-211.59 92.55,-200.46 88.41,-189.6"/>
<polygon fill="black" stroke="black" points="91.71,-188.44 84.88,-180.35 85.17,-190.94 91.71,-188.44"/>
</g>
<!-- I0005&#45;&gt;I0004 -->
<g id="edge6" class="edge">
<title>I0005&#45;&gt;I0004</title>
<path fill="none" stroke="black" d="M112.49,-256.42C113.29,-263.79 113.6,-272.68 113.4,-281.21"/>
<polygon fill="black" stroke="black" points="109.92,-280.75 112.91,-290.92 116.91,-281.11 109.92,-280.75"/>
</g>
</g>
</svg>
