<?xml version="1.0" encoding="UTF-8" standalone="no"?>
<!DOCTYPE svg PUBLIC "-//W3C//DTD SVG 1.1//EN"
 "http://www.w3.org/Graphics/SVG/1.1/DTD/svg11.dtd">
<!-- Generated by graphviz version 11.0.0 (20240428.1522)
 -->
<!-- Title: D Pages: 1 -->
<svg width="216pt" height="379pt"
 viewBox="0.00 0.00 216.00 379.21" xmlns="http://www.w3.org/2000/svg" xmlns:xlink="http://www.w3.org/1999/xlink">
<g id="graph0" class="graph" transform="scale(1 1) rotate(0) translate(4 375.21)">
<title>D</title>
<polygon fill="white" stroke="none" points="-4,4 -4,-375.21 212,-375.21 212,4 -4,4"/>
<text text-anchor="middle" x="104" y="-353.91" font-family="sans-serif" font-size="14.00">ast for &quot;(a)&quot;</text>
<g id="clust1" class="cluster">
<title>cluster_000A</title>
<polygon fill="#f7f7f7" stroke="black" points="8,-8 8,-340.21 200,-340.21 200,-8 8,-8"/>
</g>
<g id="clust2" class="cluster">
<title>cluster_0007</title>
<polygon fill="#d9d9d9" stroke="black" points="16,-16 16,-244.1 192,-244.1 192,-16 16,-16"/>
</g>
<g id="clust4" class="cluster">
<title>cluster_0001</title>
<polygon fill="#bdbdbd" stroke="black" points="88,-24 88,-172.1 184,-172.1 184,-24 88,-24"/>
</g>
<!-- A000A -->
<g id="node1" class="node">
<title>A000A</title>
<ellipse fill="none" stroke="black" cx="96" cy="-302.16" rx="40.48" ry="30.05"/>
<text text-anchor="middle" x="96" y="-306.11" font-family="monospace" font-size="14.00">GROUP</text>
<text text-anchor="middle" x="96" y="-288.86" font-family="monospace" font-size="14.00">R</text>
</g>
<!-- A0007 -->
<g id="node2" class="node">
<title>A0007</title>
<ellipse fill="none" stroke="black" cx="96" cy="-218.1" rx="28.59" ry="18"/>
<text text-anchor="middle" x="96" y="-213.43" font-family="monospace" font-size="14.00">CAT</text>
</g>
<!-- A000A&#45;&gt;A0007 -->
<g id="edge4" class="edge">
<title>A000A&#45;&gt;A0007</title>
<path fill="none" stroke="black" d="M96,-272C96,-264.04 96,-255.44 96,-247.53"/>
<polygon fill="black" stroke="black" points="99.5,-247.74 96,-237.74 92.5,-247.74 99.5,-247.74"/>
</g>
<!-- A0000 -->
<g id="node3" class="node">
<title>A0000</title>
<ellipse fill="none" stroke="black" cx="51" cy="-146.1" rx="27" ry="18"/>
<text text-anchor="middle" x="51" y="-141.43" font-family="monospace" font-size="14.00">ɛ</text>
</g>
<!-- A0007&#45;&gt;A0000 -->
<g id="edge1" class="edge">
<title>A0007&#45;&gt;A0000</title>
<path fill="none" stroke="black" d="M85.56,-200.87C80.09,-192.36 73.27,-181.74 67.13,-172.2"/>
<polygon fill="black" stroke="black" points="70.24,-170.56 61.89,-164.04 64.35,-174.35 70.24,-170.56"/>
</g>
<!-- A0001 -->
<g id="node4" class="node">
<title>A0001</title>
<ellipse fill="none" stroke="black" cx="136" cy="-146.1" rx="40.16" ry="18"/>
<text text-anchor="middle" x="136" y="-141.43" font-family="monospace" font-size="14.00">GROUP</text>
</g>
<!-- A0007&#45;&gt;A0001 -->
<g id="edge3" class="edge">
<title>A0007&#45;&gt;A0001</title>
<path fill="none" stroke="black" stroke-dasharray="5,2" d="M105.28,-200.87C109.91,-192.77 115.62,-182.77 120.86,-173.59"/>
<polygon fill="black" stroke="black" points="123.82,-175.47 125.74,-165.05 117.74,-172 123.82,-175.47"/>
</g>
<!-- A0005 -->
<g id="node5" class="node">
<title>A0005</title>
<ellipse fill="none" stroke="black" cx="136" cy="-62.05" rx="28.81" ry="30.05"/>
<text text-anchor="middle" x="136" y="-66" font-family="monospace" font-size="14.00">CHR</text>
<text text-anchor="middle" x="136" y="-48.75" font-family="monospace" font-size="14.00">a</text>
</g>
<!-- A0001&#45;&gt;A0005 -->
<g id="edge2" class="edge">
<title>A0001&#45;&gt;A0005</title>
<path fill="none" stroke="black" d="M136,-127.7C136,-120.65 136,-112.19 136,-103.75"/>
<polygon fill="black" stroke="black" points="139.5,-103.89 136,-93.89 132.5,-103.89 139.5,-103.89"/>
</g>
</g>
</svg>
