<?xml version="1.0" encoding="UTF-8" standalone="no"?>
<!DOCTYPE svg PUBLIC "-//W3C//DTD SVG 1.1//EN"
 "http://www.w3.org/Graphics/SVG/1.1/DTD/svg11.dtd">
<!-- Generated by graphviz version 11.0.0 (20240428.1522)
 -->
<!-- Title: D Pages: 1 -->
<svg width="216pt" height="403pt"
 viewBox="0.00 0.00 216.00 403.31" xmlns="http://www.w3.org/2000/svg" xmlns:xlink="http://www.w3.org/1999/xlink">
<g id="graph0" class="graph" transform="scale(1 1) rotate(0) translate(4 399.31)">
<title>D</title>
<polygon fill="white" stroke="none" points="-4,4 -4,-399.31 212,-399.31 212,4 -4,4"/>
<text text-anchor="middle" x="104" y="-378.01" font-family="sans-serif" font-size="14.00">ast for &quot;(a)&quot;</text>
<g id="clust1" class="cluster">
<title>cluster_000B</title>
<polygon fill="#f7f7f7" stroke="black" points="8,-8 8,-364.31 200,-364.31 200,-8 8,-8"/>
</g>
<g id="clust2" class="cluster">
<title>cluster_0008</title>
<polygon fill="#d9d9d9" stroke="black" points="16,-16 16,-268.21 192,-268.21 192,-16 16,-16"/>
</g>
<g id="clust4" class="cluster">
<title>cluster_0001</title>
<polygon fill="#bdbdbd" stroke="black" points="88,-24 88,-196.21 184,-196.21 184,-24 88,-24"/>
</g>
<!-- A000B -->
<g id="node1" class="node">
<title>A000B</title>
<ellipse fill="none" stroke="black" cx="96" cy="-326.26" rx="40.48" ry="30.05"/>
<text text-anchor="middle" x="96" y="-330.21" font-family="monospace" font-size="14.00">GROUP</text>
<text text-anchor="middle" x="96" y="-312.96" font-family="monospace" font-size="14.00">R/0</text>
</g>
<!-- A0008 -->
<g id="node2" class="node">
<title>A0008</title>
<ellipse fill="none" stroke="black" cx="96" cy="-242.21" rx="28.59" ry="18"/>
<text text-anchor="middle" x="96" y="-237.53" font-family="monospace" font-size="14.00">CAT</text>
</g>
<!-- A000B&#45;&gt;A0008 -->
<g id="edge4" class="edge">
<title>A000B&#45;&gt;A0008</title>
<path fill="none" stroke="black" d="M96,-296.1C96,-288.15 96,-279.54 96,-271.63"/>
<polygon fill="black" stroke="black" points="99.5,-271.84 96,-261.84 92.5,-271.84 99.5,-271.84"/>
</g>
<!-- A0000 -->
<g id="node3" class="node">
<title>A0000</title>
<ellipse fill="none" stroke="black" cx="51" cy="-158.16" rx="27" ry="18"/>
<text text-anchor="middle" x="51" y="-153.48" font-family="monospace" font-size="14.00">ɛ</text>
</g>
<!-- A0008&#45;&gt;A0000 -->
<g id="edge1" class="edge">
<title>A0008&#45;&gt;A0000</title>
<path fill="none" stroke="black" d="M87.11,-225C80.92,-213.72 72.54,-198.44 65.41,-185.43"/>
<polygon fill="black" stroke="black" points="68.63,-184.03 60.75,-176.94 62.49,-187.39 68.63,-184.03"/>
</g>
<!-- A0001 -->
<g id="node4" class="node">
<title>A0001</title>
<ellipse fill="none" stroke="black" cx="136" cy="-158.16" rx="40.48" ry="30.05"/>
<text text-anchor="middle" x="136" y="-162.11" font-family="monospace" font-size="14.00">GROUP</text>
<text text-anchor="middle" x="136" y="-144.86" font-family="monospace" font-size="14.00">/1</text>
</g>
<!-- A0008&#45;&gt;A0001 -->
<g id="edge3" class="edge">
<title>A0008&#45;&gt;A0001</title>
<path fill="none" stroke="black" stroke-dasharray="5,2" d="M104.09,-224.6C107.98,-216.63 112.82,-206.71 117.54,-197.03"/>
<polygon fill="black" stroke="black" points="120.66,-198.6 121.9,-188.08 114.37,-195.54 120.66,-198.6"/>
</g>
<!-- A0006 -->
<g id="node5" class="node">
<title>A0006</title>
<ellipse fill="none" stroke="black" cx="136" cy="-62.05" rx="28.81" ry="30.05"/>
<text text-anchor="middle" x="136" y="-66" font-family="monospace" font-size="14.00">CHR</text>
<text text-anchor="middle" x="136" y="-48.75" font-family="monospace" font-size="14.00">a</text>
</g>
<!-- A0001&#45;&gt;A0006 -->
<g id="edge2" class="edge">
<title>A0001&#45;&gt;A0006</title>
<path fill="none" stroke="black" d="M136,-127.64C136,-120.11 136,-111.87 136,-103.88"/>
<polygon fill="black" stroke="black" points="139.5,-103.98 136,-93.98 132.5,-103.98 139.5,-103.98"/>
</g>
</g>
</svg>
