<?xml version="1.0" encoding="UTF-8" standalone="no"?>
<!DOCTYPE svg PUBLIC "-//W3C//DTD SVG 1.1//EN"
 "http://www.w3.org/Graphics/SVG/1.1/DTD/svg11.dtd">
<!-- Generated by graphviz version 11.0.0 (20240428.1522)
 -->
<!-- Title: D Pages: 1 -->
<svg width="131pt" height="390pt"
 viewBox="0.00 0.00 130.75 389.84" xmlns="http://www.w3.org/2000/svg" xmlns:xlink="http://www.w3.org/1999/xlink">
<g id="graph0" class="graph" transform="scale(1 1) rotate(0) translate(4 385.84)">
<title>D</title>
<polygon fill="white" stroke="none" points="-4,4 -4,-385.84 126.75,-385.84 126.75,4 -4,4"/>
<text text-anchor="middle" x="61.37" y="-364.54" font-family="sans-serif" font-size="14.00">program for &quot;lr&quot;</text>
<!-- I0001 -->
<g id="node1" class="node">
<title>I0001</title>
<polygon fill="#ffffcc" stroke="black" points="115.54,-315.92 65.5,-341.59 15.46,-315.92 34.57,-274.39 96.42,-274.39 115.54,-315.92"/>
<text text-anchor="middle" x="65.5" y="-308.39" font-family="monospace" font-size="14.00">MATCH</text>
<text text-anchor="middle" x="65.5" y="-291.14" font-family="monospace" font-size="14.00">set 1</text>
<text text-anchor="middle" x="11.34" y="-345.54" font-family="monospace" font-size="14.00">1</text>
</g>
<!-- I0002 -->
<g id="node2" class="node">
<title>I0002</title>
<polygon fill="#fbb4ae" stroke="black" points="94.12,-231.29 36.87,-231.29 36.87,-188.79 94.12,-188.79 94.12,-231.29"/>
<text text-anchor="middle" x="65.5" y="-213.99" font-family="monospace" font-size="14.00">RANGE</text>
<text text-anchor="middle" x="65.5" y="-196.74" font-family="monospace" font-size="14.00">l&#45;l</text>
<text text-anchor="middle" x="32.75" y="-235.24" font-family="monospace" font-size="14.00">2</text>
</g>
<!-- I0001&#45;&gt;I0002 -->
<g id="edge1" class="edge">
<title>I0001&#45;&gt;I0002</title>
<path fill="none" stroke="black" d="M65.5,-273.95C65.5,-264.08 65.5,-253.04 65.5,-242.99"/>
<polygon fill="black" stroke="black" points="69,-243.29 65.5,-233.29 62,-243.29 69,-243.29"/>
</g>
<!-- I0003 -->
<g id="node3" class="node">
<title>I0003</title>
<polygon fill="#fbb4ae" stroke="black" points="94.12,-152.79 36.87,-152.79 36.87,-110.29 94.12,-110.29 94.12,-152.79"/>
<text text-anchor="middle" x="65.5" y="-135.49" font-family="monospace" font-size="14.00">RANGE</text>
<text text-anchor="middle" x="65.5" y="-118.24" font-family="monospace" font-size="14.00">r&#45;r</text>
<text text-anchor="middle" x="32.75" y="-156.74" font-family="monospace" font-size="14.00">3</text>
</g>
<!-- I0002&#45;&gt;I0003 -->
<g id="edge2" class="edge">
<title>I0002&#45;&gt;I0003</title>
<path fill="none" stroke="black" d="M65.5,-188.54C65.5,-181.17 65.5,-172.66 65.5,-164.54"/>
<polygon fill="black" stroke="black" points="69,-164.61 65.5,-154.61 62,-164.61 69,-164.61"/>
</g>
<!-- I0004 -->
<g id="node4" class="node">
<title>I0004</title>
<polygon fill="#ffffcc" stroke="black" points="122.75,-48.63 65.5,-74.29 8.25,-48.63 30.12,-7.09 100.88,-7.09 122.75,-48.63"/>
<text text-anchor="middle" x="65.5" y="-41.1" font-family="monospace" font-size="14.00">MATCH</text>
<text text-anchor="middle" x="65.5" y="-23.85" font-family="monospace" font-size="14.00">slot 0</text>
<text text-anchor="middle" x="4.12" y="-78.24" font-family="monospace" font-size="14.00">4</text>
</g>
<!-- I0003&#45;&gt;I0004 -->
<g id="edge3" class="edge">
<title>I0003&#45;&gt;I0004</title>
<path fill="none" stroke="black" d="M65.5,-110.04C65.5,-102.87 65.5,-94.5 65.5,-86.05"/>
<polygon fill="black" stroke="black" points="69,-86.1 65.5,-76.1 62,-86.1 69,-86.1"/>
</g>
</g>
</svg>
