<?xml version="1.0" encoding="UTF-8" standalone="no"?>
<!DOCTYPE svg PUBLIC "-//W3C//DTD SVG 1.1//EN"
 "http://www.w3.org/Graphics/SVG/1.1/DTD/svg11.dtd">
<!-- Generated by graphviz version 11.0.0 (20240428.1522)
 -->
<!-- Title: D Pages: 1 -->
<svg width="127pt" height="305pt"
 viewBox="0.00 0.00 126.63 305.34" xmlns="http://www.w3.org/2000/svg" xmlns:xlink="http://www.w3.org/1999/xlink">
<g id="graph0" class="graph" transform="scale(1 1) rotate(0) translate(4 301.34)">
<title>D</title>
<polygon fill="white" stroke="none" points="-4,4 -4,-301.34 122.63,-301.34 122.63,4 -4,4"/>
<text text-anchor="middle" x="59.31" y="-280.04" font-family="Times,serif" font-size="14.00">program for &quot;a&quot;</text>
<!-- I0001 -->
<g id="node1" class="node">
<title>I0001</title>
<polygon fill="#ffffcc" stroke="black" points="118.63,-231.58 62.69,-256.34 6.75,-231.58 28.12,-191.51 97.26,-191.51 118.63,-231.58"/>
<text text-anchor="middle" x="62.69" y="-223.71" font-family="Times,serif" font-size="14.00">MATCH</text>
<text text-anchor="middle" x="62.69" y="-207.21" font-family="Times,serif" font-size="14.00">set 1</text>
<text text-anchor="middle" x="3.38" y="-259.54" font-family="Times,serif" font-size="14.00">1</text>
</g>
<!-- I0002 -->
<g id="node2" class="node">
<title>I0002</title>
<polygon fill="#fbb4ae" stroke="black" points="93.94,-148.67 31.44,-148.67 31.44,-107.67 93.94,-107.67 93.94,-148.67"/>
<text text-anchor="middle" x="62.69" y="-131.37" font-family="Times,serif" font-size="14.00">RANGE</text>
<text text-anchor="middle" x="62.69" y="-114.87" font-family="Times,serif" font-size="14.00">a&#45;a</text>
<text text-anchor="middle" x="28.06" y="-151.87" font-family="Times,serif" font-size="14.00">2</text>
</g>
<!-- I0001&#45;&gt;I0002 -->
<g id="edge1" class="edge">
<title>I0001&#45;&gt;I0002</title>
<path fill="none" stroke="black" d="M62.69,-191.42C62.69,-181.52 62.69,-170.33 62.69,-160.2"/>
<polygon fill="black" stroke="black" points="66.19,-160.44 62.69,-150.44 59.19,-160.44 66.19,-160.44"/>
</g>
<!-- I0003 -->
<g id="node3" class="node">
<title>I0003</title>
<polygon fill="#ffffcc" stroke="black" points="118.63,-46.91 62.69,-71.67 6.75,-46.91 28.12,-6.84 97.26,-6.84 118.63,-46.91"/>
<text text-anchor="middle" x="62.69" y="-39.04" font-family="Times,serif" font-size="14.00">MATCH</text>
<text text-anchor="middle" x="62.69" y="-22.54" font-family="Times,serif" font-size="14.00">slot 0</text>
<text text-anchor="middle" x="3.38" y="-74.87" font-family="Times,serif" font-size="14.00">3</text>
</g>
<!-- I0002&#45;&gt;I0003 -->
<g id="edge2" class="edge">
<title>I0002&#45;&gt;I0003</title>
<path fill="none" stroke="black" d="M62.69,-107.57C62.69,-100.43 62.69,-92.03 62.69,-83.55"/>
<polygon fill="black" stroke="black" points="66.19,-83.57 62.69,-73.57 59.19,-83.57 66.19,-83.57"/>
</g>
</g>
</svg>
