<?xml version="1.0" encoding="UTF-8" standalone="no"?>
<!DOCTYPE svg PUBLIC "-//W3C//DTD SVG 1.1//EN"
 "http://www.w3.org/Graphics/SVG/1.1/DTD/svg11.dtd">
<!-- Generated by graphviz version 11.0.0 (20240428.1522)
 -->
<!-- Title: D Pages: 1 -->
<svg width="128pt" height="216pt"
 viewBox="0.00 0.00 128.00 216.47" xmlns="http://www.w3.org/2000/svg" xmlns:xlink="http://www.w3.org/1999/xlink">
<g id="graph0" class="graph" transform="scale(1 1) rotate(0) translate(4 212.47)">
<title>D</title>
<polygon fill="white" stroke="none" points="-4,4 -4,-212.47 124,-212.47 124,4 -4,4"/>
<text text-anchor="middle" x="60" y="-191.17" font-family="Times,serif" font-size="14.00">ast for &quot;a&quot;</text>
<g id="clust1" class="cluster">
<title>cluster_0003</title>
<polygon fill="#f7f7f7" stroke="black" points="8,-8 8,-175.97 112,-175.97 112,-8 8,-8"/>
</g>
<!-- A0003 -->
<g id="node1" class="node">
<title>A0003</title>
<ellipse fill="none" stroke="black" cx="60" cy="-138.97" rx="43.66" ry="28.99"/>
<text text-anchor="middle" x="60" y="-142.17" font-family="Times,serif" font-size="14.00">GROUP</text>
<text text-anchor="middle" x="60" y="-125.67" font-family="Times,serif" font-size="14.00">R</text>
</g>
<!-- A0001 -->
<g id="node2" class="node">
<title>A0001</title>
<ellipse fill="none" stroke="black" cx="60" cy="-44.99" rx="30.94" ry="28.99"/>
<text text-anchor="middle" x="60" y="-48.19" font-family="Times,serif" font-size="14.00">CHR</text>
<text text-anchor="middle" x="60" y="-31.69" font-family="Times,serif" font-size="14.00">a</text>
</g>
<!-- A0003&#45;&gt;A0001 -->
<g id="edge1" class="edge">
<title>A0003&#45;&gt;A0001</title>
<path fill="none" stroke="black" d="M60,-109.63C60,-102.11 60,-93.85 60,-85.84"/>
<polygon fill="black" stroke="black" points="63.5,-85.92 60,-75.92 56.5,-85.92 63.5,-85.92"/>
</g>
</g>
</svg>
