<?xml version="1.0" encoding="UTF-8" standalone="no"?>
<!DOCTYPE svg PUBLIC "-//W3C//DTD SVG 1.1//EN"
 "http://www.w3.org/Graphics/SVG/1.1/DTD/svg11.dtd">
<!-- Generated by graphviz version 11.0.0 (20240428.1522)
 -->
<!-- Title: D Pages: 1 -->
<svg width="128pt" height="296pt"
 viewBox="0.00 0.00 128.00 296.47" xmlns="http://www.w3.org/2000/svg" xmlns:xlink="http://www.w3.org/1999/xlink">
<g id="graph0" class="graph" transform="scale(1 1) rotate(0) translate(4 292.47)">
<title>D</title>
<polygon fill="white" stroke="none" points="-4,4 -4,-292.47 124,-292.47 124,4 -4,4"/>
<text text-anchor="middle" x="60" y="-271.17" font-family="Times,serif" font-size="14.00">ast for &quot;[a&#45;z]&quot;</text>
<g id="clust1" class="cluster">
<title>cluster_0005</title>
<polygon fill="#f7f7f7" stroke="black" points="8,-8 8,-255.97 112,-255.97 112,-8 8,-8"/>
</g>
<g id="clust2" class="cluster">
<title>cluster_0001</title>
<polygon fill="#d9d9d9" stroke="black" points="18,-16 18,-161.98 102,-161.98 102,-16 18,-16"/>
</g>
<!-- A0005 -->
<g id="node1" class="node">
<title>A0005</title>
<ellipse fill="none" stroke="black" cx="60" cy="-218.97" rx="43.66" ry="28.99"/>
<text text-anchor="middle" x="60" y="-222.17" font-family="Times,serif" font-size="14.00">GROUP</text>
<text text-anchor="middle" x="60" y="-205.67" font-family="Times,serif" font-size="14.00">R</text>
</g>
<!-- A0001 -->
<g id="node2" class="node">
<title>A0001</title>
<ellipse fill="none" stroke="black" cx="60" cy="-124.99" rx="28.81" ry="28.99"/>
<text text-anchor="middle" x="60" y="-128.19" font-family="Times,serif" font-size="14.00">CLS</text>
<text text-anchor="middle" x="60" y="-111.69" font-family="Times,serif" font-size="14.00">a&#45;z</text>
</g>
<!-- A0005&#45;&gt;A0001 -->
<g id="edge2" class="edge">
<title>A0005&#45;&gt;A0001</title>
<path fill="none" stroke="black" d="M60,-189.63C60,-182.11 60,-173.85 60,-165.84"/>
<polygon fill="black" stroke="black" points="63.5,-165.92 60,-155.92 56.5,-165.92 63.5,-165.92"/>
</g>
<!-- A0000 -->
<g id="node3" class="node">
<title>A0000</title>
<ellipse fill="none" stroke="black" cx="60" cy="-42" rx="34.46" ry="18"/>
<text text-anchor="middle" x="60" y="-36.95" font-family="Times,serif" font-size="14.00">&lt;eps&gt;</text>
</g>
<!-- A0001&#45;&gt;A0000 -->
<g id="edge1" class="edge">
<title>A0001&#45;&gt;A0000</title>
<path fill="none" stroke="black" d="M60,-95.66C60,-87.79 60,-79.24 60,-71.36"/>
<polygon fill="black" stroke="black" points="63.5,-71.61 60,-61.61 56.5,-71.61 63.5,-71.61"/>
</g>
</g>
</svg>
