<?xml version="1.0" encoding="UTF-8" standalone="no"?>
<!DOCTYPE svg PUBLIC "-//W3C//DTD SVG 1.1//EN"
 "http://www.w3.org/Graphics/SVG/1.1/DTD/svg11.dtd">
<!-- Generated by graphviz version 11.0.0 (20240428.1522)
 -->
<!-- Title: D Pages: 1 -->
<svg width="131pt" height="305pt"
 viewBox="0.00 0.00 131.25 305.34" xmlns="http://www.w3.org/2000/svg" xmlns:xlink="http://www.w3.org/1999/xlink">
<g id="graph0" class="graph" transform="scale(1 1) rotate(0) translate(4 301.34)">
<title>D</title>
<polygon fill="white" stroke="none" points="-4,4 -4,-301.34 127.25,-301.34 127.25,4 -4,4"/>
<text text-anchor="middle" x="61.62" y="-280.04" font-family="Times,serif" font-size="14.00">program for &quot;[a&#45;z]&quot;</text>
<!-- I0001 -->
<g id="node1" class="node">
<title>I0001</title>
<polygon fill="#ffffcc" stroke="black" points="120.94,-231.58 65,-256.34 9.06,-231.58 30.43,-191.51 99.57,-191.51 120.94,-231.58"/>
<text text-anchor="middle" x="65" y="-223.71" font-family="Times,serif" font-size="14.00">MATCH</text>
<text text-anchor="middle" x="65" y="-207.21" font-family="Times,serif" font-size="14.00">set 1</text>
<text text-anchor="middle" x="5.69" y="-259.54" font-family="Times,serif" font-size="14.00">1</text>
</g>
<!-- I0002 -->
<g id="node2" class="node">
<title>I0002</title>
<polygon fill="#fbb4ae" stroke="black" points="96.25,-148.67 33.75,-148.67 33.75,-107.67 96.25,-107.67 96.25,-148.67"/>
<text text-anchor="middle" x="65" y="-131.37" font-family="Times,serif" font-size="14.00">RANGE</text>
<text text-anchor="middle" x="65" y="-114.87" font-family="Times,serif" font-size="14.00">a&#45;z</text>
<text text-anchor="middle" x="30.38" y="-151.87" font-family="Times,serif" font-size="14.00">2</text>
</g>
<!-- I0001&#45;&gt;I0002 -->
<g id="edge1" class="edge">
<title>I0001&#45;&gt;I0002</title>
<path fill="none" stroke="black" d="M65,-191.42C65,-181.52 65,-170.33 65,-160.2"/>
<polygon fill="black" stroke="black" points="68.5,-160.44 65,-150.44 61.5,-160.44 68.5,-160.44"/>
</g>
<!-- I0003 -->
<g id="node3" class="node">
<title>I0003</title>
<polygon fill="#ffffcc" stroke="black" points="120.94,-46.91 65,-71.67 9.06,-46.91 30.43,-6.84 99.57,-6.84 120.94,-46.91"/>
<text text-anchor="middle" x="65" y="-39.04" font-family="Times,serif" font-size="14.00">MATCH</text>
<text text-anchor="middle" x="65" y="-22.54" font-family="Times,serif" font-size="14.00">slot 0</text>
<text text-anchor="middle" x="5.69" y="-74.87" font-family="Times,serif" font-size="14.00">3</text>
</g>
<!-- I0002&#45;&gt;I0003 -->
<g id="edge2" class="edge">
<title>I0002&#45;&gt;I0003</title>
<path fill="none" stroke="black" d="M65,-107.57C65,-100.43 65,-92.03 65,-83.55"/>
<polygon fill="black" stroke="black" points="68.5,-83.57 65,-73.57 61.5,-83.57 68.5,-83.57"/>
</g>
</g>
</svg>
