<?xml version="1.0" encoding="UTF-8" standalone="no"?>
<!DOCTYPE svg PUBLIC "-//W3C//DTD SVG 1.1//EN"
 "http://www.w3.org/Graphics/SVG/1.1/DTD/svg11.dtd">
<!-- Generated by graphviz version 11.0.0 (20240428.1522)
 -->
<!-- Title: D Pages: 1 -->
<svg width="157pt" height="383pt"
 viewBox="0.00 0.00 156.75 383.34" xmlns="http://www.w3.org/2000/svg" xmlns:xlink="http://www.w3.org/1999/xlink">
<g id="graph0" class="graph" transform="scale(1 1) rotate(0) translate(4 379.34)">
<title>D</title>
<polygon fill="white" stroke="none" points="-4,4 -4,-379.34 152.75,-379.34 152.75,4 -4,4"/>
<text text-anchor="middle" x="74.38" y="-358.04" font-family="sans-serif" font-size="14.00">program for &quot;[a&#45;zA&#45;Z]&quot;</text>
<!-- I0001 -->
<g id="node1" class="node">
<title>I0001</title>
<polygon fill="#ffffcc" stroke="black" points="128.04,-309.42 78,-335.09 27.96,-309.42 47.07,-267.89 108.93,-267.89 128.04,-309.42"/>
<text text-anchor="middle" x="78" y="-301.89" font-family="monospace" font-size="14.00">MATCH</text>
<text text-anchor="middle" x="78" y="-284.64" font-family="monospace" font-size="14.00">set 1</text>
<text text-anchor="middle" x="23.84" y="-339.04" font-family="monospace" font-size="14.00">1</text>
</g>
<!-- I0002 -->
<g id="node2" class="node">
<title>I0002</title>
<ellipse fill="#b3cde3" stroke="black" cx="78" cy="-206.79" rx="40.16" ry="18"/>
<text text-anchor="middle" x="78" y="-202.12" font-family="monospace" font-size="14.00">SPLIT</text>
<text text-anchor="middle" x="33.72" y="-228.74" font-family="monospace" font-size="14.00">2</text>
</g>
<!-- I0001&#45;&gt;I0002 -->
<g id="edge1" class="edge">
<title>I0001&#45;&gt;I0002</title>
<path fill="none" stroke="black" d="M78,-267.75C78,-257.71 78,-246.49 78,-236.49"/>
<polygon fill="black" stroke="black" points="81.5,-236.58 78,-226.58 74.5,-236.58 81.5,-236.58"/>
</g>
<!-- I0003 -->
<g id="node3" class="node">
<title>I0003</title>
<polygon fill="#fbb4ae" stroke="black" points="69.62,-152.79 12.38,-152.79 12.38,-110.29 69.62,-110.29 69.62,-152.79"/>
<text text-anchor="middle" x="41" y="-135.49" font-family="monospace" font-size="14.00">RANGE</text>
<text text-anchor="middle" x="41" y="-118.24" font-family="monospace" font-size="14.00">A&#45;Z</text>
<text text-anchor="middle" x="8.25" y="-156.74" font-family="monospace" font-size="14.00">3</text>
</g>
<!-- I0002&#45;&gt;I0003 -->
<g id="edge2" class="edge">
<title>I0002&#45;&gt;I0003</title>
<path fill="none" stroke="black" d="M69.42,-188.8C65.59,-181.23 60.97,-172.07 56.57,-163.36"/>
<polygon fill="black" stroke="black" points="59.7,-161.79 52.06,-154.44 53.45,-164.95 59.7,-161.79"/>
</g>
<!-- I0004 -->
<g id="node4" class="node">
<title>I0004</title>
<polygon fill="#fbb4ae" stroke="black" points="144.62,-152.79 87.38,-152.79 87.38,-110.29 144.62,-110.29 144.62,-152.79"/>
<text text-anchor="middle" x="116" y="-135.49" font-family="monospace" font-size="14.00">RANGE</text>
<text text-anchor="middle" x="116" y="-118.24" font-family="monospace" font-size="14.00">a&#45;z</text>
<text text-anchor="middle" x="83.25" y="-156.74" font-family="monospace" font-size="14.00">4</text>
</g>
<!-- I0002&#45;&gt;I0004 -->
<g id="edge3" class="edge">
<title>I0002&#45;&gt;I0004</title>
<path fill="none" stroke="black" stroke-dasharray="5,2" d="M86.81,-188.8C90.78,-181.15 95.6,-171.87 100.16,-163.07"/>
<polygon fill="black" stroke="black" points="103.14,-164.92 104.64,-154.44 96.93,-161.7 103.14,-164.92"/>
</g>
<!-- I0005 -->
<g id="node5" class="node">
<title>I0005</title>
<polygon fill="#ffffcc" stroke="black" points="135.25,-48.63 78,-74.29 20.75,-48.63 42.62,-7.09 113.38,-7.09 135.25,-48.63"/>
<text text-anchor="middle" x="78" y="-41.1" font-family="monospace" font-size="14.00">MATCH</text>
<text text-anchor="middle" x="78" y="-23.85" font-family="monospace" font-size="14.00">slot 0</text>
<text text-anchor="middle" x="16.63" y="-78.24" font-family="monospace" font-size="14.00">5</text>
</g>
<!-- I0003&#45;&gt;I0005 -->
<g id="edge4" class="edge">
<title>I0003&#45;&gt;I0005</title>
<path fill="none" stroke="black" d="M49.21,-110.04C52.82,-101.03 57.19,-90.1 61.43,-79.52"/>
<polygon fill="black" stroke="black" points="64.56,-81.12 65.03,-70.54 58.06,-78.52 64.56,-81.12"/>
</g>
<!-- I0004&#45;&gt;I0005 -->
<g id="edge5" class="edge">
<title>I0004&#45;&gt;I0005</title>
<path fill="none" stroke="black" d="M107.57,-110.04C103.83,-100.95 99.29,-89.91 94.9,-79.24"/>
<polygon fill="black" stroke="black" points="98.21,-78.09 91.17,-70.18 91.74,-80.76 98.21,-78.09"/>
</g>
</g>
</svg>
