<?xml version="1.0" encoding="UTF-8" standalone="no"?>
<!DOCTYPE svg PUBLIC "-//W3C//DTD SVG 1.1//EN"
 "http://www.w3.org/Graphics/SVG/1.1/DTD/svg11.dtd">
<!-- Generated by graphviz version 11.0.0 (20240428.1522)
 -->
<!-- Title: D Pages: 1 -->
<svg width="164pt" height="403pt"
 viewBox="0.00 0.00 164.00 403.31" xmlns="http://www.w3.org/2000/svg" xmlns:xlink="http://www.w3.org/1999/xlink">
<g id="graph0" class="graph" transform="scale(1 1) rotate(0) translate(4 399.31)">
<title>D</title>
<polygon fill="white" stroke="none" points="-4,4 -4,-399.31 160,-399.31 160,4 -4,4"/>
<text text-anchor="middle" x="78" y="-378.01" font-family="sans-serif" font-size="14.00">ast for &quot;[a&#45;zA&#45;Z]&quot;</text>
<g id="clust1" class="cluster">
<title>cluster_0009</title>
<polygon fill="#f7f7f7" stroke="black" points="8,-8 8,-364.31 148,-364.31 148,-8 8,-8"/>
</g>
<g id="clust2" class="cluster">
<title>cluster_0005</title>
<polygon fill="#d9d9d9" stroke="black" points="16,-16 16,-268.21 140,-268.21 140,-16 16,-16"/>
</g>
<g id="clust3" class="cluster">
<title>cluster_0001</title>
<polygon fill="#bdbdbd" stroke="black" points="24,-24 24,-172.1 132,-172.1 132,-24 24,-24"/>
</g>
<!-- A0009 -->
<g id="node1" class="node">
<title>A0009</title>
<ellipse fill="none" stroke="black" cx="78" cy="-326.26" rx="40.48" ry="30.05"/>
<text text-anchor="middle" x="78" y="-330.21" font-family="monospace" font-size="14.00">GROUP</text>
<text text-anchor="middle" x="78" y="-312.96" font-family="monospace" font-size="14.00">R</text>
</g>
<!-- A0005 -->
<g id="node2" class="node">
<title>A0005</title>
<ellipse fill="none" stroke="black" cx="78" cy="-230.16" rx="46.32" ry="30.05"/>
<text text-anchor="middle" x="78" y="-234.11" font-family="monospace" font-size="14.00">CLS</text>
<text text-anchor="middle" x="78" y="-216.86" font-family="monospace" font-size="14.00">\x01&#45;A</text>
</g>
<!-- A0009&#45;&gt;A0005 -->
<g id="edge3" class="edge">
<title>A0009&#45;&gt;A0005</title>
<path fill="none" stroke="black" d="M78,-295.74C78,-288.21 78,-279.98 78,-271.99"/>
<polygon fill="black" stroke="black" points="81.5,-272.08 78,-262.08 74.5,-272.08 81.5,-272.08"/>
</g>
<!-- A0001 -->
<g id="node3" class="node">
<title>A0001</title>
<ellipse fill="none" stroke="black" cx="78" cy="-134.05" rx="46.32" ry="30.05"/>
<text text-anchor="middle" x="78" y="-138" font-family="monospace" font-size="14.00">CLS</text>
<text text-anchor="middle" x="78" y="-120.75" font-family="monospace" font-size="14.00">\x00&#45;a</text>
</g>
<!-- A0005&#45;&gt;A0001 -->
<g id="edge2" class="edge">
<title>A0005&#45;&gt;A0001</title>
<path fill="none" stroke="black" d="M78,-199.64C78,-192.11 78,-183.87 78,-175.88"/>
<polygon fill="black" stroke="black" points="81.5,-175.98 78,-165.98 74.5,-175.98 81.5,-175.98"/>
</g>
<!-- A0000 -->
<g id="node4" class="node">
<title>A0000</title>
<ellipse fill="none" stroke="black" cx="78" cy="-50" rx="27" ry="18"/>
<text text-anchor="middle" x="78" y="-45.33" font-family="monospace" font-size="14.00">ɛ</text>
</g>
<!-- A0001&#45;&gt;A0000 -->
<g id="edge1" class="edge">
<title>A0001&#45;&gt;A0000</title>
<path fill="none" stroke="black" d="M78,-103.89C78,-95.94 78,-87.34 78,-79.42"/>
<polygon fill="black" stroke="black" points="81.5,-79.64 78,-69.64 74.5,-79.64 81.5,-79.64"/>
</g>
</g>
</svg>
