<?xml version="1.0" encoding="UTF-8" standalone="no"?>
<!DOCTYPE svg PUBLIC "-//W3C//DTD SVG 1.1//EN"
 "http://www.w3.org/Graphics/SVG/1.1/DTD/svg11.dtd">
<!-- Generated by graphviz version 11.0.0 (20240428.1522)
 -->
<!-- Title: D Pages: 1 -->
<svg width="127pt" height="521pt"
 viewBox="0.00 0.00 126.63 520.68" xmlns="http://www.w3.org/2000/svg" xmlns:xlink="http://www.w3.org/1999/xlink">
<g id="graph0" class="graph" transform="scale(1 1) rotate(0) translate(4 516.68)">
<title>D</title>
<polygon fill="white" stroke="none" points="-4,4 -4,-516.68 122.63,-516.68 122.63,4 -4,4"/>
<text text-anchor="middle" x="59.31" y="-495.38" font-family="Times,serif" font-size="14.00">program for &quot;(a)&quot;</text>
<!-- I0001 -->
<g id="node1" class="node">
<title>I0001</title>
<polygon fill="#ffffcc" stroke="black" points="118.63,-446.92 62.69,-471.68 6.75,-446.92 28.12,-406.86 97.26,-406.86 118.63,-446.92"/>
<text text-anchor="middle" x="62.69" y="-439.05" font-family="Times,serif" font-size="14.00">MATCH</text>
<text text-anchor="middle" x="62.69" y="-422.55" font-family="Times,serif" font-size="14.00">set 1</text>
<text text-anchor="middle" x="3.38" y="-474.88" font-family="Times,serif" font-size="14.00">1</text>
</g>
<!-- I0002 -->
<g id="node2" class="node">
<title>I0002</title>
<polygon fill="#ffffcc" stroke="black" points="118.63,-339.25 62.69,-364.01 6.75,-339.25 28.12,-299.19 97.26,-299.19 118.63,-339.25"/>
<text text-anchor="middle" x="62.69" y="-331.38" font-family="Times,serif" font-size="14.00">MATCH</text>
<text text-anchor="middle" x="62.69" y="-314.88" font-family="Times,serif" font-size="14.00">slot 2</text>
<text text-anchor="middle" x="3.38" y="-367.21" font-family="Times,serif" font-size="14.00">2</text>
</g>
<!-- I0001&#45;&gt;I0002 -->
<g id="edge1" class="edge">
<title>I0001&#45;&gt;I0002</title>
<path fill="none" stroke="black" d="M62.69,-406.53C62.69,-397.01 62.69,-386.13 62.69,-375.59"/>
<polygon fill="black" stroke="black" points="66.19,-375.89 62.69,-365.89 59.19,-375.89 66.19,-375.89"/>
</g>
<!-- I0003 -->
<g id="node3" class="node">
<title>I0003</title>
<polygon fill="#fbb4ae" stroke="black" points="93.94,-256.34 31.44,-256.34 31.44,-215.34 93.94,-215.34 93.94,-256.34"/>
<text text-anchor="middle" x="62.69" y="-239.04" font-family="Times,serif" font-size="14.00">RANGE</text>
<text text-anchor="middle" x="62.69" y="-222.54" font-family="Times,serif" font-size="14.00">a&#45;a</text>
<text text-anchor="middle" x="28.06" y="-259.54" font-family="Times,serif" font-size="14.00">3</text>
</g>
<!-- I0002&#45;&gt;I0003 -->
<g id="edge2" class="edge">
<title>I0002&#45;&gt;I0003</title>
<path fill="none" stroke="black" d="M62.69,-299.09C62.69,-289.19 62.69,-278 62.69,-267.87"/>
<polygon fill="black" stroke="black" points="66.19,-268.11 62.69,-258.11 59.19,-268.11 66.19,-268.11"/>
</g>
<!-- I0004 -->
<g id="node4" class="node">
<title>I0004</title>
<polygon fill="#ffffcc" stroke="black" points="118.63,-154.58 62.69,-179.34 6.75,-154.58 28.12,-114.51 97.26,-114.51 118.63,-154.58"/>
<text text-anchor="middle" x="62.69" y="-146.71" font-family="Times,serif" font-size="14.00">MATCH</text>
<text text-anchor="middle" x="62.69" y="-130.21" font-family="Times,serif" font-size="14.00">slot 3</text>
<text text-anchor="middle" x="3.38" y="-182.54" font-family="Times,serif" font-size="14.00">4</text>
</g>
<!-- I0003&#45;&gt;I0004 -->
<g id="edge3" class="edge">
<title>I0003&#45;&gt;I0004</title>
<path fill="none" stroke="black" d="M62.69,-215.24C62.69,-208.1 62.69,-199.7 62.69,-191.22"/>
<polygon fill="black" stroke="black" points="66.19,-191.24 62.69,-181.24 59.19,-191.24 66.19,-191.24"/>
</g>
<!-- I0005 -->
<g id="node5" class="node">
<title>I0005</title>
<polygon fill="#ffffcc" stroke="black" points="118.63,-46.91 62.69,-71.67 6.75,-46.91 28.12,-6.84 97.26,-6.84 118.63,-46.91"/>
<text text-anchor="middle" x="62.69" y="-39.04" font-family="Times,serif" font-size="14.00">MATCH</text>
<text text-anchor="middle" x="62.69" y="-22.54" font-family="Times,serif" font-size="14.00">slot 0</text>
<text text-anchor="middle" x="3.38" y="-74.87" font-family="Times,serif" font-size="14.00">5</text>
</g>
<!-- I0004&#45;&gt;I0005 -->
<g id="edge4" class="edge">
<title>I0004&#45;&gt;I0005</title>
<path fill="none" stroke="black" d="M62.69,-114.19C62.69,-104.67 62.69,-93.79 62.69,-83.25"/>
<polygon fill="black" stroke="black" points="66.19,-83.55 62.69,-73.55 59.19,-83.55 66.19,-83.55"/>
</g>
</g>
</svg>
