<?xml version="1.0" encoding="UTF-8" standalone="no"?>
<!DOCTYPE svg PUBLIC "-//W3C//DTD SVG 1.1//EN"
 "http://www.w3.org/Graphics/SVG/1.1/DTD/svg11.dtd">
<!-- Generated by graphviz version 11.0.0 (20240428.1522)
 -->
<!-- Title: D Pages: 1 -->
<svg width="136pt" height="299pt"
 viewBox="0.00 0.00 136.00 299.21" xmlns="http://www.w3.org/2000/svg" xmlns:xlink="http://www.w3.org/1999/xlink">
<g id="graph0" class="graph" transform="scale(1 1) rotate(0) translate(4 295.21)">
<title>D</title>
<polygon fill="white" stroke="none" points="-4,4 -4,-295.21 132,-295.21 132,4 -4,4"/>
<text text-anchor="middle" x="64" y="-273.91" font-family="sans-serif" font-size="14.00">ast for &quot;(a)&quot;</text>
<g id="clust1" class="cluster">
<title>cluster_0007</title>
<polygon fill="#f7f7f7" stroke="black" points="8,-8 8,-260.21 120,-260.21 120,-8 8,-8"/>
</g>
<g id="clust2" class="cluster">
<title>cluster_0001</title>
<polygon fill="#d9d9d9" stroke="black" points="16,-16 16,-164.1 112,-164.1 112,-16 16,-16"/>
</g>
<!-- A0007 -->
<g id="node1" class="node">
<title>A0007</title>
<ellipse fill="none" stroke="black" cx="64" cy="-222.16" rx="40.48" ry="30.05"/>
<text text-anchor="middle" x="64" y="-226.11" font-family="monospace" font-size="14.00">GROUP</text>
<text text-anchor="middle" x="64" y="-208.86" font-family="monospace" font-size="14.00">R</text>
</g>
<!-- A0001 -->
<g id="node2" class="node">
<title>A0001</title>
<ellipse fill="none" stroke="black" cx="64" cy="-138.1" rx="40.16" ry="18"/>
<text text-anchor="middle" x="64" y="-133.43" font-family="monospace" font-size="14.00">GROUP</text>
</g>
<!-- A0007&#45;&gt;A0001 -->
<g id="edge2" class="edge">
<title>A0007&#45;&gt;A0001</title>
<path fill="none" stroke="black" d="M64,-192C64,-184.04 64,-175.44 64,-167.53"/>
<polygon fill="black" stroke="black" points="67.5,-167.74 64,-157.74 60.5,-167.74 67.5,-167.74"/>
</g>
<!-- A0005 -->
<g id="node3" class="node">
<title>A0005</title>
<ellipse fill="none" stroke="black" cx="64" cy="-54.05" rx="28.81" ry="30.05"/>
<text text-anchor="middle" x="64" y="-58" font-family="monospace" font-size="14.00">CHR</text>
<text text-anchor="middle" x="64" y="-40.75" font-family="monospace" font-size="14.00">a</text>
</g>
<!-- A0001&#45;&gt;A0005 -->
<g id="edge1" class="edge">
<title>A0001&#45;&gt;A0005</title>
<path fill="none" stroke="black" d="M64,-119.7C64,-112.65 64,-104.19 64,-95.75"/>
<polygon fill="black" stroke="black" points="67.5,-95.89 64,-85.89 60.5,-95.89 67.5,-95.89"/>
</g>
</g>
</svg>
