<?xml version="1.0" encoding="UTF-8" standalone="no"?>
<!DOCTYPE svg PUBLIC "-//W3C//DTD SVG 1.1//EN"
 "http://www.w3.org/Graphics/SVG/1.1/DTD/svg11.dtd">
<!-- Generated by graphviz version 11.0.0 (20240428.1522)
 -->
<!-- Title: D Pages: 1 -->
<svg width="140pt" height="296pt"
 viewBox="0.00 0.00 140.00 296.47" xmlns="http://www.w3.org/2000/svg" xmlns:xlink="http://www.w3.org/1999/xlink">
<g id="graph0" class="graph" transform="scale(1 1) rotate(0) translate(4 292.47)">
<title>D</title>
<polygon fill="white" stroke="none" points="-4,4 -4,-292.47 136,-292.47 136,4 -4,4"/>
<text text-anchor="middle" x="66" y="-271.17" font-family="Times,serif" font-size="14.00">ast for &quot;(a)&quot;</text>
<g id="clust1" class="cluster">
<title>cluster_0007</title>
<polygon fill="#f7f7f7" stroke="black" points="8,-8 8,-255.97 124,-255.97 124,-8 8,-8"/>
</g>
<g id="clust2" class="cluster">
<title>cluster_0001</title>
<polygon fill="#d9d9d9" stroke="black" points="16,-16 16,-161.98 116,-161.98 116,-16 16,-16"/>
</g>
<!-- A0007 -->
<g id="node1" class="node">
<title>A0007</title>
<ellipse fill="none" stroke="black" cx="66" cy="-218.97" rx="43.66" ry="28.99"/>
<text text-anchor="middle" x="66" y="-222.17" font-family="Times,serif" font-size="14.00">GROUP</text>
<text text-anchor="middle" x="66" y="-205.67" font-family="Times,serif" font-size="14.00">R</text>
</g>
<!-- A0001 -->
<g id="node2" class="node">
<title>A0001</title>
<ellipse fill="none" stroke="black" cx="66" cy="-135.98" rx="42.14" ry="18"/>
<text text-anchor="middle" x="66" y="-130.93" font-family="Times,serif" font-size="14.00">GROUP</text>
</g>
<!-- A0007&#45;&gt;A0001 -->
<g id="edge2" class="edge">
<title>A0007&#45;&gt;A0001</title>
<path fill="none" stroke="black" d="M66,-189.65C66,-181.77 66,-173.22 66,-165.34"/>
<polygon fill="black" stroke="black" points="69.5,-165.59 66,-155.59 62.5,-165.59 69.5,-165.59"/>
</g>
<!-- A0005 -->
<g id="node3" class="node">
<title>A0005</title>
<ellipse fill="none" stroke="black" cx="66" cy="-52.99" rx="30.94" ry="28.99"/>
<text text-anchor="middle" x="66" y="-56.19" font-family="Times,serif" font-size="14.00">CHR</text>
<text text-anchor="middle" x="66" y="-39.69" font-family="Times,serif" font-size="14.00">a</text>
</g>
<!-- A0001&#45;&gt;A0005 -->
<g id="edge1" class="edge">
<title>A0001&#45;&gt;A0005</title>
<path fill="none" stroke="black" d="M66,-117.81C66,-110.72 66,-102.19 66,-93.7"/>
<polygon fill="black" stroke="black" points="69.5,-93.81 66,-83.81 62.5,-93.81 69.5,-93.81"/>
</g>
</g>
</svg>
