<?xml version="1.0" encoding="UTF-8" standalone="no"?>
<!DOCTYPE svg PUBLIC "-//W3C//DTD SVG 1.1//EN"
 "http://www.w3.org/Graphics/SVG/1.1/DTD/svg11.dtd">
<!-- Generated by graphviz version 11.0.0 (20240428.1522)
 -->
<!-- Title: D Pages: 1 -->
<svg width="131pt" height="532pt"
 viewBox="0.00 0.00 130.75 531.92" xmlns="http://www.w3.org/2000/svg" xmlns:xlink="http://www.w3.org/1999/xlink">
<g id="graph0" class="graph" transform="scale(1 1) rotate(0) translate(4 527.92)">
<title>D</title>
<polygon fill="white" stroke="none" points="-4,4 -4,-527.92 126.75,-527.92 126.75,4 -4,4"/>
<text text-anchor="middle" x="61.37" y="-506.62" font-family="sans-serif" font-size="14.00">program for &quot;(a)&quot;</text>
<!-- I0001 -->
<g id="node1" class="node">
<title>I0001</title>
<polygon fill="#ffffcc" stroke="black" points="115.54,-458 65.5,-483.67 15.46,-458 34.57,-416.47 96.42,-416.47 115.54,-458"/>
<text text-anchor="middle" x="65.5" y="-450.47" font-family="monospace" font-size="14.00">MATCH</text>
<text text-anchor="middle" x="65.5" y="-433.22" font-family="monospace" font-size="14.00">set 1</text>
<text text-anchor="middle" x="11.34" y="-487.62" font-family="monospace" font-size="14.00">1</text>
</g>
<!-- I0002 -->
<g id="node2" class="node">
<title>I0002</title>
<polygon fill="#ffffcc" stroke="black" points="122.75,-347.71 65.5,-373.38 8.25,-347.71 30.12,-306.18 100.88,-306.18 122.75,-347.71"/>
<text text-anchor="middle" x="65.5" y="-340.18" font-family="monospace" font-size="14.00">MATCH</text>
<text text-anchor="middle" x="65.5" y="-322.93" font-family="monospace" font-size="14.00">slot 2</text>
<text text-anchor="middle" x="4.12" y="-377.33" font-family="monospace" font-size="14.00">2</text>
</g>
<!-- I0001&#45;&gt;I0002 -->
<g id="edge1" class="edge">
<title>I0001&#45;&gt;I0002</title>
<path fill="none" stroke="black" d="M65.5,-416.22C65.5,-406.65 65.5,-395.76 65.5,-385.19"/>
<polygon fill="black" stroke="black" points="69,-385.44 65.5,-375.44 62,-385.44 69,-385.44"/>
</g>
<!-- I0003 -->
<g id="node3" class="node">
<title>I0003</title>
<polygon fill="#fbb4ae" stroke="black" points="94.12,-263.09 36.87,-263.09 36.87,-220.59 94.12,-220.59 94.12,-263.09"/>
<text text-anchor="middle" x="65.5" y="-245.79" font-family="monospace" font-size="14.00">RANGE</text>
<text text-anchor="middle" x="65.5" y="-228.54" font-family="monospace" font-size="14.00">a&#45;a</text>
<text text-anchor="middle" x="32.75" y="-267.04" font-family="monospace" font-size="14.00">3</text>
</g>
<!-- I0002&#45;&gt;I0003 -->
<g id="edge2" class="edge">
<title>I0002&#45;&gt;I0003</title>
<path fill="none" stroke="black" d="M65.5,-305.74C65.5,-295.87 65.5,-284.83 65.5,-274.78"/>
<polygon fill="black" stroke="black" points="69,-275.09 65.5,-265.09 62,-275.09 69,-275.09"/>
</g>
<!-- I0004 -->
<g id="node4" class="node">
<title>I0004</title>
<polygon fill="#ffffcc" stroke="black" points="122.75,-158.92 65.5,-184.59 8.25,-158.92 30.12,-117.39 100.88,-117.39 122.75,-158.92"/>
<text text-anchor="middle" x="65.5" y="-151.39" font-family="monospace" font-size="14.00">MATCH</text>
<text text-anchor="middle" x="65.5" y="-134.14" font-family="monospace" font-size="14.00">slot 3</text>
<text text-anchor="middle" x="4.12" y="-188.54" font-family="monospace" font-size="14.00">4</text>
</g>
<!-- I0003&#45;&gt;I0004 -->
<g id="edge3" class="edge">
<title>I0003&#45;&gt;I0004</title>
<path fill="none" stroke="black" d="M65.5,-220.33C65.5,-213.17 65.5,-204.79 65.5,-196.34"/>
<polygon fill="black" stroke="black" points="69,-196.4 65.5,-186.4 62,-196.4 69,-196.4"/>
</g>
<!-- I0005 -->
<g id="node5" class="node">
<title>I0005</title>
<polygon fill="#ffffcc" stroke="black" points="122.75,-48.63 65.5,-74.29 8.25,-48.63 30.12,-7.09 100.88,-7.09 122.75,-48.63"/>
<text text-anchor="middle" x="65.5" y="-41.1" font-family="monospace" font-size="14.00">MATCH</text>
<text text-anchor="middle" x="65.5" y="-23.85" font-family="monospace" font-size="14.00">slot 0</text>
<text text-anchor="middle" x="4.12" y="-78.24" font-family="monospace" font-size="14.00">5</text>
</g>
<!-- I0004&#45;&gt;I0005 -->
<g id="edge4" class="edge">
<title>I0004&#45;&gt;I0005</title>
<path fill="none" stroke="black" d="M65.5,-117.13C65.5,-107.57 65.5,-96.68 65.5,-86.11"/>
<polygon fill="black" stroke="black" points="69,-86.35 65.5,-76.35 62,-86.35 69,-86.35"/>
</g>
</g>
</svg>
