<?xml version="1.0" encoding="UTF-8" standalone="no"?>
<!DOCTYPE svg PUBLIC "-//W3C//DTD SVG 1.1//EN"
 "http://www.w3.org/Graphics/SVG/1.1/DTD/svg11.dtd">
<!-- Generated by graphviz version 11.0.0 (20240428.1522)
 -->
<!-- Title: D Pages: 1 -->
<svg width="232pt" height="604pt"
 viewBox="0.00 0.00 231.70 603.92" xmlns="http://www.w3.org/2000/svg" xmlns:xlink="http://www.w3.org/1999/xlink">
<g id="graph0" class="graph" transform="scale(1 1) rotate(0) translate(4 599.92)">
<title>D</title>
<polygon fill="white" stroke="none" points="-4,4 -4,-599.92 227.7,-599.92 227.7,4 -4,4"/>
<text text-anchor="middle" x="111.85" y="-578.62" font-family="sans-serif" font-size="14.00">program for &quot;(a)&quot;</text>
<!-- I0001 -->
<g id="node1" class="node">
<title>I0001</title>
<polygon fill="#ffffcc" stroke="black" points="216.49,-530 115.97,-555.67 15.46,-530 53.85,-488.47 178.1,-488.47 216.49,-530"/>
<text text-anchor="middle" x="115.97" y="-522.47" font-family="monospace" font-size="14.00">MATCH</text>
<text text-anchor="middle" x="115.97" y="-505.22" font-family="monospace" font-size="14.00"> set 1 begin</text>
<text text-anchor="middle" x="11.34" y="-559.62" font-family="monospace" font-size="14.00">1</text>
</g>
<!-- I0002 -->
<g id="node2" class="node">
<title>I0002</title>
<polygon fill="#ffffcc" stroke="black" points="223.7,-419.71 115.97,-445.38 8.25,-419.71 49.4,-378.18 182.55,-378.18 223.7,-419.71"/>
<text text-anchor="middle" x="115.97" y="-412.18" font-family="monospace" font-size="14.00">MATCH</text>
<text text-anchor="middle" x="115.97" y="-394.93" font-family="monospace" font-size="14.00"> slot 1 begin</text>
<text text-anchor="middle" x="4.12" y="-449.33" font-family="monospace" font-size="14.00">2</text>
</g>
<!-- I0001&#45;&gt;I0002 -->
<g id="edge1" class="edge">
<title>I0001&#45;&gt;I0002</title>
<path fill="none" stroke="black" d="M115.97,-488.22C115.97,-478.56 115.97,-467.55 115.97,-456.89"/>
<polygon fill="black" stroke="black" points="119.47,-457.04 115.97,-447.04 112.47,-457.04 119.47,-457.04"/>
</g>
<!-- I0003 -->
<g id="node3" class="node">
<title>I0003</title>
<polygon fill="#fbb4ae" stroke="black" points="144.6,-335.09 87.35,-335.09 87.35,-292.59 144.6,-292.59 144.6,-335.09"/>
<text text-anchor="middle" x="115.97" y="-317.79" font-family="monospace" font-size="14.00">RANGE</text>
<text text-anchor="middle" x="115.97" y="-300.54" font-family="monospace" font-size="14.00">a&#45;a</text>
<text text-anchor="middle" x="83.22" y="-339.04" font-family="monospace" font-size="14.00">3</text>
</g>
<!-- I0002&#45;&gt;I0003 -->
<g id="edge2" class="edge">
<title>I0002&#45;&gt;I0003</title>
<path fill="none" stroke="black" d="M115.97,-377.74C115.97,-367.87 115.97,-356.83 115.97,-346.78"/>
<polygon fill="black" stroke="black" points="119.47,-347.09 115.97,-337.09 112.47,-347.09 119.47,-347.09"/>
</g>
<!-- I0004 -->
<g id="node4" class="node">
<title>I0004</title>
<polygon fill="#ffffcc" stroke="black" points="209.28,-230.92 115.97,-256.59 22.67,-230.92 58.31,-189.39 173.64,-189.39 209.28,-230.92"/>
<text text-anchor="middle" x="115.97" y="-223.39" font-family="monospace" font-size="14.00">MATCH</text>
<text text-anchor="middle" x="115.97" y="-206.14" font-family="monospace" font-size="14.00"> slot 1 end</text>
<text text-anchor="middle" x="18.55" y="-260.54" font-family="monospace" font-size="14.00">4</text>
</g>
<!-- I0003&#45;&gt;I0004 -->
<g id="edge3" class="edge">
<title>I0003&#45;&gt;I0004</title>
<path fill="none" stroke="black" d="M115.97,-292.33C115.97,-285.17 115.97,-276.79 115.97,-268.34"/>
<polygon fill="black" stroke="black" points="119.47,-268.4 115.97,-258.4 112.47,-268.4 119.47,-268.4"/>
</g>
<!-- I0005 -->
<g id="node5" class="node">
<title>I0005</title>
<polygon fill="#ffffcc" stroke="black" points="202.07,-120.63 115.97,-146.29 29.88,-120.63 62.77,-79.09 169.18,-79.09 202.07,-120.63"/>
<text text-anchor="middle" x="115.97" y="-113.1" font-family="monospace" font-size="14.00">MATCH</text>
<text text-anchor="middle" x="115.97" y="-95.85" font-family="monospace" font-size="14.00"> set 1 end</text>
<text text-anchor="middle" x="25.76" y="-150.24" font-family="monospace" font-size="14.00">5</text>
</g>
<!-- I0004&#45;&gt;I0005 -->
<g id="edge4" class="edge">
<title>I0004&#45;&gt;I0005</title>
<path fill="none" stroke="black" d="M115.97,-189.13C115.97,-179.47 115.97,-168.47 115.97,-157.8"/>
<polygon fill="black" stroke="black" points="119.47,-157.95 115.97,-147.95 112.47,-157.95 119.47,-157.95"/>
</g>
<!-- I0000 -->
<g id="node6" class="node">
<title>I0000</title>
<ellipse fill="none" stroke="black" cx="115.97" cy="-18" rx="40.16" ry="18"/>
<text text-anchor="middle" x="115.97" y="-13.32" font-family="monospace" font-size="14.00">I0000</text>
</g>
<!-- I0005&#45;&gt;I0000 -->
<g id="edge5" class="edge">
<title>I0005&#45;&gt;I0000</title>
<path fill="none" stroke="black" d="M115.97,-78.96C115.97,-68.92 115.97,-57.7 115.97,-47.7"/>
<polygon fill="black" stroke="black" points="119.47,-47.79 115.97,-37.79 112.47,-47.79 119.47,-47.79"/>
</g>
</g>
</svg>
