<?xml version="1.0" encoding="UTF-8" standalone="no"?>
<!DOCTYPE svg PUBLIC "-//W3C//DTD SVG 1.1//EN"
 "http://www.w3.org/Graphics/SVG/1.1/DTD/svg11.dtd">
<!-- Generated by graphviz version 11.0.0 (20240428.1522)
 -->
<!-- Title: D Pages: 1 -->
<svg width="757pt" height="1391pt"
 viewBox="0.00 0.00 757.00 1390.84" xmlns="http://www.w3.org/2000/svg" xmlns:xlink="http://www.w3.org/1999/xlink">
<g id="graph0" class="graph" transform="scale(1 1) rotate(0) translate(4 1386.84)">
<title>D</title>
<polygon fill="white" stroke="none" points="-4,4 -4,-1386.84 753,-1386.84 753,4 -4,4"/>
<text text-anchor="middle" x="374.5" y="-1365.54" font-family="sans-serif" font-size="14.00">program for &quot;[^a&#45;zA&#45;Z]&quot;</text>
<!-- I0001 -->
<g id="node1" class="node">
<title>I0001</title>
<polygon fill="#ffffcc" stroke="black" points="137.04,-1316.92 87,-1342.59 36.96,-1316.92 56.07,-1275.39 117.93,-1275.39 137.04,-1316.92"/>
<text text-anchor="middle" x="87" y="-1309.39" font-family="monospace" font-size="14.00">MATCH</text>
<text text-anchor="middle" x="87" y="-1292.14" font-family="monospace" font-size="14.00">set 1</text>
<text text-anchor="middle" x="32.84" y="-1346.54" font-family="monospace" font-size="14.00">1</text>
</g>
<!-- I0002 -->
<g id="node2" class="node">
<title>I0002</title>
<ellipse fill="#b3cde3" stroke="black" cx="87" cy="-1214.29" rx="40.16" ry="18"/>
<text text-anchor="middle" x="87" y="-1209.62" font-family="monospace" font-size="14.00">SPLIT</text>
<text text-anchor="middle" x="42.72" y="-1236.24" font-family="monospace" font-size="14.00">2</text>
</g>
<!-- I0001&#45;&gt;I0002 -->
<g id="edge1" class="edge">
<title>I0001&#45;&gt;I0002</title>
<path fill="none" stroke="black" d="M87,-1275.25C87,-1265.21 87,-1253.99 87,-1243.99"/>
<polygon fill="black" stroke="black" points="90.5,-1244.08 87,-1234.08 83.5,-1244.08 90.5,-1244.08"/>
</g>
<!-- I0003 -->
<g id="node3" class="node">
<title>I0003</title>
<polygon fill="#fbb4ae" stroke="black" points="73.75,-780.79 8.25,-780.79 8.25,-738.29 73.75,-738.29 73.75,-780.79"/>
<text text-anchor="middle" x="41" y="-763.49" font-family="monospace" font-size="14.00">RANGE</text>
<text text-anchor="middle" x="41" y="-746.24" font-family="monospace" font-size="14.00">\x00&#45;@</text>
<text text-anchor="middle" x="4.12" y="-784.74" font-family="monospace" font-size="14.00">3</text>
</g>
<!-- I0002&#45;&gt;I0003 -->
<g id="edge2" class="edge">
<title>I0002&#45;&gt;I0003</title>
<path fill="none" stroke="black" d="M80.12,-1196.12C70.18,-1169.74 53,-1117.43 53,-1071.29 53,-1071.29 53,-1071.29 53,-915.54 53,-872.7 48.39,-823.4 44.88,-792.12"/>
<polygon fill="black" stroke="black" points="48.4,-792.1 43.78,-782.57 41.45,-792.9 48.4,-792.1"/>
</g>
<!-- I0004 -->
<g id="node4" class="node">
<title>I0004</title>
<ellipse fill="#b3cde3" stroke="black" cx="189" cy="-1142.29" rx="40.16" ry="18"/>
<text text-anchor="middle" x="189" y="-1137.62" font-family="monospace" font-size="14.00">SPLIT</text>
<text text-anchor="middle" x="144.72" y="-1164.24" font-family="monospace" font-size="14.00">4</text>
</g>
<!-- I0002&#45;&gt;I0004 -->
<g id="edge3" class="edge">
<title>I0002&#45;&gt;I0004</title>
<path fill="none" stroke="black" stroke-dasharray="5,2" d="M108.13,-1198.79C122.77,-1188.75 142.47,-1175.23 158.76,-1164.05"/>
<polygon fill="black" stroke="black" points="160.38,-1167.18 166.64,-1158.63 156.42,-1161.41 160.38,-1167.18"/>
</g>
<!-- I0024 -->
<g id="node5" class="node">
<title>I0024</title>
<polygon fill="#ffffcc" stroke="black" points="405.25,-48.63 348,-74.29 290.75,-48.63 312.62,-7.09 383.38,-7.09 405.25,-48.63"/>
<text text-anchor="middle" x="348" y="-41.1" font-family="monospace" font-size="14.00">MATCH</text>
<text text-anchor="middle" x="348" y="-23.85" font-family="monospace" font-size="14.00">slot 0</text>
<text text-anchor="middle" x="282.5" y="-78.24" font-family="monospace" font-size="14.00">36</text>
</g>
<!-- I0003&#45;&gt;I0024 -->
<g id="edge4" class="edge">
<title>I0003&#45;&gt;I0024</title>
<path fill="none" stroke="black" d="M43.6,-738.02C47.13,-708.39 53,-651.86 53,-603.54 53,-603.54 53,-603.54 53,-209.04 53,-162.48 53.94,-142.05 88,-110.29 141.32,-60.58 225.9,-44.64 284.02,-39.79"/>
<polygon fill="black" stroke="black" points="284.05,-43.3 293.77,-39.08 283.54,-36.32 284.05,-43.3"/>
</g>
<!-- I0005 -->
<g id="node6" class="node">
<title>I0005</title>
<polygon fill="#fbb4ae" stroke="black" points="714.62,-152.79 657.38,-152.79 657.38,-110.29 714.62,-110.29 714.62,-152.79"/>
<text text-anchor="middle" x="686" y="-135.49" font-family="monospace" font-size="14.00">RANGE</text>
<text text-anchor="middle" x="686" y="-118.24" font-family="monospace" font-size="14.00">[&#45;`</text>
<text text-anchor="middle" x="653.25" y="-156.74" font-family="monospace" font-size="14.00">5</text>
</g>
<!-- I0004&#45;&gt;I0005 -->
<g id="edge5" class="edge">
<title>I0004&#45;&gt;I0005</title>
<path fill="none" stroke="black" d="M228.82,-1139.55C356.76,-1132.87 749,-1103.64 749,-996.04 749,-996.04 749,-996.04 749,-287.54 749,-241.35 724.69,-192.74 706.27,-162.53"/>
<polygon fill="black" stroke="black" points="709.39,-160.91 701.1,-154.31 703.46,-164.64 709.39,-160.91"/>
</g>
<!-- I0006 -->
<g id="node7" class="node">
<title>I0006</title>
<ellipse fill="#b3cde3" stroke="black" cx="189" cy="-1070.29" rx="40.16" ry="18"/>
<text text-anchor="middle" x="189" y="-1065.62" font-family="monospace" font-size="14.00">SPLIT</text>
<text text-anchor="middle" x="144.72" y="-1092.24" font-family="monospace" font-size="14.00">6</text>
</g>
<!-- I0004&#45;&gt;I0006 -->
<g id="edge6" class="edge">
<title>I0004&#45;&gt;I0006</title>
<path fill="none" stroke="black" stroke-dasharray="5,2" d="M189,-1123.99C189,-1116.7 189,-1108.02 189,-1099.83"/>
<polygon fill="black" stroke="black" points="192.5,-1099.91 189,-1089.91 185.5,-1099.91 192.5,-1099.91"/>
</g>
<!-- I0005&#45;&gt;I0024 -->
<g id="edge7" class="edge">
<title>I0005&#45;&gt;I0024</title>
<path fill="none" stroke="black" d="M656.89,-122.59C602.13,-107.62 482.74,-74.98 409.47,-54.95"/>
<polygon fill="black" stroke="black" points="410.59,-51.63 400.02,-52.37 408.75,-58.38 410.59,-51.63"/>
</g>
<!-- I0007 -->
<g id="node8" class="node">
<title>I0007</title>
<polygon fill="#fbb4ae" stroke="black" points="184.75,-1016.29 119.25,-1016.29 119.25,-973.79 184.75,-973.79 184.75,-1016.29"/>
<text text-anchor="middle" x="152" y="-998.99" font-family="monospace" font-size="14.00">RANGE</text>
<text text-anchor="middle" x="152" y="-981.74" font-family="monospace" font-size="14.00">{&#45;\x7F</text>
<text text-anchor="middle" x="115.12" y="-1020.24" font-family="monospace" font-size="14.00">7</text>
</g>
<!-- I0006&#45;&gt;I0007 -->
<g id="edge8" class="edge">
<title>I0006&#45;&gt;I0007</title>
<path fill="none" stroke="black" d="M180.42,-1052.3C176.59,-1044.73 171.97,-1035.57 167.57,-1026.86"/>
<polygon fill="black" stroke="black" points="170.7,-1025.29 163.06,-1017.94 164.45,-1028.45 170.7,-1025.29"/>
</g>
<!-- I0008 -->
<g id="node9" class="node">
<title>I0008</title>
<ellipse fill="#b3cde3" stroke="black" cx="286" cy="-995.04" rx="40.16" ry="18"/>
<text text-anchor="middle" x="286" y="-990.37" font-family="monospace" font-size="14.00">SPLIT</text>
<text text-anchor="middle" x="241.72" y="-1016.99" font-family="monospace" font-size="14.00">8</text>
</g>
<!-- I0006&#45;&gt;I0008 -->
<g id="edge9" class="edge">
<title>I0006&#45;&gt;I0008</title>
<path fill="none" stroke="black" stroke-dasharray="5,2" d="M208.63,-1054.47C222.6,-1043.92 241.61,-1029.56 257.28,-1017.73"/>
<polygon fill="black" stroke="black" points="258.99,-1020.83 264.86,-1012.01 254.77,-1015.24 258.99,-1020.83"/>
</g>
<!-- I0007&#45;&gt;I0024 -->
<g id="edge10" class="edge">
<title>I0007&#45;&gt;I0024</title>
<path fill="none" stroke="black" d="M140.9,-973.66C126.17,-944.65 102,-889.37 102,-839.04 102,-839.04 102,-839.04 102,-209.04 102,-121 209.6,-74.66 282.48,-53.38"/>
<polygon fill="black" stroke="black" points="283.27,-56.79 291.95,-50.71 281.37,-50.05 283.27,-56.79"/>
</g>
<!-- I0009 -->
<g id="node10" class="node">
<title>I0009</title>
<polygon fill="#fbb4ae" stroke="black" points="627.12,-937.79 536.88,-937.79 536.88,-895.29 627.12,-895.29 627.12,-937.79"/>
<text text-anchor="middle" x="582" y="-920.49" font-family="monospace" font-size="14.00">RANGE</text>
<text text-anchor="middle" x="582" y="-903.24" font-family="monospace" font-size="14.00">\xC1&#45;\xC1</text>
<text text-anchor="middle" x="532.75" y="-941.74" font-family="monospace" font-size="14.00">9</text>
</g>
<!-- I0008&#45;&gt;I0009 -->
<g id="edge11" class="edge">
<title>I0008&#45;&gt;I0009</title>
<path fill="none" stroke="black" d="M320.24,-985.19C370.53,-972.2 464.93,-947.8 525.57,-932.13"/>
<polygon fill="black" stroke="black" points="526.2,-935.58 535.01,-929.69 524.45,-928.8 526.2,-935.58"/>
</g>
<!-- I000B -->
<g id="node11" class="node">
<title>I000B</title>
<ellipse fill="#b3cde3" stroke="black" cx="286" cy="-916.54" rx="40.16" ry="18"/>
<text text-anchor="middle" x="286" y="-911.87" font-family="monospace" font-size="14.00">SPLIT</text>
<text text-anchor="middle" x="237.59" y="-938.49" font-family="monospace" font-size="14.00">11</text>
</g>
<!-- I0008&#45;&gt;I000B -->
<g id="edge12" class="edge">
<title>I0008&#45;&gt;I000B</title>
<path fill="none" stroke="black" stroke-dasharray="5,2" d="M286,-976.68C286,-967.69 286,-956.46 286,-946.22"/>
<polygon fill="black" stroke="black" points="289.5,-946.35 286,-936.35 282.5,-946.35 289.5,-946.35"/>
</g>
<!-- I000A -->
<g id="node12" class="node">
<title>I000A</title>
<polygon fill="#fbb4ae" stroke="black" points="683.12,-231.29 592.88,-231.29 592.88,-188.79 683.12,-188.79 683.12,-231.29"/>
<text text-anchor="middle" x="638" y="-213.99" font-family="monospace" font-size="14.00">RANGE</text>
<text text-anchor="middle" x="638" y="-196.74" font-family="monospace" font-size="14.00">\xBB&#45;\xBF</text>
<text text-anchor="middle" x="584.62" y="-235.24" font-family="monospace" font-size="14.00">10</text>
</g>
<!-- I0009&#45;&gt;I000A -->
<g id="edge13" class="edge">
<title>I0009&#45;&gt;I000A</title>
<path fill="none" stroke="black" d="M615.89,-894.97C654.11,-868.88 711,-820.06 711,-760.54 711,-760.54 711,-760.54 711,-366.04 711,-321.35 712.54,-306.99 692,-267.29 686.83,-257.3 679.32,-247.86 671.54,-239.68"/>
<polygon fill="black" stroke="black" points="674.06,-237.25 664.5,-232.7 669.14,-242.22 674.06,-237.25"/>
</g>
<!-- I000C -->
<g id="node13" class="node">
<title>I000C</title>
<polygon fill="#fbb4ae" stroke="black" points="231.12,-859.29 140.88,-859.29 140.88,-816.79 231.12,-816.79 231.12,-859.29"/>
<text text-anchor="middle" x="186" y="-841.99" font-family="monospace" font-size="14.00">RANGE</text>
<text text-anchor="middle" x="186" y="-824.74" font-family="monospace" font-size="14.00">\xC2&#45;\xDF</text>
<text text-anchor="middle" x="132.62" y="-863.24" font-family="monospace" font-size="14.00">12</text>
</g>
<!-- I000B&#45;&gt;I000C -->
<g id="edge15" class="edge">
<title>I000B&#45;&gt;I000C</title>
<path fill="none" stroke="black" d="M266.24,-900.43C253.61,-890.76 236.85,-877.94 221.92,-866.52"/>
<polygon fill="black" stroke="black" points="224.18,-863.84 214.11,-860.55 219.93,-869.4 224.18,-863.84"/>
</g>
<!-- I000E -->
<g id="node14" class="node">
<title>I000E</title>
<ellipse fill="#b3cde3" stroke="black" cx="329" cy="-838.04" rx="40.16" ry="18"/>
<text text-anchor="middle" x="329" y="-833.37" font-family="monospace" font-size="14.00">SPLIT</text>
<text text-anchor="middle" x="280.59" y="-859.99" font-family="monospace" font-size="14.00">14</text>
</g>
<!-- I000B&#45;&gt;I000E -->
<g id="edge16" class="edge">
<title>I000B&#45;&gt;I000E</title>
<path fill="none" stroke="black" stroke-dasharray="5,2" d="M295.54,-898.56C300.94,-888.96 307.82,-876.73 313.93,-865.85"/>
<polygon fill="black" stroke="black" points="316.89,-867.72 318.74,-857.29 310.79,-864.29 316.89,-867.72"/>
</g>
<!-- I000A&#45;&gt;I0024 -->
<g id="edge14" class="edge">
<title>I000A&#45;&gt;I0024</title>
<path fill="none" stroke="black" d="M603.02,-188.43C550.33,-157.38 450.62,-98.62 392.72,-64.5"/>
<polygon fill="black" stroke="black" points="394.8,-61.66 384.41,-59.6 391.25,-67.69 394.8,-61.66"/>
</g>
<!-- I000D -->
<g id="node15" class="node">
<title>I000D</title>
<polygon fill="#fbb4ae" stroke="black" points="339.12,-152.79 248.88,-152.79 248.88,-110.29 339.12,-110.29 339.12,-152.79"/>
<text text-anchor="middle" x="294" y="-135.49" font-family="monospace" font-size="14.00">RANGE</text>
<text text-anchor="middle" x="294" y="-118.24" font-family="monospace" font-size="14.00">\x80&#45;\xBF</text>
<text text-anchor="middle" x="240.62" y="-156.74" font-family="monospace" font-size="14.00">13</text>
</g>
<!-- I000C&#45;&gt;I000D -->
<g id="edge17" class="edge">
<title>I000C&#45;&gt;I000D</title>
<path fill="none" stroke="black" d="M175.79,-816.56C162.24,-787.43 140,-732.01 140,-682.04 140,-682.04 140,-682.04 140,-287.54 140,-229 195.97,-184.71 240.42,-158.77"/>
<polygon fill="black" stroke="black" points="241.98,-161.91 248.96,-153.94 238.54,-155.81 241.98,-161.91"/>
</g>
<!-- I000F -->
<g id="node16" class="node">
<title>I000F</title>
<polygon fill="#fbb4ae" stroke="black" points="535.12,-780.79 444.88,-780.79 444.88,-738.29 535.12,-738.29 535.12,-780.79"/>
<text text-anchor="middle" x="490" y="-763.49" font-family="monospace" font-size="14.00">RANGE</text>
<text text-anchor="middle" x="490" y="-746.24" font-family="monospace" font-size="14.00">\xE0&#45;\xE0</text>
<text text-anchor="middle" x="436.62" y="-784.74" font-family="monospace" font-size="14.00">15</text>
</g>
<!-- I000E&#45;&gt;I000F -->
<g id="edge19" class="edge">
<title>I000E&#45;&gt;I000F</title>
<path fill="none" stroke="black" d="M355.95,-824.24C377.86,-813.83 409.45,-798.82 436.46,-785.98"/>
<polygon fill="black" stroke="black" points="437.66,-789.29 445.19,-781.83 434.66,-782.96 437.66,-789.29"/>
</g>
<!-- I0013 -->
<g id="node17" class="node">
<title>I0013</title>
<ellipse fill="#b3cde3" stroke="black" cx="329" cy="-759.54" rx="40.16" ry="18"/>
<text text-anchor="middle" x="329" y="-754.87" font-family="monospace" font-size="14.00">SPLIT</text>
<text text-anchor="middle" x="280.59" y="-781.49" font-family="monospace" font-size="14.00">19</text>
</g>
<!-- I000E&#45;&gt;I0013 -->
<g id="edge20" class="edge">
<title>I000E&#45;&gt;I0013</title>
<path fill="none" stroke="black" stroke-dasharray="5,2" d="M329,-819.68C329,-810.69 329,-799.46 329,-789.22"/>
<polygon fill="black" stroke="black" points="332.5,-789.35 329,-779.35 325.5,-789.35 332.5,-789.35"/>
</g>
<!-- I000D&#45;&gt;I0024 -->
<g id="edge18" class="edge">
<title>I000D&#45;&gt;I0024</title>
<path fill="none" stroke="black" d="M305.98,-110.04C311.7,-100.25 318.74,-88.21 325.41,-76.8"/>
<polygon fill="black" stroke="black" points="328.35,-78.71 330.37,-68.31 322.3,-75.18 328.35,-78.71"/>
</g>
<!-- I0010 -->
<g id="node18" class="node">
<title>I0010</title>
<ellipse fill="#b3cde3" stroke="black" cx="596" cy="-367.04" rx="40.16" ry="18"/>
<text text-anchor="middle" x="596" y="-362.37" font-family="monospace" font-size="14.00">SPLIT</text>
<text text-anchor="middle" x="547.59" y="-388.99" font-family="monospace" font-size="14.00">16</text>
</g>
<!-- I000F&#45;&gt;I0010 -->
<g id="edge21" class="edge">
<title>I000F&#45;&gt;I0010</title>
<path fill="none" stroke="black" d="M514.46,-737.94C544.07,-710.55 590,-659.1 590,-603.54 590,-603.54 590,-603.54 590,-523.04 590,-478.82 592.47,-427.56 594.24,-396.48"/>
<polygon fill="black" stroke="black" points="597.72,-396.94 594.81,-386.75 590.73,-396.53 597.72,-396.94"/>
</g>
<!-- I0014 -->
<g id="node21" class="node">
<title>I0014</title>
<polygon fill="#fbb4ae" stroke="black" points="270.12,-702.29 179.88,-702.29 179.88,-659.79 270.12,-659.79 270.12,-702.29"/>
<text text-anchor="middle" x="225" y="-684.99" font-family="monospace" font-size="14.00">RANGE</text>
<text text-anchor="middle" x="225" y="-667.74" font-family="monospace" font-size="14.00">\xE1&#45;\xEF</text>
<text text-anchor="middle" x="171.62" y="-706.24" font-family="monospace" font-size="14.00">20</text>
</g>
<!-- I0013&#45;&gt;I0014 -->
<g id="edge26" class="edge">
<title>I0013&#45;&gt;I0014</title>
<path fill="none" stroke="black" d="M308.95,-743.79C295.63,-733.99 277.74,-720.83 261.89,-709.18"/>
<polygon fill="black" stroke="black" points="264.2,-706.53 254.07,-703.43 260.05,-712.17 264.2,-706.53"/>
</g>
<!-- I0016 -->
<g id="node22" class="node">
<title>I0016</title>
<ellipse fill="#b3cde3" stroke="black" cx="349" cy="-681.04" rx="40.16" ry="18"/>
<text text-anchor="middle" x="349" y="-676.37" font-family="monospace" font-size="14.00">SPLIT</text>
<text text-anchor="middle" x="300.59" y="-702.99" font-family="monospace" font-size="14.00">22</text>
</g>
<!-- I0013&#45;&gt;I0016 -->
<g id="edge27" class="edge">
<title>I0013&#45;&gt;I0016</title>
<path fill="none" stroke="black" stroke-dasharray="5,2" d="M333.54,-741.18C335.92,-732.09 338.89,-720.72 341.59,-710.38"/>
<polygon fill="black" stroke="black" points="344.95,-711.36 344.1,-700.8 338.18,-709.59 344.95,-711.36"/>
</g>
<!-- I0011 -->
<g id="node19" class="node">
<title>I0011</title>
<polygon fill="#fbb4ae" stroke="black" points="683.12,-309.79 592.88,-309.79 592.88,-267.29 683.12,-267.29 683.12,-309.79"/>
<text text-anchor="middle" x="638" y="-292.49" font-family="monospace" font-size="14.00">RANGE</text>
<text text-anchor="middle" x="638" y="-275.24" font-family="monospace" font-size="14.00">\x81&#45;\x81</text>
<text text-anchor="middle" x="584.62" y="-313.74" font-family="monospace" font-size="14.00">17</text>
</g>
<!-- I0010&#45;&gt;I0011 -->
<g id="edge22" class="edge">
<title>I0010&#45;&gt;I0011</title>
<path fill="none" stroke="black" d="M605.32,-349.06C609.98,-340.57 615.77,-330.02 621.18,-320.18"/>
<polygon fill="black" stroke="black" points="624.14,-322.07 625.88,-311.62 618,-318.7 624.14,-322.07"/>
</g>
<!-- I0012 -->
<g id="node20" class="node">
<title>I0012</title>
<polygon fill="#fbb4ae" stroke="black" points="575.12,-231.29 484.88,-231.29 484.88,-188.79 575.12,-188.79 575.12,-231.29"/>
<text text-anchor="middle" x="530" y="-213.99" font-family="monospace" font-size="14.00">RANGE</text>
<text text-anchor="middle" x="530" y="-196.74" font-family="monospace" font-size="14.00">\x82&#45;\xBF</text>
<text text-anchor="middle" x="476.62" y="-235.24" font-family="monospace" font-size="14.00">18</text>
</g>
<!-- I0010&#45;&gt;I0012 -->
<g id="edge23" class="edge">
<title>I0010&#45;&gt;I0012</title>
<path fill="none" stroke="black" stroke-dasharray="5,2" d="M588.68,-348.86C577.71,-323.09 556.81,-274.01 543.15,-241.92"/>
<polygon fill="black" stroke="black" points="546.54,-240.96 539.41,-233.13 540.1,-243.71 546.54,-240.96"/>
</g>
<!-- I0011&#45;&gt;I000A -->
<g id="edge24" class="edge">
<title>I0011&#45;&gt;I000A</title>
<path fill="none" stroke="black" d="M638,-267.04C638,-259.67 638,-251.16 638,-243.04"/>
<polygon fill="black" stroke="black" points="641.5,-243.11 638,-233.11 634.5,-243.11 641.5,-243.11"/>
</g>
<!-- I0012&#45;&gt;I000D -->
<g id="edge25" class="edge">
<title>I0012&#45;&gt;I000D</title>
<path fill="none" stroke="black" d="M484.4,-191.73C481.57,-190.72 478.75,-189.73 476,-188.79 434.17,-174.5 386.4,-159.8 350.3,-149.01"/>
<polygon fill="black" stroke="black" points="351.52,-145.72 340.94,-146.22 349.53,-152.43 351.52,-145.72"/>
</g>
<!-- I0015 -->
<g id="node23" class="node">
<title>I0015</title>
<polygon fill="#fbb4ae" stroke="black" points="277.12,-388.29 186.88,-388.29 186.88,-345.79 277.12,-345.79 277.12,-388.29"/>
<text text-anchor="middle" x="232" y="-370.99" font-family="monospace" font-size="14.00">RANGE</text>
<text text-anchor="middle" x="232" y="-353.74" font-family="monospace" font-size="14.00">\x80&#45;\xBF</text>
<text text-anchor="middle" x="178.62" y="-392.24" font-family="monospace" font-size="14.00">21</text>
</g>
<!-- I0014&#45;&gt;I0015 -->
<g id="edge28" class="edge">
<title>I0014&#45;&gt;I0015</title>
<path fill="none" stroke="black" d="M217.49,-659.37C202.59,-615.28 172.77,-509.11 197,-424.29 199.61,-415.17 204.16,-406.09 209.15,-397.97"/>
<polygon fill="black" stroke="black" points="211.91,-400.14 214.5,-389.86 206.07,-396.28 211.91,-400.14"/>
</g>
<!-- I0017 -->
<g id="node24" class="node">
<title>I0017</title>
<polygon fill="#fbb4ae" stroke="black" points="505.12,-623.79 414.88,-623.79 414.88,-581.29 505.12,-581.29 505.12,-623.79"/>
<text text-anchor="middle" x="460" y="-606.49" font-family="monospace" font-size="14.00">RANGE</text>
<text text-anchor="middle" x="460" y="-589.24" font-family="monospace" font-size="14.00">\xF0&#45;\xF0</text>
<text text-anchor="middle" x="406.62" y="-627.74" font-family="monospace" font-size="14.00">23</text>
</g>
<!-- I0016&#45;&gt;I0017 -->
<g id="edge30" class="edge">
<title>I0016&#45;&gt;I0017</title>
<path fill="none" stroke="black" d="M370.14,-665.47C384.47,-655.6 403.84,-642.25 420.92,-630.47"/>
<polygon fill="black" stroke="black" points="422.64,-633.54 428.89,-624.98 418.67,-627.78 422.64,-633.54"/>
</g>
<!-- I001F -->
<g id="node25" class="node">
<title>I001F</title>
<ellipse fill="#b3cde3" stroke="black" cx="349" cy="-602.54" rx="40.16" ry="18"/>
<text text-anchor="middle" x="349" y="-597.87" font-family="monospace" font-size="14.00">SPLIT</text>
<text text-anchor="middle" x="300.59" y="-624.49" font-family="monospace" font-size="14.00">31</text>
</g>
<!-- I0016&#45;&gt;I001F -->
<g id="edge31" class="edge">
<title>I0016&#45;&gt;I001F</title>
<path fill="none" stroke="black" stroke-dasharray="5,2" d="M349,-662.68C349,-653.69 349,-642.46 349,-632.22"/>
<polygon fill="black" stroke="black" points="352.5,-632.35 349,-622.35 345.5,-632.35 352.5,-632.35"/>
</g>
<!-- I0015&#45;&gt;I000D -->
<g id="edge29" class="edge">
<title>I0015&#45;&gt;I000D</title>
<path fill="none" stroke="black" d="M224.62,-345.37C213.63,-310.92 196.8,-240.46 222,-188.79 227.48,-177.55 236.42,-167.9 246.16,-159.92"/>
<polygon fill="black" stroke="black" points="248.17,-162.79 254.05,-153.98 243.96,-157.2 248.17,-162.79"/>
</g>
<!-- I0018 -->
<g id="node26" class="node">
<title>I0018</title>
<ellipse fill="#b3cde3" stroke="black" cx="467" cy="-524.04" rx="40.16" ry="18"/>
<text text-anchor="middle" x="467" y="-519.37" font-family="monospace" font-size="14.00">SPLIT</text>
<text text-anchor="middle" x="418.59" y="-545.99" font-family="monospace" font-size="14.00">24</text>
</g>
<!-- I0017&#45;&gt;I0018 -->
<g id="edge32" class="edge">
<title>I0017&#45;&gt;I0018</title>
<path fill="none" stroke="black" d="M461.88,-581.04C462.64,-572.67 463.54,-562.84 464.37,-553.78"/>
<polygon fill="black" stroke="black" points="467.84,-554.27 465.27,-543.99 460.87,-553.63 467.84,-554.27"/>
</g>
<!-- I0020 -->
<g id="node33" class="node">
<title>I0020</title>
<polygon fill="#fbb4ae" stroke="black" points="404.12,-545.29 313.88,-545.29 313.88,-502.79 404.12,-502.79 404.12,-545.29"/>
<text text-anchor="middle" x="359" y="-527.99" font-family="monospace" font-size="14.00">RANGE</text>
<text text-anchor="middle" x="359" y="-510.74" font-family="monospace" font-size="14.00">\xF1&#45;\xF3</text>
<text text-anchor="middle" x="305.62" y="-549.24" font-family="monospace" font-size="14.00">32</text>
</g>
<!-- I001F&#45;&gt;I0020 -->
<g id="edge43" class="edge">
<title>I001F&#45;&gt;I0020</title>
<path fill="none" stroke="black" d="M351.27,-584.18C352.32,-576.12 353.61,-566.28 354.83,-556.95"/>
<polygon fill="black" stroke="black" points="358.29,-557.46 356.12,-547.09 351.35,-556.55 358.29,-557.46"/>
</g>
<!-- I0022 -->
<g id="node34" class="node">
<title>I0022</title>
<polygon fill="#fbb4ae" stroke="black" points="296.12,-545.29 205.88,-545.29 205.88,-502.79 296.12,-502.79 296.12,-545.29"/>
<text text-anchor="middle" x="251" y="-527.99" font-family="monospace" font-size="14.00">RANGE</text>
<text text-anchor="middle" x="251" y="-510.74" font-family="monospace" font-size="14.00">\xF4&#45;\xF4</text>
<text text-anchor="middle" x="197.62" y="-549.24" font-family="monospace" font-size="14.00">34</text>
</g>
<!-- I001F&#45;&gt;I0022 -->
<g id="edge44" class="edge">
<title>I001F&#45;&gt;I0022</title>
<path fill="none" stroke="black" stroke-dasharray="5,2" d="M329.64,-586.43C317.26,-576.76 300.84,-563.94 286.2,-552.52"/>
<polygon fill="black" stroke="black" points="288.6,-549.95 278.56,-546.56 284.29,-555.47 288.6,-549.95"/>
</g>
<!-- I0019 -->
<g id="node27" class="node">
<title>I0019</title>
<polygon fill="#fbb4ae" stroke="black" points="512.12,-466.79 421.88,-466.79 421.88,-424.29 512.12,-424.29 512.12,-466.79"/>
<text text-anchor="middle" x="467" y="-449.49" font-family="monospace" font-size="14.00">RANGE</text>
<text text-anchor="middle" x="467" y="-432.24" font-family="monospace" font-size="14.00">\x80&#45;\x80</text>
<text text-anchor="middle" x="413.62" y="-470.74" font-family="monospace" font-size="14.00">25</text>
</g>
<!-- I0018&#45;&gt;I0019 -->
<g id="edge33" class="edge">
<title>I0018&#45;&gt;I0019</title>
<path fill="none" stroke="black" d="M467,-505.68C467,-497.62 467,-487.78 467,-478.45"/>
<polygon fill="black" stroke="black" points="470.5,-478.6 467,-468.6 463.5,-478.6 470.5,-478.6"/>
</g>
<!-- I001E -->
<g id="node28" class="node">
<title>I001E</title>
<polygon fill="#fbb4ae" stroke="black" points="467.12,-231.29 376.88,-231.29 376.88,-188.79 467.12,-188.79 467.12,-231.29"/>
<text text-anchor="middle" x="422" y="-213.99" font-family="monospace" font-size="14.00">RANGE</text>
<text text-anchor="middle" x="422" y="-196.74" font-family="monospace" font-size="14.00">\x81&#45;\xBF</text>
<text text-anchor="middle" x="368.62" y="-235.24" font-family="monospace" font-size="14.00">30</text>
</g>
<!-- I0018&#45;&gt;I001E -->
<g id="edge34" class="edge">
<title>I0018&#45;&gt;I001E</title>
<path fill="none" stroke="black" stroke-dasharray="5,2" d="M487.49,-508.36C499.75,-498.24 514.23,-483.62 521,-466.79 528.05,-449.27 522.43,-443.13 521,-424.29 518.33,-389.1 529.7,-374.38 509,-345.79 488.25,-317.13 458.87,-338.36 438,-309.79 424.04,-290.69 420.41,-263.94 420.06,-243.11"/>
<polygon fill="black" stroke="black" points="423.56,-243.17 420.17,-233.14 416.56,-243.1 423.56,-243.17"/>
</g>
<!-- I001A -->
<g id="node29" class="node">
<title>I001A</title>
<ellipse fill="#b3cde3" stroke="black" cx="460" cy="-367.04" rx="40.16" ry="18"/>
<text text-anchor="middle" x="460" y="-362.37" font-family="monospace" font-size="14.00">SPLIT</text>
<text text-anchor="middle" x="411.59" y="-388.99" font-family="monospace" font-size="14.00">26</text>
</g>
<!-- I0019&#45;&gt;I001A -->
<g id="edge35" class="edge">
<title>I0019&#45;&gt;I001A</title>
<path fill="none" stroke="black" d="M465.12,-424.04C464.36,-415.67 463.46,-405.84 462.63,-396.78"/>
<polygon fill="black" stroke="black" points="466.13,-396.63 461.73,-386.99 459.16,-397.27 466.13,-396.63"/>
</g>
<!-- I001E&#45;&gt;I0024 -->
<g id="edge42" class="edge">
<title>I001E&#45;&gt;I0024</title>
<path fill="none" stroke="black" d="M413.07,-188.43C401.37,-161.4 380.57,-113.36 365.63,-78.87"/>
<polygon fill="black" stroke="black" points="368.99,-77.81 361.8,-70.03 362.57,-80.59 368.99,-77.81"/>
</g>
<!-- I001B -->
<g id="node30" class="node">
<title>I001B</title>
<polygon fill="#fbb4ae" stroke="black" points="537.12,-309.79 446.88,-309.79 446.88,-267.29 537.12,-267.29 537.12,-309.79"/>
<text text-anchor="middle" x="492" y="-292.49" font-family="monospace" font-size="14.00">RANGE</text>
<text text-anchor="middle" x="492" y="-275.24" font-family="monospace" font-size="14.00">\x81&#45;\x81</text>
<text text-anchor="middle" x="438.62" y="-313.74" font-family="monospace" font-size="14.00">27</text>
</g>
<!-- I001A&#45;&gt;I001B -->
<g id="edge36" class="edge">
<title>I001A&#45;&gt;I001B</title>
<path fill="none" stroke="black" d="M467.1,-349.06C470.58,-340.75 474.88,-330.47 478.92,-320.8"/>
<polygon fill="black" stroke="black" points="482.11,-322.26 482.74,-311.69 475.65,-319.56 482.11,-322.26"/>
</g>
<!-- I001C -->
<g id="node31" class="node">
<title>I001C</title>
<ellipse fill="#b3cde3" stroke="black" cx="349" cy="-288.54" rx="40.16" ry="18"/>
<text text-anchor="middle" x="349" y="-283.87" font-family="monospace" font-size="14.00">SPLIT</text>
<text text-anchor="middle" x="300.59" y="-310.49" font-family="monospace" font-size="14.00">28</text>
</g>
<!-- I001A&#45;&gt;I001C -->
<g id="edge37" class="edge">
<title>I001A&#45;&gt;I001C</title>
<path fill="none" stroke="black" stroke-dasharray="5,2" d="M438.86,-351.47C422.04,-339.88 398.28,-323.51 379.42,-310.51"/>
<polygon fill="black" stroke="black" points="381.53,-307.71 371.31,-304.92 377.55,-313.47 381.53,-307.71"/>
</g>
<!-- I001B&#45;&gt;I000A -->
<g id="edge38" class="edge">
<title>I001B&#45;&gt;I000A</title>
<path fill="none" stroke="black" d="M531.51,-266.84C549.04,-257.66 569.86,-246.75 588.42,-237.02"/>
<polygon fill="black" stroke="black" points="589.88,-240.21 597.12,-232.46 586.64,-234 589.88,-240.21"/>
</g>
<!-- I001C&#45;&gt;I000D -->
<g id="edge40" class="edge">
<title>I001C&#45;&gt;I000D</title>
<path fill="none" stroke="black" stroke-dasharray="5,2" d="M347.66,-270.22C345.66,-250.05 340.87,-216.03 330,-188.79 326.43,-179.84 321.37,-170.76 316.18,-162.59"/>
<polygon fill="black" stroke="black" points="319.17,-160.77 310.71,-154.4 313.35,-164.66 319.17,-160.77"/>
</g>
<!-- I001D -->
<g id="node32" class="node">
<title>I001D</title>
<polygon fill="#fbb4ae" stroke="black" points="321.12,-231.29 230.88,-231.29 230.88,-188.79 321.12,-188.79 321.12,-231.29"/>
<text text-anchor="middle" x="276" y="-213.99" font-family="monospace" font-size="14.00">RANGE</text>
<text text-anchor="middle" x="276" y="-196.74" font-family="monospace" font-size="14.00">\x82&#45;\xBF</text>
<text text-anchor="middle" x="222.62" y="-235.24" font-family="monospace" font-size="14.00">29</text>
</g>
<!-- I001C&#45;&gt;I001D -->
<g id="edge39" class="edge">
<title>I001C&#45;&gt;I001D</title>
<path fill="none" stroke="black" d="M333.87,-271.69C325.02,-262.42 313.58,-250.42 303.21,-239.56"/>
<polygon fill="black" stroke="black" points="306.03,-237.44 296.59,-232.62 300.97,-242.28 306.03,-237.44"/>
</g>
<!-- I001D&#45;&gt;I000D -->
<g id="edge41" class="edge">
<title>I001D&#45;&gt;I000D</title>
<path fill="none" stroke="black" d="M280.82,-188.54C282.58,-181.08 284.61,-172.46 286.54,-164.26"/>
<polygon fill="black" stroke="black" points="289.93,-165.11 288.82,-154.57 283.12,-163.51 289.93,-165.11"/>
</g>
<!-- I0021 -->
<g id="node35" class="node">
<title>I0021</title>
<polygon fill="#fbb4ae" stroke="black" points="404.12,-466.79 313.88,-466.79 313.88,-424.29 404.12,-424.29 404.12,-466.79"/>
<text text-anchor="middle" x="359" y="-449.49" font-family="monospace" font-size="14.00">RANGE</text>
<text text-anchor="middle" x="359" y="-432.24" font-family="monospace" font-size="14.00">\x80&#45;\xBF</text>
<text text-anchor="middle" x="305.62" y="-470.74" font-family="monospace" font-size="14.00">33</text>
</g>
<!-- I0020&#45;&gt;I0021 -->
<g id="edge45" class="edge">
<title>I0020&#45;&gt;I0021</title>
<path fill="none" stroke="black" d="M359,-502.54C359,-495.17 359,-486.66 359,-478.54"/>
<polygon fill="black" stroke="black" points="362.5,-478.61 359,-468.61 355.5,-478.61 362.5,-478.61"/>
</g>
<!-- I0023 -->
<g id="node36" class="node">
<title>I0023</title>
<polygon fill="#fbb4ae" stroke="black" points="296.12,-466.79 205.88,-466.79 205.88,-424.29 296.12,-424.29 296.12,-466.79"/>
<text text-anchor="middle" x="251" y="-449.49" font-family="monospace" font-size="14.00">RANGE</text>
<text text-anchor="middle" x="251" y="-432.24" font-family="monospace" font-size="14.00">\x80&#45;\x8F</text>
<text text-anchor="middle" x="197.62" y="-470.74" font-family="monospace" font-size="14.00">35</text>
</g>
<!-- I0022&#45;&gt;I0023 -->
<g id="edge47" class="edge">
<title>I0022&#45;&gt;I0023</title>
<path fill="none" stroke="black" d="M251,-502.54C251,-495.17 251,-486.66 251,-478.54"/>
<polygon fill="black" stroke="black" points="254.5,-478.61 251,-468.61 247.5,-478.61 254.5,-478.61"/>
</g>
<!-- I0021&#45;&gt;I0015 -->
<g id="edge46" class="edge">
<title>I0021&#45;&gt;I0015</title>
<path fill="none" stroke="black" d="M324.63,-423.84C309.67,-414.83 291.95,-404.15 276.03,-394.57"/>
<polygon fill="black" stroke="black" points="278.06,-391.7 267.69,-389.54 274.45,-397.7 278.06,-391.7"/>
</g>
<!-- I0023&#45;&gt;I0015 -->
<g id="edge48" class="edge">
<title>I0023&#45;&gt;I0015</title>
<path fill="none" stroke="black" d="M245.91,-424.04C244.06,-416.58 241.92,-407.96 239.88,-399.76"/>
<polygon fill="black" stroke="black" points="243.28,-398.93 237.47,-390.07 236.48,-400.62 243.28,-398.93"/>
</g>
</g>
</svg>
