<?xml version="1.0" encoding="UTF-8" standalone="no"?>
<!DOCTYPE svg PUBLIC "-//W3C//DTD SVG 1.1//EN"
 "http://www.w3.org/Graphics/SVG/1.1/DTD/svg11.dtd">
<!-- Generated by graphviz version 11.0.0 (20240428.1522)
 -->
<!-- Title: D Pages: 1 -->
<svg width="779pt" height="1463pt"
 viewBox="0.00 0.00 778.76 1462.84" xmlns="http://www.w3.org/2000/svg" xmlns:xlink="http://www.w3.org/1999/xlink">
<g id="graph0" class="graph" transform="scale(1 1) rotate(0) translate(4 1458.84)">
<title>D</title>
<polygon fill="white" stroke="none" points="-4,4 -4,-1458.84 774.76,-1458.84 774.76,4 -4,4"/>
<text text-anchor="middle" x="385.38" y="-1437.54" font-family="sans-serif" font-size="14.00">program for &quot;[^a&#45;zA&#45;Z]&quot;</text>
<!-- I0001 -->
<g id="node1" class="node">
<title>I0001</title>
<polygon fill="#ffffcc" stroke="black" points="209.28,-1388.92 108.76,-1414.59 8.25,-1388.92 46.64,-1347.39 170.88,-1347.39 209.28,-1388.92"/>
<text text-anchor="middle" x="108.76" y="-1381.39" font-family="monospace" font-size="14.00">MATCH</text>
<text text-anchor="middle" x="108.76" y="-1364.14" font-family="monospace" font-size="14.00"> set 1 begin</text>
<text text-anchor="middle" x="4.12" y="-1418.54" font-family="monospace" font-size="14.00">1</text>
</g>
<!-- I0002 -->
<g id="node2" class="node">
<title>I0002</title>
<ellipse fill="#b3cde3" stroke="black" cx="108.76" cy="-1286.29" rx="40.16" ry="18"/>
<text text-anchor="middle" x="108.76" y="-1281.62" font-family="monospace" font-size="14.00">SPLIT</text>
<text text-anchor="middle" x="64.48" y="-1308.24" font-family="monospace" font-size="14.00">2</text>
</g>
<!-- I0001&#45;&gt;I0002 -->
<g id="edge1" class="edge">
<title>I0001&#45;&gt;I0002</title>
<path fill="none" stroke="black" d="M108.76,-1347.25C108.76,-1337.21 108.76,-1325.99 108.76,-1315.99"/>
<polygon fill="black" stroke="black" points="112.26,-1316.08 108.76,-1306.08 105.26,-1316.08 112.26,-1316.08"/>
</g>
<!-- I0003 -->
<g id="node3" class="node">
<title>I0003</title>
<polygon fill="#fbb4ae" stroke="black" points="95.51,-852.79 30.01,-852.79 30.01,-810.29 95.51,-810.29 95.51,-852.79"/>
<text text-anchor="middle" x="62.76" y="-835.49" font-family="monospace" font-size="14.00">RANGE</text>
<text text-anchor="middle" x="62.76" y="-818.24" font-family="monospace" font-size="14.00">\x00&#45;@</text>
<text text-anchor="middle" x="25.89" y="-856.74" font-family="monospace" font-size="14.00">3</text>
</g>
<!-- I0002&#45;&gt;I0003 -->
<g id="edge2" class="edge">
<title>I0002&#45;&gt;I0003</title>
<path fill="none" stroke="black" d="M101.88,-1268.12C91.95,-1241.74 74.76,-1189.43 74.76,-1143.29 74.76,-1143.29 74.76,-1143.29 74.76,-987.54 74.76,-944.7 70.15,-895.4 66.64,-864.12"/>
<polygon fill="black" stroke="black" points="70.17,-864.1 65.54,-854.57 63.21,-864.9 70.17,-864.1"/>
</g>
<!-- I0004 -->
<g id="node4" class="node">
<title>I0004</title>
<ellipse fill="#b3cde3" stroke="black" cx="210.76" cy="-1214.29" rx="40.16" ry="18"/>
<text text-anchor="middle" x="210.76" y="-1209.62" font-family="monospace" font-size="14.00">SPLIT</text>
<text text-anchor="middle" x="166.48" y="-1236.24" font-family="monospace" font-size="14.00">4</text>
</g>
<!-- I0002&#45;&gt;I0004 -->
<g id="edge3" class="edge">
<title>I0002&#45;&gt;I0004</title>
<path fill="none" stroke="black" stroke-dasharray="5,2" d="M129.9,-1270.79C144.53,-1260.75 164.23,-1247.23 180.52,-1236.05"/>
<polygon fill="black" stroke="black" points="182.14,-1239.18 188.41,-1230.63 178.18,-1233.41 182.14,-1239.18"/>
</g>
<!-- I0024 -->
<g id="node5" class="node">
<title>I0024</title>
<polygon fill="#ffffcc" stroke="black" points="455.86,-120.63 369.76,-146.29 283.67,-120.63 316.56,-79.09 422.97,-79.09 455.86,-120.63"/>
<text text-anchor="middle" x="369.76" y="-113.1" font-family="monospace" font-size="14.00">MATCH</text>
<text text-anchor="middle" x="369.76" y="-95.85" font-family="monospace" font-size="14.00"> set 1 end</text>
<text text-anchor="middle" x="275.42" y="-150.24" font-family="monospace" font-size="14.00">36</text>
</g>
<!-- I0003&#45;&gt;I0024 -->
<g id="edge4" class="edge">
<title>I0003&#45;&gt;I0024</title>
<path fill="none" stroke="black" d="M65.37,-810.02C68.9,-780.39 74.76,-723.86 74.76,-675.54 74.76,-675.54 74.76,-675.54 74.76,-281.04 74.76,-234.48 75.71,-214.05 109.76,-182.29 154.96,-140.15 222.61,-122.28 277.58,-114.86"/>
<polygon fill="black" stroke="black" points="277.75,-118.37 287.24,-113.66 276.89,-111.42 277.75,-118.37"/>
</g>
<!-- I0005 -->
<g id="node6" class="node">
<title>I0005</title>
<polygon fill="#fbb4ae" stroke="black" points="736.39,-224.79 679.14,-224.79 679.14,-182.29 736.39,-182.29 736.39,-224.79"/>
<text text-anchor="middle" x="707.76" y="-207.49" font-family="monospace" font-size="14.00">RANGE</text>
<text text-anchor="middle" x="707.76" y="-190.24" font-family="monospace" font-size="14.00">[&#45;`</text>
<text text-anchor="middle" x="675.01" y="-228.74" font-family="monospace" font-size="14.00">5</text>
</g>
<!-- I0004&#45;&gt;I0005 -->
<g id="edge5" class="edge">
<title>I0004&#45;&gt;I0005</title>
<path fill="none" stroke="black" d="M250.59,-1211.55C378.53,-1204.87 770.76,-1175.64 770.76,-1068.04 770.76,-1068.04 770.76,-1068.04 770.76,-359.54 770.76,-313.35 746.45,-264.74 728.04,-234.53"/>
<polygon fill="black" stroke="black" points="731.15,-232.91 722.86,-226.31 725.22,-236.64 731.15,-232.91"/>
</g>
<!-- I0006 -->
<g id="node7" class="node">
<title>I0006</title>
<ellipse fill="#b3cde3" stroke="black" cx="210.76" cy="-1142.29" rx="40.16" ry="18"/>
<text text-anchor="middle" x="210.76" y="-1137.62" font-family="monospace" font-size="14.00">SPLIT</text>
<text text-anchor="middle" x="166.48" y="-1164.24" font-family="monospace" font-size="14.00">6</text>
</g>
<!-- I0004&#45;&gt;I0006 -->
<g id="edge6" class="edge">
<title>I0004&#45;&gt;I0006</title>
<path fill="none" stroke="black" stroke-dasharray="5,2" d="M210.76,-1195.99C210.76,-1188.7 210.76,-1180.02 210.76,-1171.83"/>
<polygon fill="black" stroke="black" points="214.26,-1171.91 210.76,-1161.91 207.26,-1171.91 214.26,-1171.91"/>
</g>
<!-- I0000 -->
<g id="node37" class="node">
<title>I0000</title>
<ellipse fill="none" stroke="black" cx="369.76" cy="-18" rx="40.16" ry="18"/>
<text text-anchor="middle" x="369.76" y="-13.32" font-family="monospace" font-size="14.00">I0000</text>
</g>
<!-- I0024&#45;&gt;I0000 -->
<g id="edge49" class="edge">
<title>I0024&#45;&gt;I0000</title>
<path fill="none" stroke="black" d="M369.76,-78.96C369.76,-68.92 369.76,-57.7 369.76,-47.7"/>
<polygon fill="black" stroke="black" points="373.26,-47.79 369.76,-37.79 366.26,-47.79 373.26,-47.79"/>
</g>
<!-- I0005&#45;&gt;I0024 -->
<g id="edge7" class="edge">
<title>I0005&#45;&gt;I0024</title>
<path fill="none" stroke="black" d="M678.65,-194.59C627.17,-180.51 518.55,-150.82 444.85,-130.67"/>
<polygon fill="black" stroke="black" points="445.82,-127.31 435.25,-128.05 443.97,-134.06 445.82,-127.31"/>
</g>
<!-- I0007 -->
<g id="node8" class="node">
<title>I0007</title>
<polygon fill="#fbb4ae" stroke="black" points="206.51,-1088.29 141.01,-1088.29 141.01,-1045.79 206.51,-1045.79 206.51,-1088.29"/>
<text text-anchor="middle" x="173.76" y="-1070.99" font-family="monospace" font-size="14.00">RANGE</text>
<text text-anchor="middle" x="173.76" y="-1053.74" font-family="monospace" font-size="14.00">{&#45;\x7F</text>
<text text-anchor="middle" x="136.89" y="-1092.24" font-family="monospace" font-size="14.00">7</text>
</g>
<!-- I0006&#45;&gt;I0007 -->
<g id="edge8" class="edge">
<title>I0006&#45;&gt;I0007</title>
<path fill="none" stroke="black" d="M202.18,-1124.3C198.36,-1116.73 193.73,-1107.57 189.33,-1098.86"/>
<polygon fill="black" stroke="black" points="192.46,-1097.29 184.83,-1089.94 186.21,-1100.45 192.46,-1097.29"/>
</g>
<!-- I0008 -->
<g id="node9" class="node">
<title>I0008</title>
<ellipse fill="#b3cde3" stroke="black" cx="307.76" cy="-1067.04" rx="40.16" ry="18"/>
<text text-anchor="middle" x="307.76" y="-1062.37" font-family="monospace" font-size="14.00">SPLIT</text>
<text text-anchor="middle" x="263.48" y="-1088.99" font-family="monospace" font-size="14.00">8</text>
</g>
<!-- I0006&#45;&gt;I0008 -->
<g id="edge9" class="edge">
<title>I0006&#45;&gt;I0008</title>
<path fill="none" stroke="black" stroke-dasharray="5,2" d="M230.39,-1126.47C244.37,-1115.92 263.37,-1101.56 279.05,-1089.73"/>
<polygon fill="black" stroke="black" points="280.75,-1092.83 286.62,-1084.01 276.53,-1087.24 280.75,-1092.83"/>
</g>
<!-- I0007&#45;&gt;I0024 -->
<g id="edge10" class="edge">
<title>I0007&#45;&gt;I0024</title>
<path fill="none" stroke="black" d="M162.67,-1045.66C147.94,-1016.65 123.76,-961.37 123.76,-911.04 123.76,-911.04 123.76,-911.04 123.76,-281.04 123.76,-198.44 218.48,-152.55 290.36,-129.61"/>
<polygon fill="black" stroke="black" points="291.27,-133 299.79,-126.71 289.21,-126.31 291.27,-133"/>
</g>
<!-- I0009 -->
<g id="node10" class="node">
<title>I0009</title>
<polygon fill="#fbb4ae" stroke="black" points="648.89,-1009.79 558.64,-1009.79 558.64,-967.29 648.89,-967.29 648.89,-1009.79"/>
<text text-anchor="middle" x="603.76" y="-992.49" font-family="monospace" font-size="14.00">RANGE</text>
<text text-anchor="middle" x="603.76" y="-975.24" font-family="monospace" font-size="14.00">\xC1&#45;\xC1</text>
<text text-anchor="middle" x="554.51" y="-1013.74" font-family="monospace" font-size="14.00">9</text>
</g>
<!-- I0008&#45;&gt;I0009 -->
<g id="edge11" class="edge">
<title>I0008&#45;&gt;I0009</title>
<path fill="none" stroke="black" d="M342.01,-1057.19C392.29,-1044.2 486.7,-1019.8 547.33,-1004.13"/>
<polygon fill="black" stroke="black" points="547.97,-1007.58 556.77,-1001.69 546.22,-1000.8 547.97,-1007.58"/>
</g>
<!-- I000B -->
<g id="node11" class="node">
<title>I000B</title>
<ellipse fill="#b3cde3" stroke="black" cx="307.76" cy="-988.54" rx="40.16" ry="18"/>
<text text-anchor="middle" x="307.76" y="-983.87" font-family="monospace" font-size="14.00">SPLIT</text>
<text text-anchor="middle" x="259.35" y="-1010.49" font-family="monospace" font-size="14.00">11</text>
</g>
<!-- I0008&#45;&gt;I000B -->
<g id="edge12" class="edge">
<title>I0008&#45;&gt;I000B</title>
<path fill="none" stroke="black" stroke-dasharray="5,2" d="M307.76,-1048.68C307.76,-1039.69 307.76,-1028.46 307.76,-1018.22"/>
<polygon fill="black" stroke="black" points="311.26,-1018.35 307.76,-1008.35 304.26,-1018.35 311.26,-1018.35"/>
</g>
<!-- I000A -->
<g id="node12" class="node">
<title>I000A</title>
<polygon fill="#fbb4ae" stroke="black" points="704.89,-303.29 614.64,-303.29 614.64,-260.79 704.89,-260.79 704.89,-303.29"/>
<text text-anchor="middle" x="659.76" y="-285.99" font-family="monospace" font-size="14.00">RANGE</text>
<text text-anchor="middle" x="659.76" y="-268.74" font-family="monospace" font-size="14.00">\xBB&#45;\xBF</text>
<text text-anchor="middle" x="606.39" y="-307.24" font-family="monospace" font-size="14.00">10</text>
</g>
<!-- I0009&#45;&gt;I000A -->
<g id="edge13" class="edge">
<title>I0009&#45;&gt;I000A</title>
<path fill="none" stroke="black" d="M637.66,-966.97C675.88,-940.88 732.76,-892.06 732.76,-832.54 732.76,-832.54 732.76,-832.54 732.76,-438.04 732.76,-393.35 734.3,-378.99 713.76,-339.29 708.59,-329.3 701.09,-319.86 693.31,-311.68"/>
<polygon fill="black" stroke="black" points="695.83,-309.25 686.26,-304.7 690.9,-314.22 695.83,-309.25"/>
</g>
<!-- I000C -->
<g id="node13" class="node">
<title>I000C</title>
<polygon fill="#fbb4ae" stroke="black" points="252.89,-931.29 162.64,-931.29 162.64,-888.79 252.89,-888.79 252.89,-931.29"/>
<text text-anchor="middle" x="207.76" y="-913.99" font-family="monospace" font-size="14.00">RANGE</text>
<text text-anchor="middle" x="207.76" y="-896.74" font-family="monospace" font-size="14.00">\xC2&#45;\xDF</text>
<text text-anchor="middle" x="154.39" y="-935.24" font-family="monospace" font-size="14.00">12</text>
</g>
<!-- I000B&#45;&gt;I000C -->
<g id="edge15" class="edge">
<title>I000B&#45;&gt;I000C</title>
<path fill="none" stroke="black" d="M288.01,-972.43C275.37,-962.76 258.62,-949.94 243.68,-938.52"/>
<polygon fill="black" stroke="black" points="245.94,-935.84 235.87,-932.55 241.69,-941.4 245.94,-935.84"/>
</g>
<!-- I000E -->
<g id="node14" class="node">
<title>I000E</title>
<ellipse fill="#b3cde3" stroke="black" cx="350.76" cy="-910.04" rx="40.16" ry="18"/>
<text text-anchor="middle" x="350.76" y="-905.37" font-family="monospace" font-size="14.00">SPLIT</text>
<text text-anchor="middle" x="302.35" y="-931.99" font-family="monospace" font-size="14.00">14</text>
</g>
<!-- I000B&#45;&gt;I000E -->
<g id="edge16" class="edge">
<title>I000B&#45;&gt;I000E</title>
<path fill="none" stroke="black" stroke-dasharray="5,2" d="M317.31,-970.56C322.71,-960.96 329.58,-948.73 335.69,-937.85"/>
<polygon fill="black" stroke="black" points="338.66,-939.72 340.51,-929.29 332.55,-936.29 338.66,-939.72"/>
</g>
<!-- I000A&#45;&gt;I0024 -->
<g id="edge14" class="edge">
<title>I000A&#45;&gt;I0024</title>
<path fill="none" stroke="black" d="M624.78,-260.43C573.94,-230.47 479.33,-174.71 420.73,-140.18"/>
<polygon fill="black" stroke="black" points="422.64,-137.24 412.25,-135.18 419.08,-143.27 422.64,-137.24"/>
</g>
<!-- I000D -->
<g id="node15" class="node">
<title>I000D</title>
<polygon fill="#fbb4ae" stroke="black" points="360.89,-224.79 270.64,-224.79 270.64,-182.29 360.89,-182.29 360.89,-224.79"/>
<text text-anchor="middle" x="315.76" y="-207.49" font-family="monospace" font-size="14.00">RANGE</text>
<text text-anchor="middle" x="315.76" y="-190.24" font-family="monospace" font-size="14.00">\x80&#45;\xBF</text>
<text text-anchor="middle" x="262.39" y="-228.74" font-family="monospace" font-size="14.00">13</text>
</g>
<!-- I000C&#45;&gt;I000D -->
<g id="edge17" class="edge">
<title>I000C&#45;&gt;I000D</title>
<path fill="none" stroke="black" d="M197.55,-888.56C184,-859.43 161.76,-804.01 161.76,-754.04 161.76,-754.04 161.76,-754.04 161.76,-359.54 161.76,-301 217.73,-256.71 262.19,-230.77"/>
<polygon fill="black" stroke="black" points="263.74,-233.91 270.73,-225.94 260.3,-227.81 263.74,-233.91"/>
</g>
<!-- I000F -->
<g id="node16" class="node">
<title>I000F</title>
<polygon fill="#fbb4ae" stroke="black" points="556.89,-852.79 466.64,-852.79 466.64,-810.29 556.89,-810.29 556.89,-852.79"/>
<text text-anchor="middle" x="511.76" y="-835.49" font-family="monospace" font-size="14.00">RANGE</text>
<text text-anchor="middle" x="511.76" y="-818.24" font-family="monospace" font-size="14.00">\xE0&#45;\xE0</text>
<text text-anchor="middle" x="458.39" y="-856.74" font-family="monospace" font-size="14.00">15</text>
</g>
<!-- I000E&#45;&gt;I000F -->
<g id="edge19" class="edge">
<title>I000E&#45;&gt;I000F</title>
<path fill="none" stroke="black" d="M377.71,-896.24C399.62,-885.83 431.21,-870.82 458.22,-857.98"/>
<polygon fill="black" stroke="black" points="459.43,-861.29 466.96,-853.83 456.42,-854.96 459.43,-861.29"/>
</g>
<!-- I0013 -->
<g id="node17" class="node">
<title>I0013</title>
<ellipse fill="#b3cde3" stroke="black" cx="350.76" cy="-831.54" rx="40.16" ry="18"/>
<text text-anchor="middle" x="350.76" y="-826.87" font-family="monospace" font-size="14.00">SPLIT</text>
<text text-anchor="middle" x="302.35" y="-853.49" font-family="monospace" font-size="14.00">19</text>
</g>
<!-- I000E&#45;&gt;I0013 -->
<g id="edge20" class="edge">
<title>I000E&#45;&gt;I0013</title>
<path fill="none" stroke="black" stroke-dasharray="5,2" d="M350.76,-891.68C350.76,-882.69 350.76,-871.46 350.76,-861.22"/>
<polygon fill="black" stroke="black" points="354.26,-861.35 350.76,-851.35 347.26,-861.35 354.26,-861.35"/>
</g>
<!-- I000D&#45;&gt;I0024 -->
<g id="edge18" class="edge">
<title>I000D&#45;&gt;I0024</title>
<path fill="none" stroke="black" d="M327.75,-182.04C333.12,-172.84 339.67,-161.65 345.97,-150.86"/>
<polygon fill="black" stroke="black" points="348.87,-152.84 350.89,-142.44 342.82,-149.31 348.87,-152.84"/>
</g>
<!-- I0010 -->
<g id="node18" class="node">
<title>I0010</title>
<ellipse fill="#b3cde3" stroke="black" cx="617.76" cy="-439.04" rx="40.16" ry="18"/>
<text text-anchor="middle" x="617.76" y="-434.37" font-family="monospace" font-size="14.00">SPLIT</text>
<text text-anchor="middle" x="569.35" y="-460.99" font-family="monospace" font-size="14.00">16</text>
</g>
<!-- I000F&#45;&gt;I0010 -->
<g id="edge21" class="edge">
<title>I000F&#45;&gt;I0010</title>
<path fill="none" stroke="black" d="M536.23,-809.94C565.83,-782.55 611.76,-731.1 611.76,-675.54 611.76,-675.54 611.76,-675.54 611.76,-595.04 611.76,-550.82 614.23,-499.56 616,-468.48"/>
<polygon fill="black" stroke="black" points="619.48,-468.94 616.57,-458.75 612.49,-468.53 619.48,-468.94"/>
</g>
<!-- I0014 -->
<g id="node21" class="node">
<title>I0014</title>
<polygon fill="#fbb4ae" stroke="black" points="291.89,-774.29 201.64,-774.29 201.64,-731.79 291.89,-731.79 291.89,-774.29"/>
<text text-anchor="middle" x="246.76" y="-756.99" font-family="monospace" font-size="14.00">RANGE</text>
<text text-anchor="middle" x="246.76" y="-739.74" font-family="monospace" font-size="14.00">\xE1&#45;\xEF</text>
<text text-anchor="middle" x="193.39" y="-778.24" font-family="monospace" font-size="14.00">20</text>
</g>
<!-- I0013&#45;&gt;I0014 -->
<g id="edge26" class="edge">
<title>I0013&#45;&gt;I0014</title>
<path fill="none" stroke="black" d="M330.71,-815.79C317.39,-805.99 299.5,-792.83 283.66,-781.18"/>
<polygon fill="black" stroke="black" points="285.97,-778.53 275.84,-775.43 281.82,-784.17 285.97,-778.53"/>
</g>
<!-- I0016 -->
<g id="node22" class="node">
<title>I0016</title>
<ellipse fill="#b3cde3" stroke="black" cx="370.76" cy="-753.04" rx="40.16" ry="18"/>
<text text-anchor="middle" x="370.76" y="-748.37" font-family="monospace" font-size="14.00">SPLIT</text>
<text text-anchor="middle" x="322.35" y="-774.99" font-family="monospace" font-size="14.00">22</text>
</g>
<!-- I0013&#45;&gt;I0016 -->
<g id="edge27" class="edge">
<title>I0013&#45;&gt;I0016</title>
<path fill="none" stroke="black" stroke-dasharray="5,2" d="M355.3,-813.18C357.68,-804.09 360.65,-792.72 363.35,-782.38"/>
<polygon fill="black" stroke="black" points="366.72,-783.36 365.86,-772.8 359.94,-781.59 366.72,-783.36"/>
</g>
<!-- I0011 -->
<g id="node19" class="node">
<title>I0011</title>
<polygon fill="#fbb4ae" stroke="black" points="704.89,-381.79 614.64,-381.79 614.64,-339.29 704.89,-339.29 704.89,-381.79"/>
<text text-anchor="middle" x="659.76" y="-364.49" font-family="monospace" font-size="14.00">RANGE</text>
<text text-anchor="middle" x="659.76" y="-347.24" font-family="monospace" font-size="14.00">\x81&#45;\x81</text>
<text text-anchor="middle" x="606.39" y="-385.74" font-family="monospace" font-size="14.00">17</text>
</g>
<!-- I0010&#45;&gt;I0011 -->
<g id="edge22" class="edge">
<title>I0010&#45;&gt;I0011</title>
<path fill="none" stroke="black" d="M627.08,-421.06C631.75,-412.57 637.54,-402.02 642.94,-392.18"/>
<polygon fill="black" stroke="black" points="645.9,-394.07 647.65,-383.62 639.76,-390.7 645.9,-394.07"/>
</g>
<!-- I0012 -->
<g id="node20" class="node">
<title>I0012</title>
<polygon fill="#fbb4ae" stroke="black" points="596.89,-303.29 506.64,-303.29 506.64,-260.79 596.89,-260.79 596.89,-303.29"/>
<text text-anchor="middle" x="551.76" y="-285.99" font-family="monospace" font-size="14.00">RANGE</text>
<text text-anchor="middle" x="551.76" y="-268.74" font-family="monospace" font-size="14.00">\x82&#45;\xBF</text>
<text text-anchor="middle" x="498.39" y="-307.24" font-family="monospace" font-size="14.00">18</text>
</g>
<!-- I0010&#45;&gt;I0012 -->
<g id="edge23" class="edge">
<title>I0010&#45;&gt;I0012</title>
<path fill="none" stroke="black" stroke-dasharray="5,2" d="M610.45,-420.86C599.47,-395.09 578.58,-346.01 564.91,-313.92"/>
<polygon fill="black" stroke="black" points="568.31,-312.96 561.17,-305.13 561.87,-315.71 568.31,-312.96"/>
</g>
<!-- I0011&#45;&gt;I000A -->
<g id="edge24" class="edge">
<title>I0011&#45;&gt;I000A</title>
<path fill="none" stroke="black" d="M659.76,-339.04C659.76,-331.67 659.76,-323.16 659.76,-315.04"/>
<polygon fill="black" stroke="black" points="663.26,-315.11 659.76,-305.11 656.26,-315.11 663.26,-315.11"/>
</g>
<!-- I0012&#45;&gt;I000D -->
<g id="edge25" class="edge">
<title>I0012&#45;&gt;I000D</title>
<path fill="none" stroke="black" d="M506.17,-263.73C503.33,-262.72 500.51,-261.73 497.76,-260.79 455.93,-246.5 408.16,-231.8 372.06,-221.01"/>
<polygon fill="black" stroke="black" points="373.29,-217.72 362.7,-218.22 371.29,-224.43 373.29,-217.72"/>
</g>
<!-- I0015 -->
<g id="node23" class="node">
<title>I0015</title>
<polygon fill="#fbb4ae" stroke="black" points="298.89,-460.29 208.64,-460.29 208.64,-417.79 298.89,-417.79 298.89,-460.29"/>
<text text-anchor="middle" x="253.76" y="-442.99" font-family="monospace" font-size="14.00">RANGE</text>
<text text-anchor="middle" x="253.76" y="-425.74" font-family="monospace" font-size="14.00">\x80&#45;\xBF</text>
<text text-anchor="middle" x="200.39" y="-464.24" font-family="monospace" font-size="14.00">21</text>
</g>
<!-- I0014&#45;&gt;I0015 -->
<g id="edge28" class="edge">
<title>I0014&#45;&gt;I0015</title>
<path fill="none" stroke="black" d="M239.25,-731.37C224.35,-687.28 194.53,-581.11 218.76,-496.29 221.37,-487.17 225.93,-478.09 230.91,-469.97"/>
<polygon fill="black" stroke="black" points="233.67,-472.14 236.26,-461.86 227.83,-468.28 233.67,-472.14"/>
</g>
<!-- I0017 -->
<g id="node24" class="node">
<title>I0017</title>
<polygon fill="#fbb4ae" stroke="black" points="526.89,-695.79 436.64,-695.79 436.64,-653.29 526.89,-653.29 526.89,-695.79"/>
<text text-anchor="middle" x="481.76" y="-678.49" font-family="monospace" font-size="14.00">RANGE</text>
<text text-anchor="middle" x="481.76" y="-661.24" font-family="monospace" font-size="14.00">\xF0&#45;\xF0</text>
<text text-anchor="middle" x="428.39" y="-699.74" font-family="monospace" font-size="14.00">23</text>
</g>
<!-- I0016&#45;&gt;I0017 -->
<g id="edge30" class="edge">
<title>I0016&#45;&gt;I0017</title>
<path fill="none" stroke="black" d="M391.9,-737.47C406.23,-727.6 425.6,-714.25 442.69,-702.47"/>
<polygon fill="black" stroke="black" points="444.4,-705.54 450.65,-696.98 440.43,-699.78 444.4,-705.54"/>
</g>
<!-- I001F -->
<g id="node25" class="node">
<title>I001F</title>
<ellipse fill="#b3cde3" stroke="black" cx="370.76" cy="-674.54" rx="40.16" ry="18"/>
<text text-anchor="middle" x="370.76" y="-669.87" font-family="monospace" font-size="14.00">SPLIT</text>
<text text-anchor="middle" x="322.35" y="-696.49" font-family="monospace" font-size="14.00">31</text>
</g>
<!-- I0016&#45;&gt;I001F -->
<g id="edge31" class="edge">
<title>I0016&#45;&gt;I001F</title>
<path fill="none" stroke="black" stroke-dasharray="5,2" d="M370.76,-734.68C370.76,-725.69 370.76,-714.46 370.76,-704.22"/>
<polygon fill="black" stroke="black" points="374.26,-704.35 370.76,-694.35 367.26,-704.35 374.26,-704.35"/>
</g>
<!-- I0015&#45;&gt;I000D -->
<g id="edge29" class="edge">
<title>I0015&#45;&gt;I000D</title>
<path fill="none" stroke="black" d="M246.38,-417.37C235.39,-382.92 218.56,-312.46 243.76,-260.79 249.25,-249.55 258.18,-239.9 267.93,-231.92"/>
<polygon fill="black" stroke="black" points="269.93,-234.79 275.82,-225.98 265.72,-229.2 269.93,-234.79"/>
</g>
<!-- I0018 -->
<g id="node26" class="node">
<title>I0018</title>
<ellipse fill="#b3cde3" stroke="black" cx="488.76" cy="-596.04" rx="40.16" ry="18"/>
<text text-anchor="middle" x="488.76" y="-591.37" font-family="monospace" font-size="14.00">SPLIT</text>
<text text-anchor="middle" x="440.35" y="-617.99" font-family="monospace" font-size="14.00">24</text>
</g>
<!-- I0017&#45;&gt;I0018 -->
<g id="edge32" class="edge">
<title>I0017&#45;&gt;I0018</title>
<path fill="none" stroke="black" d="M483.64,-653.04C484.41,-644.67 485.3,-634.84 486.13,-625.78"/>
<polygon fill="black" stroke="black" points="489.6,-626.27 487.03,-615.99 482.63,-625.63 489.6,-626.27"/>
</g>
<!-- I0020 -->
<g id="node33" class="node">
<title>I0020</title>
<polygon fill="#fbb4ae" stroke="black" points="425.89,-617.29 335.64,-617.29 335.64,-574.79 425.89,-574.79 425.89,-617.29"/>
<text text-anchor="middle" x="380.76" y="-599.99" font-family="monospace" font-size="14.00">RANGE</text>
<text text-anchor="middle" x="380.76" y="-582.74" font-family="monospace" font-size="14.00">\xF1&#45;\xF3</text>
<text text-anchor="middle" x="327.39" y="-621.24" font-family="monospace" font-size="14.00">32</text>
</g>
<!-- I001F&#45;&gt;I0020 -->
<g id="edge43" class="edge">
<title>I001F&#45;&gt;I0020</title>
<path fill="none" stroke="black" d="M373.03,-656.18C374.09,-648.12 375.37,-638.28 376.59,-628.95"/>
<polygon fill="black" stroke="black" points="380.06,-629.46 377.88,-619.09 373.11,-628.55 380.06,-629.46"/>
</g>
<!-- I0022 -->
<g id="node34" class="node">
<title>I0022</title>
<polygon fill="#fbb4ae" stroke="black" points="317.89,-617.29 227.64,-617.29 227.64,-574.79 317.89,-574.79 317.89,-617.29"/>
<text text-anchor="middle" x="272.76" y="-599.99" font-family="monospace" font-size="14.00">RANGE</text>
<text text-anchor="middle" x="272.76" y="-582.74" font-family="monospace" font-size="14.00">\xF4&#45;\xF4</text>
<text text-anchor="middle" x="219.39" y="-621.24" font-family="monospace" font-size="14.00">34</text>
</g>
<!-- I001F&#45;&gt;I0022 -->
<g id="edge44" class="edge">
<title>I001F&#45;&gt;I0022</title>
<path fill="none" stroke="black" stroke-dasharray="5,2" d="M351.4,-658.43C339.02,-648.76 322.6,-635.94 307.96,-624.52"/>
<polygon fill="black" stroke="black" points="310.36,-621.95 300.33,-618.56 306.06,-627.47 310.36,-621.95"/>
</g>
<!-- I0019 -->
<g id="node27" class="node">
<title>I0019</title>
<polygon fill="#fbb4ae" stroke="black" points="533.89,-538.79 443.64,-538.79 443.64,-496.29 533.89,-496.29 533.89,-538.79"/>
<text text-anchor="middle" x="488.76" y="-521.49" font-family="monospace" font-size="14.00">RANGE</text>
<text text-anchor="middle" x="488.76" y="-504.24" font-family="monospace" font-size="14.00">\x80&#45;\x80</text>
<text text-anchor="middle" x="435.39" y="-542.74" font-family="monospace" font-size="14.00">25</text>
</g>
<!-- I0018&#45;&gt;I0019 -->
<g id="edge33" class="edge">
<title>I0018&#45;&gt;I0019</title>
<path fill="none" stroke="black" d="M488.76,-577.68C488.76,-569.62 488.76,-559.78 488.76,-550.45"/>
<polygon fill="black" stroke="black" points="492.26,-550.6 488.76,-540.6 485.26,-550.6 492.26,-550.6"/>
</g>
<!-- I001E -->
<g id="node28" class="node">
<title>I001E</title>
<polygon fill="#fbb4ae" stroke="black" points="488.89,-303.29 398.64,-303.29 398.64,-260.79 488.89,-260.79 488.89,-303.29"/>
<text text-anchor="middle" x="443.76" y="-285.99" font-family="monospace" font-size="14.00">RANGE</text>
<text text-anchor="middle" x="443.76" y="-268.74" font-family="monospace" font-size="14.00">\x81&#45;\xBF</text>
<text text-anchor="middle" x="390.39" y="-307.24" font-family="monospace" font-size="14.00">30</text>
</g>
<!-- I0018&#45;&gt;I001E -->
<g id="edge34" class="edge">
<title>I0018&#45;&gt;I001E</title>
<path fill="none" stroke="black" stroke-dasharray="5,2" d="M509.25,-580.36C521.52,-570.24 535.99,-555.62 542.76,-538.79 549.81,-521.27 544.19,-515.13 542.76,-496.29 540.09,-461.1 551.46,-446.38 530.76,-417.79 510.02,-389.13 480.64,-410.36 459.76,-381.79 445.8,-362.69 442.17,-335.94 441.83,-315.11"/>
<polygon fill="black" stroke="black" points="445.33,-315.17 441.93,-305.14 438.33,-315.1 445.33,-315.17"/>
</g>
<!-- I001A -->
<g id="node29" class="node">
<title>I001A</title>
<ellipse fill="#b3cde3" stroke="black" cx="481.76" cy="-439.04" rx="40.16" ry="18"/>
<text text-anchor="middle" x="481.76" y="-434.37" font-family="monospace" font-size="14.00">SPLIT</text>
<text text-anchor="middle" x="433.35" y="-460.99" font-family="monospace" font-size="14.00">26</text>
</g>
<!-- I0019&#45;&gt;I001A -->
<g id="edge35" class="edge">
<title>I0019&#45;&gt;I001A</title>
<path fill="none" stroke="black" d="M486.89,-496.04C486.12,-487.67 485.22,-477.84 484.39,-468.78"/>
<polygon fill="black" stroke="black" points="487.89,-468.63 483.5,-458.99 480.92,-469.27 487.89,-468.63"/>
</g>
<!-- I001E&#45;&gt;I0024 -->
<g id="edge42" class="edge">
<title>I001E&#45;&gt;I0024</title>
<path fill="none" stroke="black" d="M434.84,-260.43C423.34,-233.88 403.07,-187.07 388.2,-152.73"/>
<polygon fill="black" stroke="black" points="391.56,-151.68 384.38,-143.9 385.14,-154.47 391.56,-151.68"/>
</g>
<!-- I001B -->
<g id="node30" class="node">
<title>I001B</title>
<polygon fill="#fbb4ae" stroke="black" points="558.89,-381.79 468.64,-381.79 468.64,-339.29 558.89,-339.29 558.89,-381.79"/>
<text text-anchor="middle" x="513.76" y="-364.49" font-family="monospace" font-size="14.00">RANGE</text>
<text text-anchor="middle" x="513.76" y="-347.24" font-family="monospace" font-size="14.00">\x81&#45;\x81</text>
<text text-anchor="middle" x="460.39" y="-385.74" font-family="monospace" font-size="14.00">27</text>
</g>
<!-- I001A&#45;&gt;I001B -->
<g id="edge36" class="edge">
<title>I001A&#45;&gt;I001B</title>
<path fill="none" stroke="black" d="M488.87,-421.06C492.34,-412.75 496.64,-402.47 500.69,-392.8"/>
<polygon fill="black" stroke="black" points="503.87,-394.26 504.5,-383.69 497.41,-391.56 503.87,-394.26"/>
</g>
<!-- I001C -->
<g id="node31" class="node">
<title>I001C</title>
<ellipse fill="#b3cde3" stroke="black" cx="370.76" cy="-360.54" rx="40.16" ry="18"/>
<text text-anchor="middle" x="370.76" y="-355.87" font-family="monospace" font-size="14.00">SPLIT</text>
<text text-anchor="middle" x="322.35" y="-382.49" font-family="monospace" font-size="14.00">28</text>
</g>
<!-- I001A&#45;&gt;I001C -->
<g id="edge37" class="edge">
<title>I001A&#45;&gt;I001C</title>
<path fill="none" stroke="black" stroke-dasharray="5,2" d="M460.62,-423.47C443.8,-411.88 420.04,-395.51 401.18,-382.51"/>
<polygon fill="black" stroke="black" points="403.29,-379.71 393.07,-376.92 399.32,-385.47 403.29,-379.71"/>
</g>
<!-- I001B&#45;&gt;I000A -->
<g id="edge38" class="edge">
<title>I001B&#45;&gt;I000A</title>
<path fill="none" stroke="black" d="M553.27,-338.84C570.8,-329.66 591.62,-318.75 610.18,-309.02"/>
<polygon fill="black" stroke="black" points="611.65,-312.21 618.88,-304.46 608.4,-306 611.65,-312.21"/>
</g>
<!-- I001C&#45;&gt;I000D -->
<g id="edge40" class="edge">
<title>I001C&#45;&gt;I000D</title>
<path fill="none" stroke="black" stroke-dasharray="5,2" d="M369.43,-342.22C367.42,-322.05 362.63,-288.03 351.76,-260.79 348.19,-251.84 343.14,-242.76 337.94,-234.59"/>
<polygon fill="black" stroke="black" points="340.94,-232.77 332.47,-226.4 335.12,-236.66 340.94,-232.77"/>
</g>
<!-- I001D -->
<g id="node32" class="node">
<title>I001D</title>
<polygon fill="#fbb4ae" stroke="black" points="342.89,-303.29 252.64,-303.29 252.64,-260.79 342.89,-260.79 342.89,-303.29"/>
<text text-anchor="middle" x="297.76" y="-285.99" font-family="monospace" font-size="14.00">RANGE</text>
<text text-anchor="middle" x="297.76" y="-268.74" font-family="monospace" font-size="14.00">\x82&#45;\xBF</text>
<text text-anchor="middle" x="244.39" y="-307.24" font-family="monospace" font-size="14.00">29</text>
</g>
<!-- I001C&#45;&gt;I001D -->
<g id="edge39" class="edge">
<title>I001C&#45;&gt;I001D</title>
<path fill="none" stroke="black" d="M355.64,-343.69C346.79,-334.42 335.34,-322.42 324.97,-311.56"/>
<polygon fill="black" stroke="black" points="327.79,-309.44 318.36,-304.62 322.73,-314.28 327.79,-309.44"/>
</g>
<!-- I001D&#45;&gt;I000D -->
<g id="edge41" class="edge">
<title>I001D&#45;&gt;I000D</title>
<path fill="none" stroke="black" d="M302.59,-260.54C304.34,-253.08 306.37,-244.46 308.3,-236.26"/>
<polygon fill="black" stroke="black" points="311.7,-237.11 310.58,-226.57 304.88,-235.51 311.7,-237.11"/>
</g>
<!-- I0021 -->
<g id="node35" class="node">
<title>I0021</title>
<polygon fill="#fbb4ae" stroke="black" points="425.89,-538.79 335.64,-538.79 335.64,-496.29 425.89,-496.29 425.89,-538.79"/>
<text text-anchor="middle" x="380.76" y="-521.49" font-family="monospace" font-size="14.00">RANGE</text>
<text text-anchor="middle" x="380.76" y="-504.24" font-family="monospace" font-size="14.00">\x80&#45;\xBF</text>
<text text-anchor="middle" x="327.39" y="-542.74" font-family="monospace" font-size="14.00">33</text>
</g>
<!-- I0020&#45;&gt;I0021 -->
<g id="edge45" class="edge">
<title>I0020&#45;&gt;I0021</title>
<path fill="none" stroke="black" d="M380.76,-574.54C380.76,-567.17 380.76,-558.66 380.76,-550.54"/>
<polygon fill="black" stroke="black" points="384.26,-550.61 380.76,-540.61 377.26,-550.61 384.26,-550.61"/>
</g>
<!-- I0023 -->
<g id="node36" class="node">
<title>I0023</title>
<polygon fill="#fbb4ae" stroke="black" points="317.89,-538.79 227.64,-538.79 227.64,-496.29 317.89,-496.29 317.89,-538.79"/>
<text text-anchor="middle" x="272.76" y="-521.49" font-family="monospace" font-size="14.00">RANGE</text>
<text text-anchor="middle" x="272.76" y="-504.24" font-family="monospace" font-size="14.00">\x80&#45;\x8F</text>
<text text-anchor="middle" x="219.39" y="-542.74" font-family="monospace" font-size="14.00">35</text>
</g>
<!-- I0022&#45;&gt;I0023 -->
<g id="edge47" class="edge">
<title>I0022&#45;&gt;I0023</title>
<path fill="none" stroke="black" d="M272.76,-574.54C272.76,-567.17 272.76,-558.66 272.76,-550.54"/>
<polygon fill="black" stroke="black" points="276.26,-550.61 272.76,-540.61 269.26,-550.61 276.26,-550.61"/>
</g>
<!-- I0021&#45;&gt;I0015 -->
<g id="edge46" class="edge">
<title>I0021&#45;&gt;I0015</title>
<path fill="none" stroke="black" d="M346.4,-495.84C331.43,-486.83 313.71,-476.15 297.79,-466.57"/>
<polygon fill="black" stroke="black" points="299.83,-463.7 289.46,-461.54 296.22,-469.7 299.83,-463.7"/>
</g>
<!-- I0023&#45;&gt;I0015 -->
<g id="edge48" class="edge">
<title>I0023&#45;&gt;I0015</title>
<path fill="none" stroke="black" d="M267.67,-496.04C265.82,-488.58 263.68,-479.96 261.64,-471.76"/>
<polygon fill="black" stroke="black" points="265.04,-470.93 259.23,-462.07 258.25,-472.62 265.04,-470.93"/>
</g>
</g>
</svg>
