<?xml version="1.0" encoding="UTF-8" standalone="no"?>
<!DOCTYPE svg PUBLIC "-//W3C//DTD SVG 1.1//EN"
 "http://www.w3.org/Graphics/SVG/1.1/DTD/svg11.dtd">
<!-- Generated by graphviz version 11.0.0 (20240428.1522)
 -->
<!-- Title: D Pages: 1 -->
<svg width="562pt" height="1060pt"
 viewBox="0.00 0.00 562.00 1060.34" xmlns="http://www.w3.org/2000/svg" xmlns:xlink="http://www.w3.org/1999/xlink">
<g id="graph0" class="graph" transform="scale(1 1) rotate(0) translate(4 1056.34)">
<title>D</title>
<polygon fill="white" stroke="none" points="-4,4 -4,-1056.34 558,-1056.34 558,4 -4,4"/>
<text text-anchor="middle" x="277" y="-1035.04" font-family="Times,serif" font-size="14.00">program for &quot;[^a&#45;z]&quot;</text>
<!-- I0001 -->
<g id="node1" class="node">
<title>I0001</title>
<polygon fill="#ffffcc" stroke="black" points="124.94,-986.58 69,-1011.34 13.06,-986.58 34.43,-946.51 103.57,-946.51 124.94,-986.58"/>
<text text-anchor="middle" x="69" y="-978.71" font-family="Times,serif" font-size="14.00">MATCH</text>
<text text-anchor="middle" x="69" y="-962.21" font-family="Times,serif" font-size="14.00">set 1</text>
<text text-anchor="middle" x="9.69" y="-1014.54" font-family="Times,serif" font-size="14.00">1</text>
</g>
<!-- I0002 -->
<g id="node2" class="node">
<title>I0002</title>
<ellipse fill="#b3cde3" stroke="black" cx="69" cy="-885.67" rx="35.49" ry="18"/>
<text text-anchor="middle" x="69" y="-880.62" font-family="Times,serif" font-size="14.00">SPLIT</text>
<text text-anchor="middle" x="30.14" y="-906.87" font-family="Times,serif" font-size="14.00">2</text>
</g>
<!-- I0001&#45;&gt;I0002 -->
<g id="edge1" class="edge">
<title>I0001&#45;&gt;I0002</title>
<path fill="none" stroke="black" d="M69,-946.23C69,-936.39 69,-925.34 69,-915.46"/>
<polygon fill="black" stroke="black" points="72.5,-915.66 69,-905.66 65.5,-915.66 72.5,-915.66"/>
</g>
<!-- I0003 -->
<g id="node3" class="node">
<title>I0003</title>
<polygon fill="#fbb4ae" stroke="black" points="69.25,-225.67 6.75,-225.67 6.75,-184.67 69.25,-184.67 69.25,-225.67"/>
<text text-anchor="middle" x="38" y="-208.37" font-family="Times,serif" font-size="14.00">RANGE</text>
<text text-anchor="middle" x="38" y="-191.87" font-family="Times,serif" font-size="14.00">\x00&#45;`</text>
<text text-anchor="middle" x="3.38" y="-228.87" font-family="Times,serif" font-size="14.00">3</text>
</g>
<!-- I0002&#45;&gt;I0003 -->
<g id="edge2" class="edge">
<title>I0002&#45;&gt;I0003</title>
<path fill="none" stroke="black" d="M62.88,-867.88C53.84,-841.57 38,-788.85 38,-742.67 38,-742.67 38,-742.67 38,-358.17 38,-316.24 38,-267.8 38,-237.08"/>
<polygon fill="black" stroke="black" points="41.5,-237.36 38,-227.36 34.5,-237.36 41.5,-237.36"/>
</g>
<!-- I0004 -->
<g id="node4" class="node">
<title>I0004</title>
<ellipse fill="#b3cde3" stroke="black" cx="101" cy="-813.67" rx="35.49" ry="18"/>
<text text-anchor="middle" x="101" y="-808.62" font-family="Times,serif" font-size="14.00">SPLIT</text>
<text text-anchor="middle" x="62.14" y="-834.87" font-family="Times,serif" font-size="14.00">4</text>
</g>
<!-- I0002&#45;&gt;I0004 -->
<g id="edge3" class="edge">
<title>I0002&#45;&gt;I0004</title>
<path fill="none" stroke="black" stroke-dasharray="5,2" d="M76.75,-867.73C80.32,-859.9 84.66,-850.42 88.67,-841.65"/>
<polygon fill="black" stroke="black" points="91.72,-843.39 92.7,-832.84 85.35,-840.48 91.72,-843.39"/>
</g>
<!-- I0018 -->
<g id="node5" class="node">
<title>I0018</title>
<polygon fill="#ffffcc" stroke="black" points="152.94,-46.91 97,-71.67 41.06,-46.91 62.43,-6.84 131.57,-6.84 152.94,-46.91"/>
<text text-anchor="middle" x="97" y="-39.04" font-family="Times,serif" font-size="14.00">MATCH</text>
<text text-anchor="middle" x="97" y="-22.54" font-family="Times,serif" font-size="14.00">slot 0</text>
<text text-anchor="middle" x="34.31" y="-74.87" font-family="Times,serif" font-size="14.00">24</text>
</g>
<!-- I0003&#45;&gt;I0018 -->
<g id="edge4" class="edge">
<title>I0003&#45;&gt;I0018</title>
<path fill="none" stroke="black" d="M40.01,-184.45C42.47,-164.58 47.52,-133.29 57,-107.67 61.23,-96.23 67.16,-84.44 73.16,-73.85"/>
<polygon fill="black" stroke="black" points="76.07,-75.8 78.12,-65.41 70.04,-72.26 76.07,-75.8"/>
</g>
<!-- I0005 -->
<g id="node6" class="node">
<title>I0005</title>
<polygon fill="#fbb4ae" stroke="black" points="128.25,-148.67 65.75,-148.67 65.75,-107.67 128.25,-107.67 128.25,-148.67"/>
<text text-anchor="middle" x="97" y="-131.37" font-family="Times,serif" font-size="14.00">RANGE</text>
<text text-anchor="middle" x="97" y="-114.87" font-family="Times,serif" font-size="14.00">{&#45;\x7F</text>
<text text-anchor="middle" x="62.38" y="-151.87" font-family="Times,serif" font-size="14.00">5</text>
</g>
<!-- I0004&#45;&gt;I0005 -->
<g id="edge5" class="edge">
<title>I0004&#45;&gt;I0005</title>
<path fill="none" stroke="black" d="M100.21,-795.33C99.04,-768.2 97,-714.1 97,-668.17 97,-668.17 97,-668.17 97,-281.17 97,-239.24 97,-190.8 97,-160.08"/>
<polygon fill="black" stroke="black" points="100.5,-160.36 97,-150.36 93.5,-160.36 100.5,-160.36"/>
</g>
<!-- I0006 -->
<g id="node7" class="node">
<title>I0006</title>
<ellipse fill="#b3cde3" stroke="black" cx="162" cy="-741.67" rx="35.49" ry="18"/>
<text text-anchor="middle" x="162" y="-736.62" font-family="Times,serif" font-size="14.00">SPLIT</text>
<text text-anchor="middle" x="123.14" y="-762.87" font-family="Times,serif" font-size="14.00">6</text>
</g>
<!-- I0004&#45;&gt;I0006 -->
<g id="edge6" class="edge">
<title>I0004&#45;&gt;I0006</title>
<path fill="none" stroke="black" stroke-dasharray="5,2" d="M114.84,-796.79C122.49,-788.02 132.14,-776.93 140.72,-767.09"/>
<polygon fill="black" stroke="black" points="143.29,-769.47 147.22,-759.63 138.01,-764.87 143.29,-769.47"/>
</g>
<!-- I0005&#45;&gt;I0018 -->
<g id="edge7" class="edge">
<title>I0005&#45;&gt;I0018</title>
<path fill="none" stroke="black" d="M97,-107.57C97,-100.43 97,-92.03 97,-83.55"/>
<polygon fill="black" stroke="black" points="100.5,-83.57 97,-73.57 93.5,-83.57 100.5,-83.57"/>
</g>
<!-- I0007 -->
<g id="node8" class="node">
<title>I0007</title>
<polygon fill="#fbb4ae" stroke="black" points="199.25,-687.67 124.75,-687.67 124.75,-646.67 199.25,-646.67 199.25,-687.67"/>
<text text-anchor="middle" x="162" y="-670.37" font-family="Times,serif" font-size="14.00">RANGE</text>
<text text-anchor="middle" x="162" y="-653.87" font-family="Times,serif" font-size="14.00">\xC2&#45;\xDF</text>
<text text-anchor="middle" x="121.38" y="-690.87" font-family="Times,serif" font-size="14.00">7</text>
</g>
<!-- I0006&#45;&gt;I0007 -->
<g id="edge8" class="edge">
<title>I0006&#45;&gt;I0007</title>
<path fill="none" stroke="black" d="M162,-723.49C162,-716.26 162,-707.62 162,-699.33"/>
<polygon fill="black" stroke="black" points="165.5,-699.57 162,-689.57 158.5,-699.57 165.5,-699.57"/>
</g>
<!-- I0009 -->
<g id="node9" class="node">
<title>I0009</title>
<ellipse fill="#b3cde3" stroke="black" cx="253" cy="-667.17" rx="35.49" ry="18"/>
<text text-anchor="middle" x="253" y="-662.12" font-family="Times,serif" font-size="14.00">SPLIT</text>
<text text-anchor="middle" x="214.14" y="-688.37" font-family="Times,serif" font-size="14.00">9</text>
</g>
<!-- I0006&#45;&gt;I0009 -->
<g id="edge9" class="edge">
<title>I0006&#45;&gt;I0009</title>
<path fill="none" stroke="black" stroke-dasharray="5,2" d="M180.42,-726C193.49,-715.58 211.26,-701.43 225.94,-689.73"/>
<polygon fill="black" stroke="black" points="227.79,-692.73 233.43,-683.76 223.43,-687.26 227.79,-692.73"/>
</g>
<!-- I0008 -->
<g id="node10" class="node">
<title>I0008</title>
<polygon fill="#fbb4ae" stroke="black" points="248.75,-148.67 177.25,-148.67 177.25,-107.67 248.75,-107.67 248.75,-148.67"/>
<text text-anchor="middle" x="213" y="-131.37" font-family="Times,serif" font-size="14.00">RANGE</text>
<text text-anchor="middle" x="213" y="-114.87" font-family="Times,serif" font-size="14.00">\x80&#45;\xBF</text>
<text text-anchor="middle" x="173.88" y="-151.87" font-family="Times,serif" font-size="14.00">8</text>
</g>
<!-- I0007&#45;&gt;I0008 -->
<g id="edge10" class="edge">
<title>I0007&#45;&gt;I0008</title>
<path fill="none" stroke="black" d="M159.03,-646.55C154.92,-617.64 148,-561.87 148,-514.17 148,-514.17 148,-514.17 148,-281.17 148,-235.53 173.08,-187.94 192.08,-158.43"/>
<polygon fill="black" stroke="black" points="194.8,-160.68 197.41,-150.41 188.96,-156.8 194.8,-160.68"/>
</g>
<!-- I000A -->
<g id="node11" class="node">
<title>I000A</title>
<polygon fill="#fbb4ae" stroke="black" points="248.75,-610.67 177.25,-610.67 177.25,-569.67 248.75,-569.67 248.75,-610.67"/>
<text text-anchor="middle" x="213" y="-593.37" font-family="Times,serif" font-size="14.00">RANGE</text>
<text text-anchor="middle" x="213" y="-576.87" font-family="Times,serif" font-size="14.00">\xE0&#45;\xE0</text>
<text text-anchor="middle" x="170.5" y="-613.87" font-family="Times,serif" font-size="14.00">10</text>
</g>
<!-- I0009&#45;&gt;I000A -->
<g id="edge12" class="edge">
<title>I0009&#45;&gt;I000A</title>
<path fill="none" stroke="black" d="M244.12,-649.53C239.66,-641.16 234.12,-630.76 228.95,-621.07"/>
<polygon fill="black" stroke="black" points="232.06,-619.47 224.27,-612.3 225.89,-622.77 232.06,-619.47"/>
</g>
<!-- I000C -->
<g id="node12" class="node">
<title>I000C</title>
<ellipse fill="#b3cde3" stroke="black" cx="302" cy="-590.17" rx="35.49" ry="18"/>
<text text-anchor="middle" x="302" y="-585.12" font-family="Times,serif" font-size="14.00">SPLIT</text>
<text text-anchor="middle" x="259.76" y="-611.37" font-family="Times,serif" font-size="14.00">12</text>
</g>
<!-- I0009&#45;&gt;I000C -->
<g id="edge13" class="edge">
<title>I0009&#45;&gt;I000C</title>
<path fill="none" stroke="black" stroke-dasharray="5,2" d="M263.63,-649.9C269.88,-640.33 277.93,-628.02 285.03,-617.14"/>
<polygon fill="black" stroke="black" points="287.85,-619.22 290.39,-608.94 281.99,-615.4 287.85,-619.22"/>
</g>
<!-- I0008&#45;&gt;I0018 -->
<g id="edge11" class="edge">
<title>I0008&#45;&gt;I0018</title>
<path fill="none" stroke="black" d="M187.54,-107.35C171.98,-95.23 151.8,-79.51 134.44,-65.99"/>
<polygon fill="black" stroke="black" points="136.89,-63.47 126.85,-60.08 132.59,-68.99 136.89,-63.47"/>
</g>
<!-- I000B -->
<g id="node13" class="node">
<title>I000B</title>
<polygon fill="#fbb4ae" stroke="black" points="250.25,-302.67 175.75,-302.67 175.75,-261.67 250.25,-261.67 250.25,-302.67"/>
<text text-anchor="middle" x="213" y="-285.37" font-family="Times,serif" font-size="14.00">RANGE</text>
<text text-anchor="middle" x="213" y="-268.87" font-family="Times,serif" font-size="14.00">\xA0&#45;\xBF</text>
<text text-anchor="middle" x="169" y="-305.87" font-family="Times,serif" font-size="14.00">11</text>
</g>
<!-- I000A&#45;&gt;I000B -->
<g id="edge14" class="edge">
<title>I000A&#45;&gt;I000B</title>
<path fill="none" stroke="black" d="M213,-569.56C213,-517.76 213,-376.95 213,-314.14"/>
<polygon fill="black" stroke="black" points="216.5,-314.52 213,-304.52 209.5,-314.52 216.5,-314.52"/>
</g>
<!-- I000D -->
<g id="node14" class="node">
<title>I000D</title>
<polygon fill="#fbb4ae" stroke="black" points="314.12,-533.67 241.88,-533.67 241.88,-492.67 314.12,-492.67 314.12,-533.67"/>
<text text-anchor="middle" x="278" y="-516.37" font-family="Times,serif" font-size="14.00">RANGE</text>
<text text-anchor="middle" x="278" y="-499.87" font-family="Times,serif" font-size="14.00">\xE1&#45;\xEF</text>
<text text-anchor="middle" x="235.12" y="-536.87" font-family="Times,serif" font-size="14.00">13</text>
</g>
<!-- I000C&#45;&gt;I000D -->
<g id="edge16" class="edge">
<title>I000C&#45;&gt;I000D</title>
<path fill="none" stroke="black" d="M296.55,-572.15C293.98,-564.1 290.82,-554.24 287.85,-544.94"/>
<polygon fill="black" stroke="black" points="291.2,-543.94 284.82,-535.48 284.53,-546.08 291.2,-543.94"/>
</g>
<!-- I000F -->
<g id="node15" class="node">
<title>I000F</title>
<ellipse fill="#b3cde3" stroke="black" cx="368" cy="-513.17" rx="35.49" ry="18"/>
<text text-anchor="middle" x="368" y="-508.12" font-family="Times,serif" font-size="14.00">SPLIT</text>
<text text-anchor="middle" x="325.76" y="-534.37" font-family="Times,serif" font-size="14.00">15</text>
</g>
<!-- I000C&#45;&gt;I000F -->
<g id="edge17" class="edge">
<title>I000C&#45;&gt;I000F</title>
<path fill="none" stroke="black" stroke-dasharray="5,2" d="M316,-573.27C324.83,-563.22 336.43,-550.04 346.43,-538.68"/>
<polygon fill="black" stroke="black" points="349.04,-541.01 353.02,-531.19 343.79,-536.38 349.04,-541.01"/>
</g>
<!-- I000B&#45;&gt;I0008 -->
<g id="edge15" class="edge">
<title>I000B&#45;&gt;I0008</title>
<path fill="none" stroke="black" d="M213,-261.3C213,-235.58 213,-190.49 213,-160.23"/>
<polygon fill="black" stroke="black" points="216.5,-160.56 213,-150.56 209.5,-160.56 216.5,-160.56"/>
</g>
<!-- I000E -->
<g id="node16" class="node">
<title>I000E</title>
<polygon fill="#fbb4ae" stroke="black" points="312.75,-225.67 241.25,-225.67 241.25,-184.67 312.75,-184.67 312.75,-225.67"/>
<text text-anchor="middle" x="277" y="-208.37" font-family="Times,serif" font-size="14.00">RANGE</text>
<text text-anchor="middle" x="277" y="-191.87" font-family="Times,serif" font-size="14.00">\x80&#45;\xBF</text>
<text text-anchor="middle" x="234.5" y="-228.87" font-family="Times,serif" font-size="14.00">14</text>
</g>
<!-- I000D&#45;&gt;I000E -->
<g id="edge18" class="edge">
<title>I000D&#45;&gt;I000E</title>
<path fill="none" stroke="black" d="M277.94,-492.56C277.77,-440.76 277.31,-299.95 277.1,-237.14"/>
<polygon fill="black" stroke="black" points="280.6,-237.51 277.07,-227.52 273.6,-237.54 280.6,-237.51"/>
</g>
<!-- I0010 -->
<g id="node17" class="node">
<title>I0010</title>
<polygon fill="#fbb4ae" stroke="black" points="377,-456.67 307,-456.67 307,-415.67 377,-415.67 377,-456.67"/>
<text text-anchor="middle" x="342" y="-439.37" font-family="Times,serif" font-size="14.00">RANGE</text>
<text text-anchor="middle" x="342" y="-422.87" font-family="Times,serif" font-size="14.00">\xF0&#45;\xF0</text>
<text text-anchor="middle" x="300.25" y="-459.87" font-family="Times,serif" font-size="14.00">16</text>
</g>
<!-- I000F&#45;&gt;I0010 -->
<g id="edge20" class="edge">
<title>I000F&#45;&gt;I0010</title>
<path fill="none" stroke="black" d="M362.1,-495.15C359.28,-487.01 355.81,-477.02 352.56,-467.63"/>
<polygon fill="black" stroke="black" points="355.97,-466.78 349.38,-458.47 349.35,-469.07 355.97,-466.78"/>
</g>
<!-- I0013 -->
<g id="node18" class="node">
<title>I0013</title>
<ellipse fill="#b3cde3" stroke="black" cx="431" cy="-436.17" rx="35.49" ry="18"/>
<text text-anchor="middle" x="431" y="-431.12" font-family="Times,serif" font-size="14.00">SPLIT</text>
<text text-anchor="middle" x="388.76" y="-457.37" font-family="Times,serif" font-size="14.00">19</text>
</g>
<!-- I000F&#45;&gt;I0013 -->
<g id="edge21" class="edge">
<title>I000F&#45;&gt;I0013</title>
<path fill="none" stroke="black" stroke-dasharray="5,2" d="M381.36,-496.27C389.8,-486.22 400.87,-473.04 410.41,-461.68"/>
<polygon fill="black" stroke="black" points="412.93,-464.12 416.69,-454.21 407.57,-459.62 412.93,-464.12"/>
</g>
<!-- I000E&#45;&gt;I0008 -->
<g id="edge19" class="edge">
<title>I000E&#45;&gt;I0008</title>
<path fill="none" stroke="black" d="M260.18,-184.47C253.19,-176.26 244.92,-166.58 237.29,-157.63"/>
<polygon fill="black" stroke="black" points="240.06,-155.49 230.91,-150.16 234.74,-160.03 240.06,-155.49"/>
</g>
<!-- I0011 -->
<g id="node19" class="node">
<title>I0011</title>
<polygon fill="#fbb4ae" stroke="black" points="377.75,-379.67 306.25,-379.67 306.25,-338.67 377.75,-338.67 377.75,-379.67"/>
<text text-anchor="middle" x="342" y="-362.37" font-family="Times,serif" font-size="14.00">RANGE</text>
<text text-anchor="middle" x="342" y="-345.87" font-family="Times,serif" font-size="14.00">\x90&#45;\xBF</text>
<text text-anchor="middle" x="299.5" y="-382.87" font-family="Times,serif" font-size="14.00">17</text>
</g>
<!-- I0010&#45;&gt;I0011 -->
<g id="edge22" class="edge">
<title>I0010&#45;&gt;I0011</title>
<path fill="none" stroke="black" d="M342,-415.47C342,-408.12 342,-399.58 342,-391.45"/>
<polygon fill="black" stroke="black" points="345.5,-391.52 342,-381.52 338.5,-391.52 345.5,-391.52"/>
</g>
<!-- I0014 -->
<g id="node21" class="node">
<title>I0014</title>
<polygon fill="#fbb4ae" stroke="black" points="466,-379.67 396,-379.67 396,-338.67 466,-338.67 466,-379.67"/>
<text text-anchor="middle" x="431" y="-362.37" font-family="Times,serif" font-size="14.00">RANGE</text>
<text text-anchor="middle" x="431" y="-345.87" font-family="Times,serif" font-size="14.00">\xF1&#45;\xF3</text>
<text text-anchor="middle" x="389.25" y="-382.87" font-family="Times,serif" font-size="14.00">20</text>
</g>
<!-- I0013&#45;&gt;I0014 -->
<g id="edge25" class="edge">
<title>I0013&#45;&gt;I0014</title>
<path fill="none" stroke="black" d="M431,-417.78C431,-409.95 431,-400.47 431,-391.48"/>
<polygon fill="black" stroke="black" points="434.5,-391.64 431,-381.64 427.5,-391.64 434.5,-391.64"/>
</g>
<!-- I0016 -->
<g id="node22" class="node">
<title>I0016</title>
<polygon fill="#fbb4ae" stroke="black" points="554,-379.67 484,-379.67 484,-338.67 554,-338.67 554,-379.67"/>
<text text-anchor="middle" x="519" y="-362.37" font-family="Times,serif" font-size="14.00">RANGE</text>
<text text-anchor="middle" x="519" y="-345.87" font-family="Times,serif" font-size="14.00">\xF4&#45;\xF4</text>
<text text-anchor="middle" x="477.25" y="-382.87" font-family="Times,serif" font-size="14.00">22</text>
</g>
<!-- I0013&#45;&gt;I0016 -->
<g id="edge26" class="edge">
<title>I0013&#45;&gt;I0016</title>
<path fill="none" stroke="black" stroke-dasharray="5,2" d="M448.39,-420.35C459.37,-410.99 473.91,-398.6 486.94,-387.5"/>
<polygon fill="black" stroke="black" points="489.16,-390.2 494.5,-381.05 484.62,-384.88 489.16,-390.2"/>
</g>
<!-- I0012 -->
<g id="node20" class="node">
<title>I0012</title>
<polygon fill="#fbb4ae" stroke="black" points="408.75,-225.67 337.25,-225.67 337.25,-184.67 408.75,-184.67 408.75,-225.67"/>
<text text-anchor="middle" x="373" y="-208.37" font-family="Times,serif" font-size="14.00">RANGE</text>
<text text-anchor="middle" x="373" y="-191.87" font-family="Times,serif" font-size="14.00">\x80&#45;\xBF</text>
<text text-anchor="middle" x="330.5" y="-228.87" font-family="Times,serif" font-size="14.00">18</text>
</g>
<!-- I0011&#45;&gt;I0012 -->
<g id="edge23" class="edge">
<title>I0011&#45;&gt;I0012</title>
<path fill="none" stroke="black" d="M346.05,-338.3C351.3,-312.58 360.49,-267.49 366.66,-237.23"/>
<polygon fill="black" stroke="black" points="370.07,-238.03 368.64,-227.53 363.22,-236.63 370.07,-238.03"/>
</g>
<!-- I0012&#45;&gt;I0008 -->
<g id="edge24" class="edge">
<title>I0012&#45;&gt;I0008</title>
<path fill="none" stroke="black" d="M337.09,-187.34C314.12,-176.57 284.08,-162.49 259.32,-150.88"/>
<polygon fill="black" stroke="black" points="260.97,-147.79 250.43,-146.72 258,-154.13 260.97,-147.79"/>
</g>
<!-- I0015 -->
<g id="node23" class="node">
<title>I0015</title>
<polygon fill="#fbb4ae" stroke="black" points="463.75,-302.67 392.25,-302.67 392.25,-261.67 463.75,-261.67 463.75,-302.67"/>
<text text-anchor="middle" x="428" y="-285.37" font-family="Times,serif" font-size="14.00">RANGE</text>
<text text-anchor="middle" x="428" y="-268.87" font-family="Times,serif" font-size="14.00">\x80&#45;\xBF</text>
<text text-anchor="middle" x="385.5" y="-305.87" font-family="Times,serif" font-size="14.00">21</text>
</g>
<!-- I0014&#45;&gt;I0015 -->
<g id="edge27" class="edge">
<title>I0014&#45;&gt;I0015</title>
<path fill="none" stroke="black" d="M430.21,-338.47C429.92,-331.12 429.58,-322.58 429.25,-314.45"/>
<polygon fill="black" stroke="black" points="432.75,-314.37 428.85,-304.52 425.76,-314.65 432.75,-314.37"/>
</g>
<!-- I0017 -->
<g id="node24" class="node">
<title>I0017</title>
<polygon fill="#fbb4ae" stroke="black" points="553.62,-302.67 484.38,-302.67 484.38,-261.67 553.62,-261.67 553.62,-302.67"/>
<text text-anchor="middle" x="519" y="-285.37" font-family="Times,serif" font-size="14.00">RANGE</text>
<text text-anchor="middle" x="519" y="-268.87" font-family="Times,serif" font-size="14.00">\x80&#45;\x8F</text>
<text text-anchor="middle" x="477.62" y="-305.87" font-family="Times,serif" font-size="14.00">23</text>
</g>
<!-- I0016&#45;&gt;I0017 -->
<g id="edge29" class="edge">
<title>I0016&#45;&gt;I0017</title>
<path fill="none" stroke="black" d="M519,-338.47C519,-331.12 519,-322.58 519,-314.45"/>
<polygon fill="black" stroke="black" points="522.5,-314.52 519,-304.52 515.5,-314.52 522.5,-314.52"/>
</g>
<!-- I0015&#45;&gt;I0012 -->
<g id="edge28" class="edge">
<title>I0015&#45;&gt;I0012</title>
<path fill="none" stroke="black" d="M413.55,-261.47C407.66,-253.43 400.73,-243.98 394.28,-235.19"/>
<polygon fill="black" stroke="black" points="397.18,-233.22 388.44,-227.23 391.53,-237.36 397.18,-233.22"/>
</g>
<!-- I0017&#45;&gt;I0012 -->
<g id="edge30" class="edge">
<title>I0017&#45;&gt;I0012</title>
<path fill="none" stroke="black" d="M484.03,-263.21C464.6,-253.23 440.18,-240.68 419.2,-229.9"/>
<polygon fill="black" stroke="black" points="421.05,-226.92 410.56,-225.46 417.85,-233.15 421.05,-226.92"/>
</g>
</g>
</svg>
