<?xml version="1.0" encoding="UTF-8" standalone="no"?>
<!DOCTYPE svg PUBLIC "-//W3C//DTD SVG 1.1//EN"
 "http://www.w3.org/Graphics/SVG/1.1/DTD/svg11.dtd">
<!-- Generated by graphviz version 11.0.0 (20240428.1522)
 -->
<!-- Title: D Pages: 1 -->
<svg width="234pt" height="534pt"
 viewBox="0.00 0.00 234.39 533.84" xmlns="http://www.w3.org/2000/svg" xmlns:xlink="http://www.w3.org/1999/xlink">
<g id="graph0" class="graph" transform="scale(1 1) rotate(0) translate(4 529.84)">
<title>D</title>
<polygon fill="white" stroke="none" points="-4,4 -4,-529.84 230.39,-529.84 230.39,4 -4,4"/>
<text text-anchor="middle" x="113.19" y="-508.54" font-family="sans-serif" font-size="14.00">program for &quot;(?i)a&quot;</text>
<!-- I0001 -->
<g id="node1" class="node">
<title>I0001</title>
<polygon fill="#ffffcc" stroke="black" points="209.28,-459.92 108.76,-485.59 8.25,-459.92 46.64,-418.39 170.88,-418.39 209.28,-459.92"/>
<text text-anchor="middle" x="108.76" y="-452.39" font-family="monospace" font-size="14.00">MATCH</text>
<text text-anchor="middle" x="108.76" y="-435.14" font-family="monospace" font-size="14.00"> set 1 begin</text>
<text text-anchor="middle" x="4.12" y="-489.54" font-family="monospace" font-size="14.00">1</text>
</g>
<!-- I0002 -->
<g id="node2" class="node">
<title>I0002</title>
<ellipse fill="#b3cde3" stroke="black" cx="108.76" cy="-357.29" rx="40.16" ry="18"/>
<text text-anchor="middle" x="108.76" y="-352.62" font-family="monospace" font-size="14.00">SPLIT</text>
<text text-anchor="middle" x="64.48" y="-379.24" font-family="monospace" font-size="14.00">2</text>
</g>
<!-- I0001&#45;&gt;I0002 -->
<g id="edge1" class="edge">
<title>I0001&#45;&gt;I0002</title>
<path fill="none" stroke="black" d="M108.76,-418.25C108.76,-408.21 108.76,-396.99 108.76,-386.99"/>
<polygon fill="black" stroke="black" points="112.26,-387.08 108.76,-377.08 105.26,-387.08 112.26,-387.08"/>
</g>
<!-- I0003 -->
<g id="node3" class="node">
<title>I0003</title>
<polygon fill="#fbb4ae" stroke="black" points="94.39,-303.29 37.14,-303.29 37.14,-260.79 94.39,-260.79 94.39,-303.29"/>
<text text-anchor="middle" x="65.76" y="-285.99" font-family="monospace" font-size="14.00">RANGE</text>
<text text-anchor="middle" x="65.76" y="-268.74" font-family="monospace" font-size="14.00">a&#45;a</text>
<text text-anchor="middle" x="33.01" y="-307.24" font-family="monospace" font-size="14.00">3</text>
</g>
<!-- I0002&#45;&gt;I0003 -->
<g id="edge2" class="edge">
<title>I0002&#45;&gt;I0003</title>
<path fill="none" stroke="black" d="M99.01,-339.67C94.47,-331.94 88.93,-322.5 83.68,-313.56"/>
<polygon fill="black" stroke="black" points="86.79,-311.95 78.71,-305.1 80.75,-315.49 86.79,-311.95"/>
</g>
<!-- I0004 -->
<g id="node4" class="node">
<title>I0004</title>
<ellipse fill="#b3cde3" stroke="black" cx="152.76" cy="-282.04" rx="40.16" ry="18"/>
<text text-anchor="middle" x="152.76" y="-277.37" font-family="monospace" font-size="14.00">SPLIT</text>
<text text-anchor="middle" x="108.48" y="-303.99" font-family="monospace" font-size="14.00">4</text>
</g>
<!-- I0002&#45;&gt;I0004 -->
<g id="edge3" class="edge">
<title>I0002&#45;&gt;I0004</title>
<path fill="none" stroke="black" stroke-dasharray="5,2" d="M118.75,-339.67C124.11,-330.74 130.85,-319.53 136.91,-309.44"/>
<polygon fill="black" stroke="black" points="139.74,-311.52 141.89,-301.15 133.74,-307.92 139.74,-311.52"/>
</g>
<!-- I0007 -->
<g id="node5" class="node">
<title>I0007</title>
<polygon fill="#ffffcc" stroke="black" points="208.86,-120.63 122.76,-146.29 36.67,-120.63 69.56,-79.09 175.97,-79.09 208.86,-120.63"/>
<text text-anchor="middle" x="122.76" y="-113.1" font-family="monospace" font-size="14.00">MATCH</text>
<text text-anchor="middle" x="122.76" y="-95.85" font-family="monospace" font-size="14.00"> set 1 end</text>
<text text-anchor="middle" x="32.55" y="-150.24" font-family="monospace" font-size="14.00">7</text>
</g>
<!-- I0003&#45;&gt;I0007 -->
<g id="edge4" class="edge">
<title>I0003&#45;&gt;I0007</title>
<path fill="none" stroke="black" d="M67.92,-260.54C70.47,-240.24 75.57,-208.49 84.76,-182.29 88.45,-171.78 93.46,-160.92 98.63,-150.91"/>
<polygon fill="black" stroke="black" points="101.67,-152.64 103.32,-142.18 95.5,-149.34 101.67,-152.64"/>
</g>
<!-- I0005 -->
<g id="node6" class="node">
<title>I0005</title>
<polygon fill="#fbb4ae" stroke="black" points="151.39,-224.79 94.14,-224.79 94.14,-182.29 151.39,-182.29 151.39,-224.79"/>
<text text-anchor="middle" x="122.76" y="-207.49" font-family="monospace" font-size="14.00">RANGE</text>
<text text-anchor="middle" x="122.76" y="-190.24" font-family="monospace" font-size="14.00">A&#45;A</text>
<text text-anchor="middle" x="90.01" y="-228.74" font-family="monospace" font-size="14.00">5</text>
</g>
<!-- I0004&#45;&gt;I0005 -->
<g id="edge5" class="edge">
<title>I0004&#45;&gt;I0005</title>
<path fill="none" stroke="black" d="M146.11,-264.06C142.84,-255.75 138.81,-245.47 135.02,-235.8"/>
<polygon fill="black" stroke="black" points="138.36,-234.73 131.45,-226.7 131.84,-237.29 138.36,-234.73"/>
</g>
<!-- I0006 -->
<g id="node7" class="node">
<title>I0006</title>
<polygon fill="#fbb4ae" stroke="black" points="226.39,-224.79 169.14,-224.79 169.14,-182.29 226.39,-182.29 226.39,-224.79"/>
<text text-anchor="middle" x="197.76" y="-207.49" font-family="monospace" font-size="14.00">RANGE</text>
<text text-anchor="middle" x="197.76" y="-190.24" font-family="monospace" font-size="14.00">a&#45;a</text>
<text text-anchor="middle" x="165.01" y="-228.74" font-family="monospace" font-size="14.00">6</text>
</g>
<!-- I0004&#45;&gt;I0006 -->
<g id="edge6" class="edge">
<title>I0004&#45;&gt;I0006</title>
<path fill="none" stroke="black" stroke-dasharray="5,2" d="M162.53,-264.44C167.61,-255.81 173.98,-244.98 179.9,-234.91"/>
<polygon fill="black" stroke="black" points="182.79,-236.9 184.84,-226.51 176.75,-233.35 182.79,-236.9"/>
</g>
<!-- I0000 -->
<g id="node8" class="node">
<title>I0000</title>
<ellipse fill="none" stroke="black" cx="122.76" cy="-18" rx="40.16" ry="18"/>
<text text-anchor="middle" x="122.76" y="-13.32" font-family="monospace" font-size="14.00">I0000</text>
</g>
<!-- I0007&#45;&gt;I0000 -->
<g id="edge9" class="edge">
<title>I0007&#45;&gt;I0000</title>
<path fill="none" stroke="black" d="M122.76,-78.96C122.76,-68.92 122.76,-57.7 122.76,-47.7"/>
<polygon fill="black" stroke="black" points="126.26,-47.79 122.76,-37.79 119.26,-47.79 126.26,-47.79"/>
</g>
<!-- I0005&#45;&gt;I0007 -->
<g id="edge7" class="edge">
<title>I0005&#45;&gt;I0007</title>
<path fill="none" stroke="black" d="M122.76,-182.04C122.76,-174.87 122.76,-166.5 122.76,-158.05"/>
<polygon fill="black" stroke="black" points="126.26,-158.1 122.76,-148.1 119.26,-158.1 126.26,-158.1"/>
</g>
<!-- I0006&#45;&gt;I0007 -->
<g id="edge8" class="edge">
<title>I0006&#45;&gt;I0007</title>
<path fill="none" stroke="black" d="M181.12,-182.04C173,-172.04 162.98,-159.69 153.54,-148.06"/>
<polygon fill="black" stroke="black" points="156.45,-146.09 147.43,-140.53 151.01,-150.5 156.45,-146.09"/>
</g>
</g>
</svg>
