<?xml version="1.0" encoding="UTF-8" standalone="no"?>
<!DOCTYPE svg PUBLIC "-//W3C//DTD SVG 1.1//EN"
 "http://www.w3.org/Graphics/SVG/1.1/DTD/svg11.dtd">
<!-- Generated by graphviz version 11.0.0 (20240428.1522)
 -->
<!-- Title: D Pages: 1 -->
<svg width="217pt" height="454pt"
 viewBox="0.00 0.00 217.25 454.34" xmlns="http://www.w3.org/2000/svg" xmlns:xlink="http://www.w3.org/1999/xlink">
<g id="graph0" class="graph" transform="scale(1 1) rotate(0) translate(4 450.34)">
<title>D</title>
<polygon fill="white" stroke="none" points="-4,4 -4,-450.34 213.25,-450.34 213.25,4 -4,4"/>
<text text-anchor="middle" x="104.62" y="-429.04" font-family="Times,serif" font-size="14.00">program for &quot;(?i)a&quot;</text>
<!-- I0001 -->
<g id="node1" class="node">
<title>I0001</title>
<polygon fill="#ffffcc" stroke="black" points="135.94,-380.58 80,-405.34 24.06,-380.58 45.43,-340.51 114.57,-340.51 135.94,-380.58"/>
<text text-anchor="middle" x="80" y="-372.71" font-family="Times,serif" font-size="14.00">MATCH</text>
<text text-anchor="middle" x="80" y="-356.21" font-family="Times,serif" font-size="14.00">set 1</text>
<text text-anchor="middle" x="20.69" y="-408.54" font-family="Times,serif" font-size="14.00">1</text>
</g>
<!-- I0002 -->
<g id="node2" class="node">
<title>I0002</title>
<ellipse fill="#b3cde3" stroke="black" cx="80" cy="-279.67" rx="35.49" ry="18"/>
<text text-anchor="middle" x="80" y="-274.62" font-family="Times,serif" font-size="14.00">SPLIT</text>
<text text-anchor="middle" x="41.14" y="-300.87" font-family="Times,serif" font-size="14.00">2</text>
</g>
<!-- I0001&#45;&gt;I0002 -->
<g id="edge1" class="edge">
<title>I0001&#45;&gt;I0002</title>
<path fill="none" stroke="black" d="M80,-340.23C80,-330.39 80,-319.34 80,-309.46"/>
<polygon fill="black" stroke="black" points="83.5,-309.66 80,-299.66 76.5,-309.66 83.5,-309.66"/>
</g>
<!-- I0003 -->
<g id="node3" class="node">
<title>I0003</title>
<polygon fill="#fbb4ae" stroke="black" points="69.25,-225.67 6.75,-225.67 6.75,-184.67 69.25,-184.67 69.25,-225.67"/>
<text text-anchor="middle" x="38" y="-208.37" font-family="Times,serif" font-size="14.00">RANGE</text>
<text text-anchor="middle" x="38" y="-191.87" font-family="Times,serif" font-size="14.00">a&#45;a</text>
<text text-anchor="middle" x="3.38" y="-228.87" font-family="Times,serif" font-size="14.00">3</text>
</g>
<!-- I0002&#45;&gt;I0003 -->
<g id="edge2" class="edge">
<title>I0002&#45;&gt;I0003</title>
<path fill="none" stroke="black" d="M70.47,-262.22C65.93,-254.39 60.37,-244.78 55.13,-235.74"/>
<polygon fill="black" stroke="black" points="58.23,-234.12 50.19,-227.22 52.18,-237.63 58.23,-234.12"/>
</g>
<!-- I0004 -->
<g id="node4" class="node">
<title>I0004</title>
<ellipse fill="#b3cde3" stroke="black" cx="123" cy="-205.17" rx="35.49" ry="18"/>
<text text-anchor="middle" x="123" y="-200.12" font-family="Times,serif" font-size="14.00">SPLIT</text>
<text text-anchor="middle" x="84.14" y="-226.37" font-family="Times,serif" font-size="14.00">4</text>
</g>
<!-- I0002&#45;&gt;I0004 -->
<g id="edge3" class="edge">
<title>I0002&#45;&gt;I0004</title>
<path fill="none" stroke="black" stroke-dasharray="5,2" d="M89.76,-262.22C94.94,-253.48 101.44,-242.51 107.32,-232.61"/>
<polygon fill="black" stroke="black" points="110.27,-234.5 112.36,-224.11 104.25,-230.93 110.27,-234.5"/>
</g>
<!-- I0007 -->
<g id="node5" class="node">
<title>I0007</title>
<polygon fill="#ffffcc" stroke="black" points="152.94,-46.91 97,-71.67 41.06,-46.91 62.43,-6.84 131.57,-6.84 152.94,-46.91"/>
<text text-anchor="middle" x="97" y="-39.04" font-family="Times,serif" font-size="14.00">MATCH</text>
<text text-anchor="middle" x="97" y="-22.54" font-family="Times,serif" font-size="14.00">slot 0</text>
<text text-anchor="middle" x="37.69" y="-74.87" font-family="Times,serif" font-size="14.00">7</text>
</g>
<!-- I0003&#45;&gt;I0007 -->
<g id="edge4" class="edge">
<title>I0003&#45;&gt;I0007</title>
<path fill="none" stroke="black" d="M40.01,-184.45C42.47,-164.58 47.52,-133.29 57,-107.67 61.23,-96.23 67.16,-84.44 73.16,-73.85"/>
<polygon fill="black" stroke="black" points="76.07,-75.8 78.12,-65.41 70.04,-72.26 76.07,-75.8"/>
</g>
<!-- I0005 -->
<g id="node6" class="node">
<title>I0005</title>
<polygon fill="#fbb4ae" stroke="black" points="128.25,-148.67 65.75,-148.67 65.75,-107.67 128.25,-107.67 128.25,-148.67"/>
<text text-anchor="middle" x="97" y="-131.37" font-family="Times,serif" font-size="14.00">RANGE</text>
<text text-anchor="middle" x="97" y="-114.87" font-family="Times,serif" font-size="14.00">A&#45;A</text>
<text text-anchor="middle" x="62.38" y="-151.87" font-family="Times,serif" font-size="14.00">5</text>
</g>
<!-- I0004&#45;&gt;I0005 -->
<g id="edge5" class="edge">
<title>I0004&#45;&gt;I0005</title>
<path fill="none" stroke="black" d="M117.1,-187.15C114.28,-179.01 110.81,-169.02 107.56,-159.63"/>
<polygon fill="black" stroke="black" points="110.97,-158.78 104.38,-150.47 104.35,-161.07 110.97,-158.78"/>
</g>
<!-- I0006 -->
<g id="node7" class="node">
<title>I0006</title>
<polygon fill="#fbb4ae" stroke="black" points="209.25,-148.67 146.75,-148.67 146.75,-107.67 209.25,-107.67 209.25,-148.67"/>
<text text-anchor="middle" x="178" y="-131.37" font-family="Times,serif" font-size="14.00">RANGE</text>
<text text-anchor="middle" x="178" y="-114.87" font-family="Times,serif" font-size="14.00">a&#45;a</text>
<text text-anchor="middle" x="143.38" y="-151.87" font-family="Times,serif" font-size="14.00">6</text>
</g>
<!-- I0004&#45;&gt;I0006 -->
<g id="edge6" class="edge">
<title>I0004&#45;&gt;I0006</title>
<path fill="none" stroke="black" stroke-dasharray="5,2" d="M134.93,-187.9C141.25,-179.28 149.21,-168.43 156.56,-158.41"/>
<polygon fill="black" stroke="black" points="159.36,-160.51 162.45,-150.37 153.72,-156.37 159.36,-160.51"/>
</g>
<!-- I0005&#45;&gt;I0007 -->
<g id="edge7" class="edge">
<title>I0005&#45;&gt;I0007</title>
<path fill="none" stroke="black" d="M97,-107.57C97,-100.43 97,-92.03 97,-83.55"/>
<polygon fill="black" stroke="black" points="100.5,-83.57 97,-73.57 93.5,-83.57 100.5,-83.57"/>
</g>
<!-- I0006&#45;&gt;I0007 -->
<g id="edge8" class="edge">
<title>I0006&#45;&gt;I0007</title>
<path fill="none" stroke="black" d="M160.42,-107.57C150.67,-96.69 138.27,-82.86 127.03,-70.33"/>
<polygon fill="black" stroke="black" points="129.77,-68.14 120.49,-63.03 124.56,-72.81 129.77,-68.14"/>
</g>
</g>
</svg>
