<?xml version="1.0" encoding="UTF-8" standalone="no"?>
<!DOCTYPE svg PUBLIC "-//W3C//DTD SVG 1.1//EN"
 "http://www.w3.org/Graphics/SVG/1.1/DTD/svg11.dtd">
<!-- Generated by graphviz version 11.0.0 (20240428.1522)
 -->
<!-- Title: D Pages: 1 -->
<svg width="206pt" height="462pt"
 viewBox="0.00 0.00 205.50 461.84" xmlns="http://www.w3.org/2000/svg" xmlns:xlink="http://www.w3.org/1999/xlink">
<g id="graph0" class="graph" transform="scale(1 1) rotate(0) translate(4 457.84)">
<title>D</title>
<polygon fill="white" stroke="none" points="-4,4 -4,-457.84 201.5,-457.84 201.5,4 -4,4"/>
<text text-anchor="middle" x="98.75" y="-436.54" font-family="sans-serif" font-size="14.00">program for &quot;(?i)a&quot;</text>
<!-- I0001 -->
<g id="node1" class="node">
<title>I0001</title>
<polygon fill="#ffffcc" stroke="black" points="129.91,-387.92 79.88,-413.59 29.84,-387.92 48.95,-346.39 110.8,-346.39 129.91,-387.92"/>
<text text-anchor="middle" x="79.88" y="-380.39" font-family="monospace" font-size="14.00">MATCH</text>
<text text-anchor="middle" x="79.88" y="-363.14" font-family="monospace" font-size="14.00">set 1</text>
<text text-anchor="middle" x="25.71" y="-417.54" font-family="monospace" font-size="14.00">1</text>
</g>
<!-- I0002 -->
<g id="node2" class="node">
<title>I0002</title>
<ellipse fill="#b3cde3" stroke="black" cx="79.88" cy="-285.29" rx="40.16" ry="18"/>
<text text-anchor="middle" x="79.88" y="-280.62" font-family="monospace" font-size="14.00">SPLIT</text>
<text text-anchor="middle" x="35.59" y="-307.24" font-family="monospace" font-size="14.00">2</text>
</g>
<!-- I0001&#45;&gt;I0002 -->
<g id="edge1" class="edge">
<title>I0001&#45;&gt;I0002</title>
<path fill="none" stroke="black" d="M79.88,-346.25C79.88,-336.21 79.88,-324.99 79.88,-314.99"/>
<polygon fill="black" stroke="black" points="83.38,-315.08 79.88,-305.08 76.38,-315.08 83.38,-315.08"/>
</g>
<!-- I0003 -->
<g id="node3" class="node">
<title>I0003</title>
<polygon fill="#fbb4ae" stroke="black" points="65.5,-231.29 8.25,-231.29 8.25,-188.79 65.5,-188.79 65.5,-231.29"/>
<text text-anchor="middle" x="36.88" y="-213.99" font-family="monospace" font-size="14.00">RANGE</text>
<text text-anchor="middle" x="36.88" y="-196.74" font-family="monospace" font-size="14.00">a&#45;a</text>
<text text-anchor="middle" x="4.12" y="-235.24" font-family="monospace" font-size="14.00">3</text>
</g>
<!-- I0002&#45;&gt;I0003 -->
<g id="edge2" class="edge">
<title>I0002&#45;&gt;I0003</title>
<path fill="none" stroke="black" d="M70.12,-267.67C65.58,-259.94 60.04,-250.5 54.79,-241.56"/>
<polygon fill="black" stroke="black" points="57.9,-239.95 49.82,-233.1 51.87,-243.49 57.9,-239.95"/>
</g>
<!-- I0004 -->
<g id="node4" class="node">
<title>I0004</title>
<ellipse fill="#b3cde3" stroke="black" cx="123.88" cy="-210.04" rx="40.16" ry="18"/>
<text text-anchor="middle" x="123.88" y="-205.37" font-family="monospace" font-size="14.00">SPLIT</text>
<text text-anchor="middle" x="79.59" y="-231.99" font-family="monospace" font-size="14.00">4</text>
</g>
<!-- I0002&#45;&gt;I0004 -->
<g id="edge3" class="edge">
<title>I0002&#45;&gt;I0004</title>
<path fill="none" stroke="black" stroke-dasharray="5,2" d="M89.86,-267.67C95.22,-258.74 101.96,-247.53 108.02,-237.44"/>
<polygon fill="black" stroke="black" points="110.85,-239.52 113,-229.15 104.85,-235.92 110.85,-239.52"/>
</g>
<!-- I0007 -->
<g id="node5" class="node">
<title>I0007</title>
<polygon fill="#ffffcc" stroke="black" points="151.12,-48.63 93.88,-74.29 36.63,-48.63 58.49,-7.09 129.26,-7.09 151.12,-48.63"/>
<text text-anchor="middle" x="93.88" y="-41.1" font-family="monospace" font-size="14.00">MATCH</text>
<text text-anchor="middle" x="93.88" y="-23.85" font-family="monospace" font-size="14.00">slot 0</text>
<text text-anchor="middle" x="32.5" y="-78.24" font-family="monospace" font-size="14.00">7</text>
</g>
<!-- I0003&#45;&gt;I0007 -->
<g id="edge4" class="edge">
<title>I0003&#45;&gt;I0007</title>
<path fill="none" stroke="black" d="M39.03,-188.54C41.58,-168.24 46.68,-136.49 55.88,-110.29 59.85,-98.95 65.37,-87.2 70.97,-76.56"/>
<polygon fill="black" stroke="black" points="73.88,-78.53 75.59,-68.08 67.73,-75.18 73.88,-78.53"/>
</g>
<!-- I0005 -->
<g id="node6" class="node">
<title>I0005</title>
<polygon fill="#fbb4ae" stroke="black" points="122.5,-152.79 65.25,-152.79 65.25,-110.29 122.5,-110.29 122.5,-152.79"/>
<text text-anchor="middle" x="93.88" y="-135.49" font-family="monospace" font-size="14.00">RANGE</text>
<text text-anchor="middle" x="93.88" y="-118.24" font-family="monospace" font-size="14.00">A&#45;A</text>
<text text-anchor="middle" x="61.12" y="-156.74" font-family="monospace" font-size="14.00">5</text>
</g>
<!-- I0004&#45;&gt;I0005 -->
<g id="edge5" class="edge">
<title>I0004&#45;&gt;I0005</title>
<path fill="none" stroke="black" d="M117.22,-192.06C113.96,-183.75 109.92,-173.47 106.13,-163.8"/>
<polygon fill="black" stroke="black" points="109.47,-162.73 102.56,-154.7 102.96,-165.29 109.47,-162.73"/>
</g>
<!-- I0006 -->
<g id="node7" class="node">
<title>I0006</title>
<polygon fill="#fbb4ae" stroke="black" points="197.5,-152.79 140.25,-152.79 140.25,-110.29 197.5,-110.29 197.5,-152.79"/>
<text text-anchor="middle" x="168.88" y="-135.49" font-family="monospace" font-size="14.00">RANGE</text>
<text text-anchor="middle" x="168.88" y="-118.24" font-family="monospace" font-size="14.00">a&#45;a</text>
<text text-anchor="middle" x="136.12" y="-156.74" font-family="monospace" font-size="14.00">6</text>
</g>
<!-- I0004&#45;&gt;I0006 -->
<g id="edge6" class="edge">
<title>I0004&#45;&gt;I0006</title>
<path fill="none" stroke="black" stroke-dasharray="5,2" d="M133.64,-192.44C138.72,-183.81 145.09,-172.98 151.01,-162.91"/>
<polygon fill="black" stroke="black" points="153.9,-164.9 155.95,-154.51 147.87,-161.35 153.9,-164.9"/>
</g>
<!-- I0005&#45;&gt;I0007 -->
<g id="edge7" class="edge">
<title>I0005&#45;&gt;I0007</title>
<path fill="none" stroke="black" d="M93.88,-110.04C93.88,-102.87 93.88,-94.5 93.88,-86.05"/>
<polygon fill="black" stroke="black" points="97.38,-86.1 93.88,-76.1 90.38,-86.1 97.38,-86.1"/>
</g>
<!-- I0006&#45;&gt;I0007 -->
<g id="edge8" class="edge">
<title>I0006&#45;&gt;I0007</title>
<path fill="none" stroke="black" d="M152.23,-110.04C143.55,-99.34 132.68,-85.95 122.68,-73.64"/>
<polygon fill="black" stroke="black" points="125.58,-71.65 116.56,-66.09 120.14,-76.06 125.58,-71.65"/>
</g>
</g>
</svg>
