<?xml version="1.0" encoding="UTF-8" standalone="no"?>
<!DOCTYPE svg PUBLIC "-//W3C//DTD SVG 1.1//EN"
 "http://www.w3.org/Graphics/SVG/1.1/DTD/svg11.dtd">
<!-- Generated by graphviz version 11.0.0 (20240428.1522)
 -->
<!-- Title: D Pages: 1 -->
<svg width="244pt" height="398pt"
 viewBox="0.00 0.00 244.00 398.45" xmlns="http://www.w3.org/2000/svg" xmlns:xlink="http://www.w3.org/1999/xlink">
<g id="graph0" class="graph" transform="scale(1 1) rotate(0) translate(4 394.45)">
<title>D</title>
<polygon fill="white" stroke="none" points="-4,4 -4,-394.45 240,-394.45 240,4 -4,4"/>
<text text-anchor="middle" x="118" y="-373.15" font-family="Times,serif" font-size="14.00">ast for &quot;(?i)a&quot;</text>
<g id="clust1" class="cluster">
<title>cluster_000A</title>
<polygon fill="#f7f7f7" stroke="black" points="8,-8 8,-357.95 228,-357.95 228,-8 8,-8"/>
</g>
<g id="clust2" class="cluster">
<title>cluster_0007</title>
<polygon fill="#d9d9d9" stroke="black" points="16,-16 16,-263.97 220,-263.97 220,-16 16,-16"/>
</g>
<g id="clust4" class="cluster">
<title>cluster_0001</title>
<polygon fill="#bdbdbd" stroke="black" points="102,-24 102,-191.97 212,-191.97 212,-24 102,-24"/>
</g>
<!-- A000A -->
<g id="node1" class="node">
<title>A000A</title>
<ellipse fill="none" stroke="black" cx="108" cy="-320.96" rx="43.66" ry="28.99"/>
<text text-anchor="middle" x="108" y="-324.16" font-family="Times,serif" font-size="14.00">GROUP</text>
<text text-anchor="middle" x="108" y="-307.66" font-family="Times,serif" font-size="14.00">R</text>
</g>
<!-- A0007 -->
<g id="node2" class="node">
<title>A0007</title>
<ellipse fill="none" stroke="black" cx="108" cy="-237.97" rx="28.32" ry="18"/>
<text text-anchor="middle" x="108" y="-232.92" font-family="Times,serif" font-size="14.00">CAT</text>
</g>
<!-- A000A&#45;&gt;A0007 -->
<g id="edge4" class="edge">
<title>A000A&#45;&gt;A0007</title>
<path fill="none" stroke="black" d="M108,-291.63C108,-283.75 108,-275.2 108,-267.32"/>
<polygon fill="black" stroke="black" points="111.5,-267.57 108,-257.57 104.5,-267.57 111.5,-267.57"/>
</g>
<!-- A0000 -->
<g id="node3" class="node">
<title>A0000</title>
<ellipse fill="none" stroke="black" cx="58" cy="-154.97" rx="34.46" ry="18"/>
<text text-anchor="middle" x="58" y="-149.92" font-family="Times,serif" font-size="14.00">&lt;eps&gt;</text>
</g>
<!-- A0007&#45;&gt;A0000 -->
<g id="edge1" class="edge">
<title>A0007&#45;&gt;A0000</title>
<path fill="none" stroke="black" d="M98.12,-220.96C91.29,-209.91 82.06,-194.94 74.17,-182.16"/>
<polygon fill="black" stroke="black" points="77.23,-180.46 69,-173.79 71.27,-184.13 77.23,-180.46"/>
</g>
<!-- A0001 -->
<g id="node4" class="node">
<title>A0001</title>
<ellipse fill="none" stroke="black" cx="157" cy="-154.97" rx="46.85" ry="28.99"/>
<text text-anchor="middle" x="157" y="-158.17" font-family="Times,serif" font-size="14.00">IGROUP</text>
<text text-anchor="middle" x="157" y="-141.67" font-family="Times,serif" font-size="14.00">i:</text>
</g>
<!-- A0007&#45;&gt;A0001 -->
<g id="edge3" class="edge">
<title>A0007&#45;&gt;A0001</title>
<path fill="none" stroke="black" stroke-dasharray="5,2" d="M117.68,-220.96C122.66,-212.74 128.95,-202.34 135.02,-192.3"/>
<polygon fill="black" stroke="black" points="138.01,-194.13 140.19,-183.76 132.02,-190.5 138.01,-194.13"/>
</g>
<!-- A0005 -->
<g id="node5" class="node">
<title>A0005</title>
<ellipse fill="none" stroke="black" cx="157" cy="-60.99" rx="30.94" ry="28.99"/>
<text text-anchor="middle" x="157" y="-64.19" font-family="Times,serif" font-size="14.00">CHR</text>
<text text-anchor="middle" x="157" y="-47.69" font-family="Times,serif" font-size="14.00">a</text>
</g>
<!-- A0001&#45;&gt;A0005 -->
<g id="edge2" class="edge">
<title>A0001&#45;&gt;A0005</title>
<path fill="none" stroke="black" d="M157,-125.63C157,-118.11 157,-109.85 157,-101.84"/>
<polygon fill="black" stroke="black" points="160.5,-101.92 157,-91.92 153.5,-101.92 160.5,-101.92"/>
</g>
</g>
</svg>
