<?xml version="1.0" encoding="UTF-8" standalone="no"?>
<!DOCTYPE svg PUBLIC "-//W3C//DTD SVG 1.1//EN"
 "http://www.w3.org/Graphics/SVG/1.1/DTD/svg11.dtd">
<!-- Generated by graphviz version 11.0.0 (20240428.1522)
 -->
<!-- Title: D Pages: 1 -->
<svg width="336pt" height="455pt"
 viewBox="0.00 0.00 335.86 455.34" xmlns="http://www.w3.org/2000/svg" xmlns:xlink="http://www.w3.org/1999/xlink">
<g id="graph0" class="graph" transform="scale(1 1) rotate(0) translate(4 451.34)">
<title>D</title>
<polygon fill="white" stroke="none" points="-4,4 -4,-451.34 331.86,-451.34 331.86,4 -4,4"/>
<text text-anchor="middle" x="163.93" y="-430.04" font-family="sans-serif" font-size="14.00">program for &quot;a+&quot;</text>
<!-- I0001 -->
<g id="node1" class="node">
<title>I0001</title>
<polygon fill="#ffffcc" stroke="black" points="209.28,-381.42 108.76,-407.09 8.25,-381.42 46.64,-339.89 170.88,-339.89 209.28,-381.42"/>
<text text-anchor="middle" x="108.76" y="-373.89" font-family="monospace" font-size="14.00">MATCH</text>
<text text-anchor="middle" x="108.76" y="-356.64" font-family="monospace" font-size="14.00"> set 1 begin</text>
<text text-anchor="middle" x="4.12" y="-411.04" font-family="monospace" font-size="14.00">1</text>
</g>
<!-- I0002 -->
<g id="node2" class="node">
<title>I0002</title>
<polygon fill="#fbb4ae" stroke="black" points="137.39,-296.79 80.14,-296.79 80.14,-254.29 137.39,-254.29 137.39,-296.79"/>
<text text-anchor="middle" x="108.76" y="-279.49" font-family="monospace" font-size="14.00">RANGE</text>
<text text-anchor="middle" x="108.76" y="-262.24" font-family="monospace" font-size="14.00">a&#45;a</text>
<text text-anchor="middle" x="76.01" y="-300.74" font-family="monospace" font-size="14.00">2</text>
</g>
<!-- I0001&#45;&gt;I0002 -->
<g id="edge1" class="edge">
<title>I0001&#45;&gt;I0002</title>
<path fill="none" stroke="black" d="M108.76,-339.45C108.76,-329.58 108.76,-318.54 108.76,-308.49"/>
<polygon fill="black" stroke="black" points="112.26,-308.79 108.76,-298.79 105.26,-308.79 112.26,-308.79"/>
</g>
<!-- I0003 -->
<g id="node3" class="node">
<title>I0003</title>
<ellipse fill="#b3cde3" stroke="black" cx="108.76" cy="-200.29" rx="40.16" ry="18"/>
<text text-anchor="middle" x="108.76" y="-195.62" font-family="monospace" font-size="14.00">SPLIT</text>
<text text-anchor="middle" x="64.48" y="-222.24" font-family="monospace" font-size="14.00">3</text>
</g>
<!-- I0002&#45;&gt;I0003 -->
<g id="edge2" class="edge">
<title>I0002&#45;&gt;I0003</title>
<path fill="none" stroke="black" d="M108.76,-254.14C108.76,-246.63 108.76,-237.98 108.76,-229.88"/>
<polygon fill="black" stroke="black" points="112.26,-230.12 108.76,-220.12 105.26,-230.12 112.26,-230.12"/>
</g>
<!-- I0004 -->
<g id="node4" class="node">
<title>I0004</title>
<polygon fill="#fbb4ae" stroke="black" points="137.39,-130.4 80.14,-130.4 80.14,-87.9 137.39,-87.9 137.39,-130.4"/>
<text text-anchor="middle" x="108.76" y="-113.1" font-family="monospace" font-size="14.00">RANGE</text>
<text text-anchor="middle" x="108.76" y="-95.85" font-family="monospace" font-size="14.00">a&#45;a</text>
<text text-anchor="middle" x="76.01" y="-134.35" font-family="monospace" font-size="14.00">4</text>
</g>
<!-- I0003&#45;&gt;I0004 -->
<g id="edge3" class="edge">
<title>I0003&#45;&gt;I0004</title>
<path fill="none" stroke="black" d="M103.31,-182.1C102.07,-170.76 101.72,-155.54 102.26,-142.02"/>
<polygon fill="black" stroke="black" points="105.74,-142.43 102.88,-132.23 98.76,-142 105.74,-142.43"/>
</g>
<!-- I0005 -->
<g id="node5" class="node">
<title>I0005</title>
<polygon fill="#ffffcc" stroke="black" points="327.86,-120.63 241.76,-146.29 155.67,-120.63 188.56,-79.09 294.97,-79.09 327.86,-120.63"/>
<text text-anchor="middle" x="241.76" y="-113.1" font-family="monospace" font-size="14.00">MATCH</text>
<text text-anchor="middle" x="241.76" y="-95.85" font-family="monospace" font-size="14.00"> set 1 end</text>
<text text-anchor="middle" x="151.55" y="-150.24" font-family="monospace" font-size="14.00">5</text>
</g>
<!-- I0003&#45;&gt;I0005 -->
<g id="edge4" class="edge">
<title>I0003&#45;&gt;I0005</title>
<path fill="none" stroke="black" stroke-dasharray="5,2" d="M130.43,-184.77C147.74,-173.17 172.64,-156.48 194.51,-141.82"/>
<polygon fill="black" stroke="black" points="196.36,-144.79 202.72,-136.32 192.47,-138.98 196.36,-144.79"/>
</g>
<!-- I0004&#45;&gt;I0003 -->
<g id="edge5" class="edge">
<title>I0004&#45;&gt;I0003</title>
<path fill="none" stroke="black" d="M114.56,-130.72C115.61,-142.65 115.79,-157.83 115.1,-170.88"/>
<polygon fill="black" stroke="black" points="111.63,-170.35 114.34,-180.6 118.61,-170.9 111.63,-170.35"/>
</g>
<!-- I0000 -->
<g id="node6" class="node">
<title>I0000</title>
<ellipse fill="none" stroke="black" cx="241.76" cy="-18" rx="40.16" ry="18"/>
<text text-anchor="middle" x="241.76" y="-13.32" font-family="monospace" font-size="14.00">I0000</text>
</g>
<!-- I0005&#45;&gt;I0000 -->
<g id="edge6" class="edge">
<title>I0005&#45;&gt;I0000</title>
<path fill="none" stroke="black" d="M241.76,-78.96C241.76,-68.92 241.76,-57.7 241.76,-47.7"/>
<polygon fill="black" stroke="black" points="245.26,-47.79 241.76,-37.79 238.26,-47.79 245.26,-47.79"/>
</g>
</g>
</svg>
