<?xml version="1.0" encoding="UTF-8" standalone="no"?>
<!DOCTYPE svg PUBLIC "-//W3C//DTD SVG 1.1//EN"
 "http://www.w3.org/Graphics/SVG/1.1/DTD/svg11.dtd">
<!-- Generated by graphviz version 11.0.0 (20240428.1522)
 -->
<!-- Title: D Pages: 1 -->
<svg width="146pt" height="318pt"
 viewBox="0.00 0.00 146.00 318.45" xmlns="http://www.w3.org/2000/svg" xmlns:xlink="http://www.w3.org/1999/xlink">
<g id="graph0" class="graph" transform="scale(1 1) rotate(0) translate(4 314.45)">
<title>D</title>
<polygon fill="white" stroke="none" points="-4,4 -4,-314.45 142,-314.45 142,4 -4,4"/>
<text text-anchor="middle" x="69" y="-293.15" font-family="Times,serif" font-size="14.00">ast for &quot;a+&quot;</text>
<g id="clust1" class="cluster">
<title>cluster_0007</title>
<polygon fill="#f7f7f7" stroke="black" points="8,-8 8,-277.95 130,-277.95 130,-8 8,-8"/>
</g>
<g id="clust2" class="cluster">
<title>cluster_0003</title>
<polygon fill="#d9d9d9" stroke="black" points="16,-16 16,-183.97 122,-183.97 122,-16 16,-16"/>
</g>
<!-- A0007 -->
<g id="node1" class="node">
<title>A0007</title>
<ellipse fill="none" stroke="black" cx="69" cy="-240.96" rx="43.66" ry="28.99"/>
<text text-anchor="middle" x="69" y="-244.16" font-family="Times,serif" font-size="14.00">GROUP</text>
<text text-anchor="middle" x="69" y="-227.66" font-family="Times,serif" font-size="14.00">R</text>
</g>
<!-- A0003 -->
<g id="node2" class="node">
<title>A0003</title>
<ellipse fill="none" stroke="black" cx="69" cy="-146.97" rx="44.72" ry="28.99"/>
<text text-anchor="middle" x="69" y="-150.17" font-family="Times,serif" font-size="14.00">QUANT</text>
<text text-anchor="middle" x="69" y="-133.67" font-family="Times,serif" font-size="14.00">1&#45;∞</text>
</g>
<!-- A0007&#45;&gt;A0003 -->
<g id="edge2" class="edge">
<title>A0007&#45;&gt;A0003</title>
<path fill="none" stroke="black" d="M69,-211.61C69,-204.09 69,-195.83 69,-187.82"/>
<polygon fill="black" stroke="black" points="72.5,-187.9 69,-177.9 65.5,-187.9 72.5,-187.9"/>
</g>
<!-- A0001 -->
<g id="node3" class="node">
<title>A0001</title>
<ellipse fill="none" stroke="black" cx="69" cy="-52.99" rx="30.94" ry="28.99"/>
<text text-anchor="middle" x="69" y="-56.19" font-family="Times,serif" font-size="14.00">CHR</text>
<text text-anchor="middle" x="69" y="-39.69" font-family="Times,serif" font-size="14.00">a</text>
</g>
<!-- A0003&#45;&gt;A0001 -->
<g id="edge1" class="edge">
<title>A0003&#45;&gt;A0001</title>
<path fill="none" stroke="black" d="M69,-117.63C69,-110.11 69,-101.85 69,-93.84"/>
<polygon fill="black" stroke="black" points="72.5,-93.92 69,-83.92 65.5,-93.92 72.5,-93.92"/>
</g>
</g>
</svg>
