<?xml version="1.0" encoding="UTF-8" standalone="no"?>
<!DOCTYPE svg PUBLIC "-//W3C//DTD SVG 1.1//EN"
 "http://www.w3.org/Graphics/SVG/1.1/DTD/svg11.dtd">
<!-- Generated by graphviz version 11.0.0 (20240428.1522)
 -->
<!-- Title: D Pages: 1 -->
<svg width="232pt" height="377pt"
 viewBox="0.00 0.00 231.63 377.34" xmlns="http://www.w3.org/2000/svg" xmlns:xlink="http://www.w3.org/1999/xlink">
<g id="graph0" class="graph" transform="scale(1 1) rotate(0) translate(4 373.34)">
<title>D</title>
<polygon fill="white" stroke="none" points="-4,4 -4,-373.34 227.63,-373.34 227.63,4 -4,4"/>
<text text-anchor="middle" x="111.81" y="-352.04" font-family="Times,serif" font-size="14.00">program for &quot;a+&quot;</text>
<!-- I0001 -->
<g id="node1" class="node">
<title>I0001</title>
<polygon fill="#ffffcc" stroke="black" points="118.63,-303.58 62.69,-328.34 6.75,-303.58 28.12,-263.51 97.26,-263.51 118.63,-303.58"/>
<text text-anchor="middle" x="62.69" y="-295.71" font-family="Times,serif" font-size="14.00">MATCH</text>
<text text-anchor="middle" x="62.69" y="-279.21" font-family="Times,serif" font-size="14.00">set 1</text>
<text text-anchor="middle" x="3.38" y="-331.54" font-family="Times,serif" font-size="14.00">1</text>
</g>
<!-- I0002 -->
<g id="node2" class="node">
<title>I0002</title>
<polygon fill="#fbb4ae" stroke="black" points="93.94,-220.67 31.44,-220.67 31.44,-179.67 93.94,-179.67 93.94,-220.67"/>
<text text-anchor="middle" x="62.69" y="-203.37" font-family="Times,serif" font-size="14.00">RANGE</text>
<text text-anchor="middle" x="62.69" y="-186.87" font-family="Times,serif" font-size="14.00">a&#45;a</text>
<text text-anchor="middle" x="28.06" y="-223.87" font-family="Times,serif" font-size="14.00">2</text>
</g>
<!-- I0001&#45;&gt;I0002 -->
<g id="edge1" class="edge">
<title>I0001&#45;&gt;I0002</title>
<path fill="none" stroke="black" d="M62.69,-263.42C62.69,-253.52 62.69,-242.33 62.69,-232.2"/>
<polygon fill="black" stroke="black" points="66.19,-232.44 62.69,-222.44 59.19,-232.44 66.19,-232.44"/>
</g>
<!-- I0003 -->
<g id="node3" class="node">
<title>I0003</title>
<ellipse fill="#b3cde3" stroke="black" cx="62.69" cy="-125.67" rx="35.49" ry="18"/>
<text text-anchor="middle" x="62.69" y="-120.62" font-family="Times,serif" font-size="14.00">SPLIT</text>
<text text-anchor="middle" x="23.83" y="-146.87" font-family="Times,serif" font-size="14.00">3</text>
</g>
<!-- I0002&#45;&gt;I0003 -->
<g id="edge2" class="edge">
<title>I0002&#45;&gt;I0003</title>
<path fill="none" stroke="black" d="M62.69,-179.36C62.69,-171.92 62.69,-163.32 62.69,-155.24"/>
<polygon fill="black" stroke="black" points="66.19,-155.5 62.69,-145.5 59.19,-155.5 66.19,-155.5"/>
</g>
<!-- I0004 -->
<g id="node4" class="node">
<title>I0004</title>
<polygon fill="#fbb4ae" stroke="black" points="93.94,-56.34 31.44,-56.34 31.44,-15.34 93.94,-15.34 93.94,-56.34"/>
<text text-anchor="middle" x="62.69" y="-39.04" font-family="Times,serif" font-size="14.00">RANGE</text>
<text text-anchor="middle" x="62.69" y="-22.54" font-family="Times,serif" font-size="14.00">a&#45;a</text>
<text text-anchor="middle" x="28.06" y="-59.54" font-family="Times,serif" font-size="14.00">4</text>
</g>
<!-- I0003&#45;&gt;I0004 -->
<g id="edge3" class="edge">
<title>I0003&#45;&gt;I0004</title>
<path fill="none" stroke="black" d="M57.23,-107.74C55.98,-96.48 55.64,-81.36 56.2,-67.97"/>
<polygon fill="black" stroke="black" points="59.67,-68.51 56.83,-58.3 52.69,-68.06 59.67,-68.51"/>
</g>
<!-- I0005 -->
<g id="node5" class="node">
<title>I0005</title>
<polygon fill="#ffffcc" stroke="black" points="223.63,-46.91 167.69,-71.67 111.75,-46.91 133.12,-6.84 202.26,-6.84 223.63,-46.91"/>
<text text-anchor="middle" x="167.69" y="-39.04" font-family="Times,serif" font-size="14.00">MATCH</text>
<text text-anchor="middle" x="167.69" y="-22.54" font-family="Times,serif" font-size="14.00">slot 0</text>
<text text-anchor="middle" x="108.38" y="-74.87" font-family="Times,serif" font-size="14.00">5</text>
</g>
<!-- I0003&#45;&gt;I0005 -->
<g id="edge4" class="edge">
<title>I0003&#45;&gt;I0005</title>
<path fill="none" stroke="black" stroke-dasharray="5,2" d="M80.5,-109.77C94.45,-98.1 114.32,-81.48 131.56,-67.05"/>
<polygon fill="black" stroke="black" points="133.71,-69.82 139.14,-60.72 129.22,-64.45 133.71,-69.82"/>
</g>
<!-- I0004&#45;&gt;I0003 -->
<g id="edge5" class="edge">
<title>I0004&#45;&gt;I0003</title>
<path fill="none" stroke="black" d="M68.45,-56.79C69.53,-68.56 69.72,-83.64 69.03,-96.59"/>
<polygon fill="black" stroke="black" points="65.57,-95.98 68.27,-106.23 72.55,-96.54 65.57,-95.98"/>
</g>
</g>
</svg>
