<?xml version="1.0" encoding="UTF-8" standalone="no"?>
<!DOCTYPE svg PUBLIC "-//W3C//DTD SVG 1.1//EN"
 "http://www.w3.org/Graphics/SVG/1.1/DTD/svg11.dtd">
<!-- Generated by graphviz version 11.0.0 (20240428.1522)
 -->
<!-- Title: D Pages: 1 -->
<svg width="228pt" height="383pt"
 viewBox="0.00 0.00 227.54 383.34" xmlns="http://www.w3.org/2000/svg" xmlns:xlink="http://www.w3.org/1999/xlink">
<g id="graph0" class="graph" transform="scale(1 1) rotate(0) translate(4 379.34)">
<title>D</title>
<polygon fill="white" stroke="none" points="-4,4 -4,-379.34 223.54,-379.34 223.54,4 -4,4"/>
<text text-anchor="middle" x="109.77" y="-358.04" font-family="sans-serif" font-size="14.00">program for &quot;a+&quot;</text>
<!-- I0001 -->
<g id="node1" class="node">
<title>I0001</title>
<polygon fill="#ffffcc" stroke="black" points="108.33,-309.42 58.29,-335.09 8.25,-309.42 27.36,-267.89 89.21,-267.89 108.33,-309.42"/>
<text text-anchor="middle" x="58.29" y="-301.89" font-family="monospace" font-size="14.00">MATCH</text>
<text text-anchor="middle" x="58.29" y="-284.64" font-family="monospace" font-size="14.00">set 1</text>
<text text-anchor="middle" x="4.12" y="-339.04" font-family="monospace" font-size="14.00">1</text>
</g>
<!-- I0002 -->
<g id="node2" class="node">
<title>I0002</title>
<polygon fill="#fbb4ae" stroke="black" points="86.91,-224.79 29.66,-224.79 29.66,-182.29 86.91,-182.29 86.91,-224.79"/>
<text text-anchor="middle" x="58.29" y="-207.49" font-family="monospace" font-size="14.00">RANGE</text>
<text text-anchor="middle" x="58.29" y="-190.24" font-family="monospace" font-size="14.00">a&#45;a</text>
<text text-anchor="middle" x="25.54" y="-228.74" font-family="monospace" font-size="14.00">2</text>
</g>
<!-- I0001&#45;&gt;I0002 -->
<g id="edge1" class="edge">
<title>I0001&#45;&gt;I0002</title>
<path fill="none" stroke="black" d="M58.29,-267.45C58.29,-257.58 58.29,-246.54 58.29,-236.49"/>
<polygon fill="black" stroke="black" points="61.79,-236.79 58.29,-226.79 54.79,-236.79 61.79,-236.79"/>
</g>
<!-- I0003 -->
<g id="node3" class="node">
<title>I0003</title>
<ellipse fill="#b3cde3" stroke="black" cx="58.29" cy="-128.29" rx="40.16" ry="18"/>
<text text-anchor="middle" x="58.29" y="-123.62" font-family="monospace" font-size="14.00">SPLIT</text>
<text text-anchor="middle" x="14" y="-150.24" font-family="monospace" font-size="14.00">3</text>
</g>
<!-- I0002&#45;&gt;I0003 -->
<g id="edge2" class="edge">
<title>I0002&#45;&gt;I0003</title>
<path fill="none" stroke="black" d="M58.29,-182.14C58.29,-174.63 58.29,-165.98 58.29,-157.88"/>
<polygon fill="black" stroke="black" points="61.79,-158.12 58.29,-148.12 54.79,-158.12 61.79,-158.12"/>
</g>
<!-- I0004 -->
<g id="node4" class="node">
<title>I0004</title>
<polygon fill="#fbb4ae" stroke="black" points="86.91,-58.4 29.66,-58.4 29.66,-15.9 86.91,-15.9 86.91,-58.4"/>
<text text-anchor="middle" x="58.29" y="-41.1" font-family="monospace" font-size="14.00">RANGE</text>
<text text-anchor="middle" x="58.29" y="-23.85" font-family="monospace" font-size="14.00">a&#45;a</text>
<text text-anchor="middle" x="25.54" y="-62.35" font-family="monospace" font-size="14.00">4</text>
</g>
<!-- I0003&#45;&gt;I0004 -->
<g id="edge3" class="edge">
<title>I0003&#45;&gt;I0004</title>
<path fill="none" stroke="black" d="M52.83,-110.1C51.59,-98.76 51.24,-83.54 51.79,-70.02"/>
<polygon fill="black" stroke="black" points="55.27,-70.43 52.4,-60.23 48.28,-70 55.27,-70.43"/>
</g>
<!-- I0005 -->
<g id="node5" class="node">
<title>I0005</title>
<polygon fill="#ffffcc" stroke="black" points="219.54,-48.63 162.29,-74.29 105.04,-48.63 126.91,-7.09 197.67,-7.09 219.54,-48.63"/>
<text text-anchor="middle" x="162.29" y="-41.1" font-family="monospace" font-size="14.00">MATCH</text>
<text text-anchor="middle" x="162.29" y="-23.85" font-family="monospace" font-size="14.00">slot 0</text>
<text text-anchor="middle" x="100.91" y="-78.24" font-family="monospace" font-size="14.00">5</text>
</g>
<!-- I0003&#45;&gt;I0005 -->
<g id="edge4" class="edge">
<title>I0003&#45;&gt;I0005</title>
<path fill="none" stroke="black" stroke-dasharray="5,2" d="M76.4,-111.76C89.98,-100.13 109.02,-83.81 125.72,-69.49"/>
<polygon fill="black" stroke="black" points="127.74,-72.37 133.06,-63.2 123.18,-67.06 127.74,-72.37"/>
</g>
<!-- I0004&#45;&gt;I0003 -->
<g id="edge5" class="edge">
<title>I0004&#45;&gt;I0003</title>
<path fill="none" stroke="black" d="M64.08,-58.72C65.14,-70.65 65.32,-85.83 64.63,-98.88"/>
<polygon fill="black" stroke="black" points="61.16,-98.35 63.86,-108.6 68.14,-98.9 61.16,-98.35"/>
</g>
</g>
</svg>
