<?xml version="1.0" encoding="UTF-8" standalone="no"?>
<!DOCTYPE svg PUBLIC "-//W3C//DTD SVG 1.1//EN"
 "http://www.w3.org/Graphics/SVG/1.1/DTD/svg11.dtd">
<!-- Generated by graphviz version 11.0.0 (20240428.1522)
 -->
<!-- Title: D Pages: 1 -->
<svg width="235pt" height="525pt"
 viewBox="0.00 0.00 234.75 525.42" xmlns="http://www.w3.org/2000/svg" xmlns:xlink="http://www.w3.org/1999/xlink">
<g id="graph0" class="graph" transform="scale(1 1) rotate(0) translate(4 521.42)">
<title>D</title>
<polygon fill="white" stroke="none" points="-4,4 -4,-521.42 230.75,-521.42 230.75,4 -4,4"/>
<text text-anchor="middle" x="113.37" y="-500.12" font-family="sans-serif" font-size="14.00">program for &quot;(a*?)&quot;</text>
<!-- I0001 -->
<g id="node1" class="node">
<title>I0001</title>
<polygon fill="#ffffcc" stroke="black" points="219.54,-451.5 169.5,-477.17 119.46,-451.5 138.57,-409.97 200.42,-409.97 219.54,-451.5"/>
<text text-anchor="middle" x="169.5" y="-443.97" font-family="monospace" font-size="14.00">MATCH</text>
<text text-anchor="middle" x="169.5" y="-426.72" font-family="monospace" font-size="14.00">set 1</text>
<text text-anchor="middle" x="115.34" y="-481.12" font-family="monospace" font-size="14.00">1</text>
</g>
<!-- I0002 -->
<g id="node2" class="node">
<title>I0002</title>
<polygon fill="#ffffcc" stroke="black" points="226.75,-341.21 169.5,-366.88 112.25,-341.21 134.12,-299.68 204.88,-299.68 226.75,-341.21"/>
<text text-anchor="middle" x="169.5" y="-333.68" font-family="monospace" font-size="14.00">MATCH</text>
<text text-anchor="middle" x="169.5" y="-316.43" font-family="monospace" font-size="14.00">slot 2</text>
<text text-anchor="middle" x="108.12" y="-370.83" font-family="monospace" font-size="14.00">2</text>
</g>
<!-- I0001&#45;&gt;I0002 -->
<g id="edge1" class="edge">
<title>I0001&#45;&gt;I0002</title>
<path fill="none" stroke="black" d="M169.5,-409.72C169.5,-400.15 169.5,-389.26 169.5,-378.69"/>
<polygon fill="black" stroke="black" points="173,-378.94 169.5,-368.94 166,-378.94 173,-378.94"/>
</g>
<!-- I0003 -->
<g id="node3" class="node">
<title>I0003</title>
<ellipse fill="#b3cde3" stroke="black" cx="169.5" cy="-238.59" rx="40.16" ry="18"/>
<text text-anchor="middle" x="169.5" y="-233.91" font-family="monospace" font-size="14.00">SPLIT</text>
<text text-anchor="middle" x="125.21" y="-260.54" font-family="monospace" font-size="14.00">3</text>
</g>
<!-- I0002&#45;&gt;I0003 -->
<g id="edge2" class="edge">
<title>I0002&#45;&gt;I0003</title>
<path fill="none" stroke="black" d="M169.5,-299.54C169.5,-289.51 169.5,-278.28 169.5,-268.29"/>
<polygon fill="black" stroke="black" points="173,-268.38 169.5,-258.38 166,-268.38 173,-268.38"/>
</g>
<!-- I0005 -->
<g id="node4" class="node">
<title>I0005</title>
<polygon fill="#ffffcc" stroke="black" points="122.75,-158.92 65.5,-184.59 8.25,-158.92 30.12,-117.39 100.88,-117.39 122.75,-158.92"/>
<text text-anchor="middle" x="65.5" y="-151.39" font-family="monospace" font-size="14.00">MATCH</text>
<text text-anchor="middle" x="65.5" y="-134.14" font-family="monospace" font-size="14.00">slot 3</text>
<text text-anchor="middle" x="4.12" y="-188.54" font-family="monospace" font-size="14.00">5</text>
</g>
<!-- I0003&#45;&gt;I0005 -->
<g id="edge3" class="edge">
<title>I0003&#45;&gt;I0005</title>
<path fill="none" stroke="black" d="M151.38,-222.06C137.8,-210.42 118.77,-194.1 102.06,-179.78"/>
<polygon fill="black" stroke="black" points="104.6,-177.35 94.73,-173.5 100.05,-182.66 104.6,-177.35"/>
</g>
<!-- I0004 -->
<g id="node5" class="node">
<title>I0004</title>
<polygon fill="#fbb4ae" stroke="black" points="198.12,-168.69 140.87,-168.69 140.87,-126.19 198.12,-126.19 198.12,-168.69"/>
<text text-anchor="middle" x="169.5" y="-151.39" font-family="monospace" font-size="14.00">RANGE</text>
<text text-anchor="middle" x="169.5" y="-134.14" font-family="monospace" font-size="14.00">a&#45;a</text>
<text text-anchor="middle" x="136.75" y="-172.64" font-family="monospace" font-size="14.00">4</text>
</g>
<!-- I0003&#45;&gt;I0004 -->
<g id="edge4" class="edge">
<title>I0003&#45;&gt;I0004</title>
<path fill="none" stroke="black" stroke-dasharray="5,2" d="M164.04,-220.4C162.8,-209.05 162.45,-193.83 163,-180.32"/>
<polygon fill="black" stroke="black" points="166.48,-180.73 163.61,-170.53 159.49,-180.29 166.48,-180.73"/>
</g>
<!-- I0006 -->
<g id="node6" class="node">
<title>I0006</title>
<polygon fill="#ffffcc" stroke="black" points="122.75,-48.63 65.5,-74.29 8.25,-48.63 30.12,-7.09 100.88,-7.09 122.75,-48.63"/>
<text text-anchor="middle" x="65.5" y="-41.1" font-family="monospace" font-size="14.00">MATCH</text>
<text text-anchor="middle" x="65.5" y="-23.85" font-family="monospace" font-size="14.00">slot 0</text>
<text text-anchor="middle" x="4.12" y="-78.24" font-family="monospace" font-size="14.00">6</text>
</g>
<!-- I0005&#45;&gt;I0006 -->
<g id="edge6" class="edge">
<title>I0005&#45;&gt;I0006</title>
<path fill="none" stroke="black" d="M65.5,-117.13C65.5,-107.57 65.5,-96.68 65.5,-86.11"/>
<polygon fill="black" stroke="black" points="69,-86.35 65.5,-76.35 62,-86.35 69,-86.35"/>
</g>
<!-- I0004&#45;&gt;I0003 -->
<g id="edge5" class="edge">
<title>I0004&#45;&gt;I0003</title>
<path fill="none" stroke="black" d="M175.29,-169.02C176.35,-180.94 176.53,-196.12 175.84,-209.17"/>
<polygon fill="black" stroke="black" points="172.37,-208.64 175.08,-218.89 179.35,-209.19 172.37,-208.64"/>
</g>
</g>
</svg>
