<?xml version="1.0" encoding="UTF-8" standalone="no"?>
<!DOCTYPE svg PUBLIC "-//W3C//DTD SVG 1.1//EN"
 "http://www.w3.org/Graphics/SVG/1.1/DTD/svg11.dtd">
<!-- Generated by graphviz version 11.0.0 (20240428.1522)
 -->
<!-- Title: D Pages: 1 -->
<svg width="176pt" height="398pt"
 viewBox="0.00 0.00 176.00 398.45" xmlns="http://www.w3.org/2000/svg" xmlns:xlink="http://www.w3.org/1999/xlink">
<g id="graph0" class="graph" transform="scale(1 1) rotate(0) translate(4 394.45)">
<title>D</title>
<polygon fill="white" stroke="none" points="-4,4 -4,-394.45 172,-394.45 172,4 -4,4"/>
<text text-anchor="middle" x="84" y="-373.15" font-family="Times,serif" font-size="14.00">ast for &quot;(a*?)&quot;</text>
<g id="clust1" class="cluster">
<title>cluster_000B</title>
<polygon fill="#f7f7f7" stroke="black" points="8,-8 8,-357.95 160,-357.95 160,-8 8,-8"/>
</g>
<g id="clust2" class="cluster">
<title>cluster_0001</title>
<polygon fill="#d9d9d9" stroke="black" points="16,-16 16,-263.97 152,-263.97 152,-16 16,-16"/>
</g>
<g id="clust3" class="cluster">
<title>cluster_0007</title>
<polygon fill="#bdbdbd" stroke="black" points="24,-24 24,-191.97 144,-191.97 144,-24 24,-24"/>
</g>
<!-- A000B -->
<g id="node1" class="node">
<title>A000B</title>
<ellipse fill="none" stroke="black" cx="84" cy="-320.96" rx="43.66" ry="28.99"/>
<text text-anchor="middle" x="84" y="-324.16" font-family="Times,serif" font-size="14.00">GROUP</text>
<text text-anchor="middle" x="84" y="-307.66" font-family="Times,serif" font-size="14.00">R</text>
</g>
<!-- A0001 -->
<g id="node2" class="node">
<title>A0001</title>
<ellipse fill="none" stroke="black" cx="84" cy="-237.97" rx="42.14" ry="18"/>
<text text-anchor="middle" x="84" y="-232.92" font-family="Times,serif" font-size="14.00">GROUP</text>
</g>
<!-- A000B&#45;&gt;A0001 -->
<g id="edge3" class="edge">
<title>A000B&#45;&gt;A0001</title>
<path fill="none" stroke="black" d="M84,-291.63C84,-283.75 84,-275.2 84,-267.32"/>
<polygon fill="black" stroke="black" points="87.5,-267.57 84,-257.57 80.5,-267.57 87.5,-267.57"/>
</g>
<!-- A0007 -->
<g id="node3" class="node">
<title>A0007</title>
<ellipse fill="none" stroke="black" cx="84" cy="-154.97" rx="51.62" ry="28.99"/>
<text text-anchor="middle" x="84" y="-158.17" font-family="Times,serif" font-size="14.00">UQUANT</text>
<text text-anchor="middle" x="84" y="-141.67" font-family="Times,serif" font-size="14.00">0&#45;∞</text>
</g>
<!-- A0001&#45;&gt;A0007 -->
<g id="edge2" class="edge">
<title>A0001&#45;&gt;A0007</title>
<path fill="none" stroke="black" d="M84,-219.79C84,-212.7 84,-204.17 84,-195.68"/>
<polygon fill="black" stroke="black" points="87.5,-195.79 84,-185.79 80.5,-195.79 87.5,-195.79"/>
</g>
<!-- A0005 -->
<g id="node4" class="node">
<title>A0005</title>
<ellipse fill="none" stroke="black" cx="84" cy="-60.99" rx="30.94" ry="28.99"/>
<text text-anchor="middle" x="84" y="-64.19" font-family="Times,serif" font-size="14.00">CHR</text>
<text text-anchor="middle" x="84" y="-47.69" font-family="Times,serif" font-size="14.00">a</text>
</g>
<!-- A0007&#45;&gt;A0005 -->
<g id="edge1" class="edge">
<title>A0007&#45;&gt;A0005</title>
<path fill="none" stroke="black" d="M84,-125.63C84,-118.11 84,-109.85 84,-101.84"/>
<polygon fill="black" stroke="black" points="87.5,-101.92 84,-91.92 80.5,-101.92 87.5,-101.92"/>
</g>
</g>
</svg>
