<?xml version="1.0" encoding="UTF-8" standalone="no"?>
<!DOCTYPE svg PUBLIC "-//W3C//DTD SVG 1.1//EN"
 "http://www.w3.org/Graphics/SVG/1.1/DTD/svg11.dtd">
<!-- Generated by graphviz version 11.0.0 (20240428.1522)
 -->
<!-- Title: D Pages: 1 -->
<svg width="232pt" height="516pt"
 viewBox="0.00 0.00 231.63 515.68" xmlns="http://www.w3.org/2000/svg" xmlns:xlink="http://www.w3.org/1999/xlink">
<g id="graph0" class="graph" transform="scale(1 1) rotate(0) translate(4 511.68)">
<title>D</title>
<polygon fill="white" stroke="none" points="-4,4 -4,-511.68 227.63,-511.68 227.63,4 -4,4"/>
<text text-anchor="middle" x="111.81" y="-490.38" font-family="Times,serif" font-size="14.00">program for &quot;(a*?)&quot;</text>
<!-- I0001 -->
<g id="node1" class="node">
<title>I0001</title>
<polygon fill="#ffffcc" stroke="black" points="223.63,-441.92 167.69,-466.68 111.75,-441.92 133.12,-401.86 202.26,-401.86 223.63,-441.92"/>
<text text-anchor="middle" x="167.69" y="-434.05" font-family="Times,serif" font-size="14.00">MATCH</text>
<text text-anchor="middle" x="167.69" y="-417.55" font-family="Times,serif" font-size="14.00">set 1</text>
<text text-anchor="middle" x="108.38" y="-469.88" font-family="Times,serif" font-size="14.00">1</text>
</g>
<!-- I0002 -->
<g id="node2" class="node">
<title>I0002</title>
<polygon fill="#ffffcc" stroke="black" points="223.63,-334.25 167.69,-359.01 111.75,-334.25 133.12,-294.19 202.26,-294.19 223.63,-334.25"/>
<text text-anchor="middle" x="167.69" y="-326.38" font-family="Times,serif" font-size="14.00">MATCH</text>
<text text-anchor="middle" x="167.69" y="-309.88" font-family="Times,serif" font-size="14.00">slot 2</text>
<text text-anchor="middle" x="108.38" y="-362.21" font-family="Times,serif" font-size="14.00">2</text>
</g>
<!-- I0001&#45;&gt;I0002 -->
<g id="edge1" class="edge">
<title>I0001&#45;&gt;I0002</title>
<path fill="none" stroke="black" d="M167.69,-401.53C167.69,-392.01 167.69,-381.13 167.69,-370.59"/>
<polygon fill="black" stroke="black" points="171.19,-370.89 167.69,-360.89 164.19,-370.89 171.19,-370.89"/>
</g>
<!-- I0003 -->
<g id="node3" class="node">
<title>I0003</title>
<ellipse fill="#b3cde3" stroke="black" cx="167.69" cy="-233.34" rx="35.49" ry="18"/>
<text text-anchor="middle" x="167.69" y="-228.29" font-family="Times,serif" font-size="14.00">SPLIT</text>
<text text-anchor="middle" x="128.83" y="-254.54" font-family="Times,serif" font-size="14.00">3</text>
</g>
<!-- I0002&#45;&gt;I0003 -->
<g id="edge2" class="edge">
<title>I0002&#45;&gt;I0003</title>
<path fill="none" stroke="black" d="M167.69,-293.9C167.69,-284.06 167.69,-273.02 167.69,-263.13"/>
<polygon fill="black" stroke="black" points="171.19,-263.33 167.69,-253.33 164.19,-263.33 171.19,-263.33"/>
</g>
<!-- I0005 -->
<g id="node4" class="node">
<title>I0005</title>
<polygon fill="#ffffcc" stroke="black" points="118.63,-154.58 62.69,-179.34 6.75,-154.58 28.12,-114.51 97.26,-114.51 118.63,-154.58"/>
<text text-anchor="middle" x="62.69" y="-146.71" font-family="Times,serif" font-size="14.00">MATCH</text>
<text text-anchor="middle" x="62.69" y="-130.21" font-family="Times,serif" font-size="14.00">slot 3</text>
<text text-anchor="middle" x="3.38" y="-182.54" font-family="Times,serif" font-size="14.00">5</text>
</g>
<!-- I0003&#45;&gt;I0005 -->
<g id="edge3" class="edge">
<title>I0003&#45;&gt;I0005</title>
<path fill="none" stroke="black" d="M149.88,-217.44C135.93,-205.77 116.06,-189.15 98.81,-174.73"/>
<polygon fill="black" stroke="black" points="101.16,-172.12 91.24,-168.39 96.66,-177.49 101.16,-172.12"/>
</g>
<!-- I0004 -->
<g id="node5" class="node">
<title>I0004</title>
<polygon fill="#fbb4ae" stroke="black" points="198.94,-164.01 136.44,-164.01 136.44,-123.01 198.94,-123.01 198.94,-164.01"/>
<text text-anchor="middle" x="167.69" y="-146.71" font-family="Times,serif" font-size="14.00">RANGE</text>
<text text-anchor="middle" x="167.69" y="-130.21" font-family="Times,serif" font-size="14.00">a&#45;a</text>
<text text-anchor="middle" x="133.06" y="-167.21" font-family="Times,serif" font-size="14.00">4</text>
</g>
<!-- I0003&#45;&gt;I0004 -->
<g id="edge4" class="edge">
<title>I0003&#45;&gt;I0004</title>
<path fill="none" stroke="black" stroke-dasharray="5,2" d="M162.23,-215.41C160.98,-204.15 160.64,-189.03 161.2,-175.64"/>
<polygon fill="black" stroke="black" points="164.67,-176.18 161.83,-165.97 157.69,-175.73 164.67,-176.18"/>
</g>
<!-- I0006 -->
<g id="node6" class="node">
<title>I0006</title>
<polygon fill="#ffffcc" stroke="black" points="118.63,-46.91 62.69,-71.67 6.75,-46.91 28.12,-6.84 97.26,-6.84 118.63,-46.91"/>
<text text-anchor="middle" x="62.69" y="-39.04" font-family="Times,serif" font-size="14.00">MATCH</text>
<text text-anchor="middle" x="62.69" y="-22.54" font-family="Times,serif" font-size="14.00">slot 0</text>
<text text-anchor="middle" x="3.38" y="-74.87" font-family="Times,serif" font-size="14.00">6</text>
</g>
<!-- I0005&#45;&gt;I0006 -->
<g id="edge6" class="edge">
<title>I0005&#45;&gt;I0006</title>
<path fill="none" stroke="black" d="M62.69,-114.19C62.69,-104.67 62.69,-93.79 62.69,-83.25"/>
<polygon fill="black" stroke="black" points="66.19,-83.55 62.69,-73.55 59.19,-83.55 66.19,-83.55"/>
</g>
<!-- I0004&#45;&gt;I0003 -->
<g id="edge5" class="edge">
<title>I0004&#45;&gt;I0003</title>
<path fill="none" stroke="black" d="M173.45,-164.46C174.53,-176.23 174.72,-191.31 174.03,-204.26"/>
<polygon fill="black" stroke="black" points="170.57,-203.65 173.27,-213.9 177.55,-204.21 170.57,-203.65"/>
</g>
</g>
</svg>
