<?xml version="1.0" encoding="UTF-8" standalone="no"?>
<!DOCTYPE svg PUBLIC "-//W3C//DTD SVG 1.1//EN"
 "http://www.w3.org/Graphics/SVG/1.1/DTD/svg11.dtd">
<!-- Generated by graphviz version 11.0.0 (20240428.1522)
 -->
<!-- Title: D Pages: 1 -->
<svg width="357pt" height="597pt"
 viewBox="0.00 0.00 357.28 597.42" xmlns="http://www.w3.org/2000/svg" xmlns:xlink="http://www.w3.org/1999/xlink">
<g id="graph0" class="graph" transform="scale(1 1) rotate(0) translate(4 593.42)">
<title>D</title>
<polygon fill="white" stroke="none" points="-4,4 -4,-593.42 353.28,-593.42 353.28,4 -4,4"/>
<text text-anchor="middle" x="174.64" y="-572.12" font-family="sans-serif" font-size="14.00">program for &quot;(a*?)&quot;</text>
<!-- I0001 -->
<g id="node1" class="node">
<title>I0001</title>
<polygon fill="#ffffcc" stroke="black" points="342.07,-523.5 241.55,-549.17 141.04,-523.5 179.43,-481.97 303.67,-481.97 342.07,-523.5"/>
<text text-anchor="middle" x="241.55" y="-515.97" font-family="monospace" font-size="14.00">MATCH</text>
<text text-anchor="middle" x="241.55" y="-498.72" font-family="monospace" font-size="14.00"> set 1 begin</text>
<text text-anchor="middle" x="136.91" y="-553.12" font-family="monospace" font-size="14.00">1</text>
</g>
<!-- I0002 -->
<g id="node2" class="node">
<title>I0002</title>
<polygon fill="#ffffcc" stroke="black" points="349.28,-413.21 241.55,-438.88 133.83,-413.21 174.98,-371.68 308.13,-371.68 349.28,-413.21"/>
<text text-anchor="middle" x="241.55" y="-405.68" font-family="monospace" font-size="14.00">MATCH</text>
<text text-anchor="middle" x="241.55" y="-388.43" font-family="monospace" font-size="14.00"> slot 1 begin</text>
<text text-anchor="middle" x="129.7" y="-442.83" font-family="monospace" font-size="14.00">2</text>
</g>
<!-- I0001&#45;&gt;I0002 -->
<g id="edge1" class="edge">
<title>I0001&#45;&gt;I0002</title>
<path fill="none" stroke="black" d="M241.55,-481.72C241.55,-472.06 241.55,-461.05 241.55,-450.39"/>
<polygon fill="black" stroke="black" points="245.05,-450.54 241.55,-440.54 238.05,-450.54 245.05,-450.54"/>
</g>
<!-- I0003 -->
<g id="node3" class="node">
<title>I0003</title>
<ellipse fill="#b3cde3" stroke="black" cx="241.55" cy="-310.59" rx="40.16" ry="18"/>
<text text-anchor="middle" x="241.55" y="-305.91" font-family="monospace" font-size="14.00">SPLIT</text>
<text text-anchor="middle" x="197.27" y="-332.54" font-family="monospace" font-size="14.00">3</text>
</g>
<!-- I0002&#45;&gt;I0003 -->
<g id="edge2" class="edge">
<title>I0002&#45;&gt;I0003</title>
<path fill="none" stroke="black" d="M241.55,-371.54C241.55,-361.51 241.55,-350.28 241.55,-340.29"/>
<polygon fill="black" stroke="black" points="245.05,-340.38 241.55,-330.38 238.05,-340.38 245.05,-340.38"/>
</g>
<!-- I0005 -->
<g id="node4" class="node">
<title>I0005</title>
<polygon fill="#ffffcc" stroke="black" points="194.86,-230.92 101.55,-256.59 8.25,-230.92 43.89,-189.39 159.22,-189.39 194.86,-230.92"/>
<text text-anchor="middle" x="101.55" y="-223.39" font-family="monospace" font-size="14.00">MATCH</text>
<text text-anchor="middle" x="101.55" y="-206.14" font-family="monospace" font-size="14.00"> slot 1 end</text>
<text text-anchor="middle" x="4.12" y="-260.54" font-family="monospace" font-size="14.00">5</text>
</g>
<!-- I0003&#45;&gt;I0005 -->
<g id="edge3" class="edge">
<title>I0003&#45;&gt;I0005</title>
<path fill="none" stroke="black" d="M219.06,-295.26C200.8,-283.63 174.37,-266.81 151.2,-252.05"/>
<polygon fill="black" stroke="black" points="153.1,-249.11 142.78,-246.69 149.34,-255.02 153.1,-249.11"/>
</g>
<!-- I0004 -->
<g id="node5" class="node">
<title>I0004</title>
<polygon fill="#fbb4ae" stroke="black" points="270.18,-240.69 212.93,-240.69 212.93,-198.19 270.18,-198.19 270.18,-240.69"/>
<text text-anchor="middle" x="241.55" y="-223.39" font-family="monospace" font-size="14.00">RANGE</text>
<text text-anchor="middle" x="241.55" y="-206.14" font-family="monospace" font-size="14.00">a&#45;a</text>
<text text-anchor="middle" x="208.8" y="-244.64" font-family="monospace" font-size="14.00">4</text>
</g>
<!-- I0003&#45;&gt;I0004 -->
<g id="edge4" class="edge">
<title>I0003&#45;&gt;I0004</title>
<path fill="none" stroke="black" stroke-dasharray="5,2" d="M236.09,-292.4C234.86,-281.05 234.51,-265.83 235.05,-252.32"/>
<polygon fill="black" stroke="black" points="238.53,-252.73 235.67,-242.53 231.55,-252.29 238.53,-252.73"/>
</g>
<!-- I0006 -->
<g id="node6" class="node">
<title>I0006</title>
<polygon fill="#ffffcc" stroke="black" points="187.65,-120.63 101.55,-146.29 15.46,-120.63 48.35,-79.09 154.76,-79.09 187.65,-120.63"/>
<text text-anchor="middle" x="101.55" y="-113.1" font-family="monospace" font-size="14.00">MATCH</text>
<text text-anchor="middle" x="101.55" y="-95.85" font-family="monospace" font-size="14.00"> set 1 end</text>
<text text-anchor="middle" x="11.34" y="-150.24" font-family="monospace" font-size="14.00">6</text>
</g>
<!-- I0005&#45;&gt;I0006 -->
<g id="edge6" class="edge">
<title>I0005&#45;&gt;I0006</title>
<path fill="none" stroke="black" d="M101.55,-189.13C101.55,-179.47 101.55,-168.47 101.55,-157.8"/>
<polygon fill="black" stroke="black" points="105.05,-157.95 101.55,-147.95 98.05,-157.95 105.05,-157.95"/>
</g>
<!-- I0004&#45;&gt;I0003 -->
<g id="edge5" class="edge">
<title>I0004&#45;&gt;I0003</title>
<path fill="none" stroke="black" d="M247.35,-241.02C248.4,-252.94 248.58,-268.12 247.89,-281.17"/>
<polygon fill="black" stroke="black" points="244.42,-280.64 247.13,-290.89 251.4,-281.19 244.42,-280.64"/>
</g>
<!-- I0000 -->
<g id="node7" class="node">
<title>I0000</title>
<ellipse fill="none" stroke="black" cx="101.55" cy="-18" rx="40.16" ry="18"/>
<text text-anchor="middle" x="101.55" y="-13.32" font-family="monospace" font-size="14.00">I0000</text>
</g>
<!-- I0006&#45;&gt;I0000 -->
<g id="edge7" class="edge">
<title>I0006&#45;&gt;I0000</title>
<path fill="none" stroke="black" d="M101.55,-78.96C101.55,-68.92 101.55,-57.7 101.55,-47.7"/>
<polygon fill="black" stroke="black" points="105.05,-47.79 101.55,-37.79 98.05,-47.79 105.05,-47.79"/>
</g>
</g>
</svg>
