<?xml version="1.0" encoding="UTF-8" standalone="no"?>
<!DOCTYPE svg PUBLIC "-//W3C//DTD SVG 1.1//EN"
 "http://www.w3.org/Graphics/SVG/1.1/DTD/svg11.dtd">
<!-- Generated by graphviz version 11.0.0 (20240428.1522)
 -->
<!-- Title: D Pages: 1 -->
<svg width="164pt" height="403pt"
 viewBox="0.00 0.00 164.00 403.31" xmlns="http://www.w3.org/2000/svg" xmlns:xlink="http://www.w3.org/1999/xlink">
<g id="graph0" class="graph" transform="scale(1 1) rotate(0) translate(4 399.31)">
<title>D</title>
<polygon fill="white" stroke="none" points="-4,4 -4,-399.31 160,-399.31 160,4 -4,4"/>
<text text-anchor="middle" x="78" y="-378.01" font-family="sans-serif" font-size="14.00">ast for &quot;(a*?)&quot;</text>
<g id="clust1" class="cluster">
<title>cluster_000B</title>
<polygon fill="#f7f7f7" stroke="black" points="8,-8 8,-364.31 148,-364.31 148,-8 8,-8"/>
</g>
<g id="clust2" class="cluster">
<title>cluster_0001</title>
<polygon fill="#d9d9d9" stroke="black" points="16,-16 16,-268.21 140,-268.21 140,-16 16,-16"/>
</g>
<g id="clust3" class="cluster">
<title>cluster_0007</title>
<polygon fill="#bdbdbd" stroke="black" points="24,-24 24,-196.21 132,-196.21 132,-24 24,-24"/>
</g>
<!-- A000B -->
<g id="node1" class="node">
<title>A000B</title>
<ellipse fill="none" stroke="black" cx="78" cy="-326.26" rx="40.48" ry="30.05"/>
<text text-anchor="middle" x="78" y="-330.21" font-family="monospace" font-size="14.00">GROUP</text>
<text text-anchor="middle" x="78" y="-312.96" font-family="monospace" font-size="14.00">R</text>
</g>
<!-- A0001 -->
<g id="node2" class="node">
<title>A0001</title>
<ellipse fill="none" stroke="black" cx="78" cy="-242.21" rx="40.16" ry="18"/>
<text text-anchor="middle" x="78" y="-237.53" font-family="monospace" font-size="14.00">GROUP</text>
</g>
<!-- A000B&#45;&gt;A0001 -->
<g id="edge3" class="edge">
<title>A000B&#45;&gt;A0001</title>
<path fill="none" stroke="black" d="M78,-296.1C78,-288.15 78,-279.54 78,-271.63"/>
<polygon fill="black" stroke="black" points="81.5,-271.84 78,-261.84 74.5,-271.84 81.5,-271.84"/>
</g>
<!-- A0007 -->
<g id="node3" class="node">
<title>A0007</title>
<ellipse fill="none" stroke="black" cx="78" cy="-158.16" rx="46.32" ry="30.05"/>
<text text-anchor="middle" x="78" y="-162.11" font-family="monospace" font-size="14.00">UQUANT</text>
<text text-anchor="middle" x="78" y="-144.86" font-family="monospace" font-size="14.00">0&#45;∞</text>
</g>
<!-- A0001&#45;&gt;A0007 -->
<g id="edge2" class="edge">
<title>A0001&#45;&gt;A0007</title>
<path fill="none" stroke="black" d="M78,-223.81C78,-216.76 78,-208.29 78,-199.85"/>
<polygon fill="black" stroke="black" points="81.5,-200 78,-190 74.5,-200 81.5,-200"/>
</g>
<!-- A0005 -->
<g id="node4" class="node">
<title>A0005</title>
<ellipse fill="none" stroke="black" cx="78" cy="-62.05" rx="28.81" ry="30.05"/>
<text text-anchor="middle" x="78" y="-66" font-family="monospace" font-size="14.00">CHR</text>
<text text-anchor="middle" x="78" y="-48.75" font-family="monospace" font-size="14.00">a</text>
</g>
<!-- A0007&#45;&gt;A0005 -->
<g id="edge1" class="edge">
<title>A0007&#45;&gt;A0005</title>
<path fill="none" stroke="black" d="M78,-127.64C78,-120.11 78,-111.87 78,-103.88"/>
<polygon fill="black" stroke="black" points="81.5,-103.98 78,-93.98 74.5,-103.98 81.5,-103.98"/>
</g>
</g>
</svg>
